<?xml version="1.0" standalone="no"?>
<!DOCTYPE svg PUBLIC "-//W3C//DTD SVG 1.1//EN" "http://www.w3.org/Graphics/SVG/1.1/DTD/svg11.dtd" >
<svg xmlns="http://www.w3.org/2000/svg" xmlns:xlink="http://www.w3.org/1999/xlink" version="1.1">
<metadata>
Created by FontForge 20201107 at Fri May 31 09:58:15 2024
 By 
Copyright (c) 2012-2017 Monotype GmbH. All rights reserved.
</metadata>
<defs>
<font id="SST-Bold" horiz-adv-x="788" >
  <font-face 
    font-family="SST"
    font-weight="700"
    font-stretch="normal"
    units-per-em="2048"
    panose-1="2 11 8 4 3 5 4 2 2 4"
    ascent="1577"
    descent="-471"
    x-height="1081"
    cap-height="1462"
    bbox="-516 -449 2384 1944"
    underline-thickness="102"
    underline-position="153"
    unicode-range="U+000D-FEFF"
  />
<missing-glyph horiz-adv-x="1048" 
d="M569 240h-114v137h114v-137zM555 479h-94l-4 35q0 115 26 166q28 54 95 121q63 60 82.5 94.5t19.5 75.5q0 73 -46 123.5t-110 50.5q-67 0 -112 -47.5t-56 -147.5l-102 17q13 141 87 210.5t189 69.5q110 0 182 -74t72 -194q0 -69 -27 -123t-102 -123q-77 -68 -88 -106
q-12 -41 -12 -148zM102 102h844v1264h-844v-1264zM0 1470h1049v-1470h-1049v1470z" />
    <glyph glyph-name="IJ" unicode="IJ" horiz-adv-x="1374" 
d="M162 0v1462h299v-1462h-299zM1186 1462v-1095q0 -199 -104.5 -295.5t-323.5 -96.5q-82 0 -168 11v239q62 -10 121 -10q91 0 133.5 42t42.5 142v1063h299z" />
    <glyph glyph-name="ij" unicode="ij" horiz-adv-x="1167" 
d="M143 1081h291v-1081h-291v1081zM143 1499h291v-252h-291v252zM1020 1081v-1130q0 -172 -85.5 -261t-289.5 -89q-82 0 -139 8v219q49 -8 92 -8q75 0 103 38t28 128v1095h291zM729 1499h291v-252h-291v252z" />
    <glyph glyph-name="napostrophe" unicode="&#x22;n" horiz-adv-x="1294" 
d="M143 1081h285v-145h4q40 81 130 125.5t198 44.5q183 0 291 -107t108 -286v-713h-291v604q0 142 -43 212.5t-157 70.5q-96 0 -165 -74t-69 -227v-586h-291v1081zM238 1573l-72 -336h-162l31 336h203z" />
    <glyph glyph-name="f_f" unicode="ff" horiz-adv-x="1380" 
d="M1442 1489l-19 -215q-49 12 -123 12q-82 0 -119.5 -36t-37.5 -117v-52h227v-219h-227v-862h-291v862h-375v-862h-291v862h-174v219h174v72q0 167 95 259.5t315 92.5q91 0 182 -16l-20 -215q-49 12 -123 12q-82 0 -120 -36t-38 -117v-52h375v72q0 167 95 259.5t315 92.5
q92 0 180 -16z" />
    <glyph glyph-name="fi" unicode="fi" horiz-adv-x="1275" 
d="M1067 1481l-14 -213q-169 18 -308 18q-145 0 -206.5 -38.5t-61.5 -137.5v-29h653v-1081h-290v862h-363v-862h-291v862h-174v219h174v49q0 375 541 375q180 0 340 -24z" />
    <glyph glyph-name="fl" unicode="fl" horiz-adv-x="1275" 
d="M1130 1473v-1473h-290v1280q-55 6 -125 6q-111 0 -174.5 -38t-63.5 -132v-35h228v-219h-228v-862h-291v862h-174v219h174v78q0 161 129 253.5t385 92.5q184 0 430 -32z" />
    <glyph glyph-name="f_f_i" unicode="ffi" horiz-adv-x="1939" 
d="M776 1487l-18 -213q-61 12 -123 12q-84 0 -122 -36.5t-38 -119.5v-49h375v49q0 375 543 375q182 0 338 -24l-13 -215q-147 20 -307 20q-144 0 -206 -39.5t-62 -138.5v-27h653v-1081h-293v862h-360v-862h-293v862h-375v-862h-289v862h-176v219h176v70q0 169 94.5 261.5
t315.5 92.5q81 0 180 -18z" />
    <glyph glyph-name="f_f_l" unicode="ffl" horiz-adv-x="1939" 
d="M776 1487l-18 -213q-61 12 -123 12q-84 0 -122 -36.5t-38 -119.5v-49h375v76q0 161 129 254.5t385 93.5q163 0 432 -35v-1470h-293v1278q-74 8 -125 8q-235 0 -235 -170v-35h225v-219h-225v-862h-293v862h-375v-862h-289v862h-176v219h176v70q0 169 94.5 261.5
t315.5 92.5q81 0 180 -18z" />
    <glyph glyph-name=".notdef" horiz-adv-x="1048" 
d="M569 240h-114v137h114v-137zM555 479h-94l-4 35q0 115 26 166q28 54 95 121q63 60 82.5 94.5t19.5 75.5q0 73 -46 123.5t-110 50.5q-67 0 -112 -47.5t-56 -147.5l-102 17q13 141 87 210.5t189 69.5q110 0 182 -74t72 -194q0 -69 -27 -123t-102 -123q-77 -68 -88 -106
q-12 -41 -12 -148zM102 102h844v1264h-844v-1264zM0 1470h1049v-1470h-1049v1470z" />
    <glyph glyph-name=".null" horiz-adv-x="0" 
 />
    <glyph glyph-name=".null" horiz-adv-x="0" 
 />
    <glyph glyph-name="nonmarkingreturn" horiz-adv-x="682" 
 />
    <glyph glyph-name="CR" unicode="&#xd;" horiz-adv-x="0" 
 />
    <glyph glyph-name="space" unicode=" " horiz-adv-x="532" 
 />
    <glyph glyph-name="exclam" unicode="!" horiz-adv-x="649" 
d="M494 1462l-39 -954h-258l-39 954h336zM164 0v309h313v-309h-313z" />
    <glyph glyph-name="quotedbl" unicode="&#x22;" horiz-adv-x="919" 
d="M180 1006l-49 501h277l-52 -501h-176zM563 1006l-51 501h274l-49 -501h-174z" />
    <glyph glyph-name="numbersign" unicode="#" horiz-adv-x="1239" 
d="M422 0h-225l53 385h-189v207h218l36 278h-217v207h246l53 385h228l-56 -385h215l54 385h225l-53 -385h166v-207h-195l-37 -278h191v-207h-220l-53 -385h-227l55 385h-213zM541 870l-37 -278h215l39 278h-217z" />
    <glyph glyph-name="dollar" unicode="$" horiz-adv-x="1165" 
d="M979 1397l-51 -223q-129 47 -266 53v-375q78 -31 131 -57.5t106 -64.5t84 -80.5t50.5 -101.5t19.5 -132q0 -172 -115 -276.5t-297 -127.5v-172h-143v166q-215 11 -389 74l53 229q175 -71 336 -78v400q-91 36 -157 73.5t-118.5 87t-79 113t-26.5 142.5q0 92 33 165.5
t90.5 121.5t128 76t151.5 38v156h142v-152q184 -6 317 -55zM780 403q0 59 -32.5 99t-106.5 76v-342q139 25 139 167zM379 1073q0 -59 31.5 -97t109.5 -73v322q-65 -12 -103 -52t-38 -100z" />
    <glyph glyph-name="percent" unicode="%" horiz-adv-x="1736" 
d="M1401 1462l-852 -1462h-209l858 1462h203zM731 1063q0 -187 -83 -293t-238 -106q-151 0 -235.5 106.5t-84.5 292.5q0 189 84.5 296t235.5 107q155 0 238 -106.5t83 -296.5zM514 1063q0 99 -26.5 158t-77.5 59q-49 0 -75 -59t-26 -158q0 -96 26 -155.5t75 -59.5
q51 0 77.5 59.5t26.5 155.5zM1649 399q0 -187 -84.5 -293t-239.5 -106q-151 0 -235 106.5t-84 292.5q0 189 84 296.5t235 107.5q155 0 239.5 -107.5t84.5 -296.5zM1427 399q0 99 -25.5 158t-76.5 59q-49 0 -74.5 -59t-25.5 -158q0 -98 25.5 -156.5t74.5 -58.5
q51 0 76.5 58.5t25.5 156.5z" />
    <glyph glyph-name="ampersand" unicode="&#x26;" horiz-adv-x="1495" 
d="M795 1130q0 65 -38.5 105.5t-103.5 40.5q-69 0 -109 -43t-40 -109q0 -107 110 -206q181 73 181 212zM803 332l-277 317q-159 -75 -159 -227q0 -93 58.5 -148t152.5 -55q144 0 225 113zM1151 342l295 -342h-361l-118 141q-138 -164 -402 -164q-100 0 -186.5 26.5t-152 77
t-103 130t-37.5 178.5q0 152 75.5 254t217.5 170q-146 146 -146 313q0 93 36.5 164.5t97.5 113t133.5 62.5t152.5 21q82 0 152.5 -19t128.5 -58t91.5 -107.5t33.5 -159.5q0 -249 -291 -385l199 -221q56 96 108 239h299q-44 -105 -107 -229.5t-116 -204.5z" />
    <glyph glyph-name="quotesingle" unicode="'" horiz-adv-x="538" 
d="M180 1006l-49 501h277l-52 -501h-176z" />
    <glyph glyph-name="parenleft" unicode="(" horiz-adv-x="681" 
d="M340 618q0 -271 71 -536.5t201 -480.5h-264q-122 200 -194 464t-72 553q0 288 71.5 549.5t194.5 464.5h264q-130 -214 -201 -480t-71 -534z" />
    <glyph glyph-name="parenright" unicode=")" horiz-adv-x="681" 
d="M342 612q0 269 -71.5 535.5t-200.5 482.5h262q122 -201 194 -464.5t72 -553.5q0 -289 -71.5 -550.5t-194.5 -462.5h-262q129 216 200.5 481t71.5 532z" />
    <glyph glyph-name="asterisk" unicode="*" horiz-adv-x="909" 
d="M549 1462v-241l223 84l68 -179l-228 -75l148 -213l-156 -105l-151 219l-150 -219l-153 105l147 213l-227 75l67 179l223 -84v241h189z" />
    <glyph glyph-name="plus" unicode="+" horiz-adv-x="1132" 
d="M459 141v400h-387v204h387v390h213v-390h387v-204h-387v-400h-213z" />
    <glyph glyph-name="comma" unicode="," horiz-adv-x="624" 
d="M111 -262l84 581h299l-183 -581h-200z" />
    <glyph glyph-name="hyphen" unicode="-" horiz-adv-x="811" 
d="M141 498v235h529v-235h-529z" />
    <glyph glyph-name="period" unicode="." horiz-adv-x="624" 
d="M156 0v322h315v-322h-315z" />
    <glyph glyph-name="slash" unicode="/" horiz-adv-x="1001" 
d="M47 0l662 1462h245l-661 -1462h-246z" />
    <glyph glyph-name="zero" unicode="0" horiz-adv-x="1292" 
d="M645 1487q271 0 413 -202t142 -562q0 -358 -141.5 -553t-413.5 -195q-273 0 -413 194.5t-140 553.5q0 238 60.5 407.5t185.5 263t307 93.5zM645 1247q-67 0 -117 -38t-80 -109t-44.5 -165t-14.5 -212q0 -508 256 -508q258 0 258 508q0 243 -63 383.5t-195 140.5z" />
    <glyph glyph-name="one" unicode="1" horiz-adv-x="913" 
d="M692 1462v-1462h-299v1180l-272 -162l-107 223l375 221h303z" />
    <glyph glyph-name="two" unicode="2" horiz-adv-x="1140" 
d="M1051 240v-240h-981v244q395 347 529 507t134 291q0 95 -64 150t-163 55q-155 0 -334 -112l-94 213q93 65 213 102t237 37q231 0 367.5 -114t136.5 -324q0 -65 -13.5 -124t-46 -120t-75 -119t-114 -131t-149.5 -144.5t-192 -170.5h609z" />
    <glyph glyph-name="three" unicode="3" horiz-adv-x="1142" 
d="M242 627v239h159q314 0 314 199q0 89 -63 135.5t-169 46.5q-159 0 -323 -80l-74 232q186 88 430 88q103 0 190.5 -22.5t157.5 -68t110 -121t40 -173.5q0 -120 -62 -208.5t-188 -129.5v-4q139 -31 212 -124.5t73 -217.5q0 -90 -28.5 -163.5t-79 -125t-120.5 -86.5
t-152 -51.5t-175 -16.5q-116 0 -235 25.5t-212 71.5l72 227q185 -84 360 -84q124 0 198.5 53.5t74.5 157.5q0 201 -355 201h-155z" />
    <glyph glyph-name="four" unicode="4" horiz-adv-x="1224" 
d="M1010 1462v-917h159v-240h-159v-305h-299v305h-676v289l559 868h416zM711 545v649h-4l-400 -649h404z" />
    <glyph glyph-name="five" unicode="5" horiz-adv-x="1148" 
d="M770 451q0 67 -30.5 115.5t-84 74t-112.5 36.5t-129 11q-115 0 -275 -20l43 794h819v-239h-555l-22 -310q64 7 125 7q143 0 259 -51t187.5 -155.5t71.5 -246.5q0 -120 -44 -215.5t-120.5 -155t-176 -90.5t-214.5 -31q-245 0 -449 91l72 227q173 -78 346 -78
q60 0 110 12.5t91 39t64.5 73.5t23.5 111z" />
    <glyph glyph-name="six" unicode="6" horiz-adv-x="1234" 
d="M758 1247q-88 0 -156 -30t-112 -84.5t-69.5 -125t-35.5 -157.5h4q54 59 136.5 92t166.5 33q226 0 351.5 -135t125.5 -353q0 -223 -148.5 -367.5t-387.5 -144.5q-91 0 -167.5 22t-132 59.5t-99 91t-71 113.5t-45.5 130t-25 137t-7 138q0 141 24.5 263.5t76 225.5
t127 176.5t183.5 114.5t240 41q151 0 289 -43l-47 -238q-109 41 -221 41zM387 518q0 -56 15 -108.5t44.5 -97.5t79.5 -72t113 -27q107 0 173.5 75.5t66.5 198.5q0 110 -61.5 185.5t-174.5 75.5q-115 0 -185.5 -69.5t-70.5 -160.5z" />
    <glyph glyph-name="seven" unicode="7" horiz-adv-x="1071" 
d="M61 1223v239h969v-239q-196 -290 -308.5 -609t-135.5 -614h-305q25 290 143 628.5t287 594.5h-650z" />
    <glyph glyph-name="eight" unicode="8" horiz-adv-x="1247" 
d="M623 637q-59 0 -114.5 -22.5t-96.5 -74t-41 -122.5q0 -100 70.5 -154.5t181.5 -54.5q112 0 183 55t71 154q0 71 -41 122.5t-97 74t-116 22.5zM623 1487q136 0 249 -43.5t184.5 -134.5t71.5 -215q0 -245 -219 -326v-4q267 -106 267 -373q0 -132 -75 -227.5t-198.5 -142
t-279.5 -46.5t-278.5 46.5t-196.5 142t-74 227.5q0 144 72.5 232.5t187.5 130.5v4q-217 97 -217 336q0 94 41.5 170t112 124t161 73.5t191.5 25.5zM623 864q93 0 158 52.5t65 150.5q0 89 -61 139.5t-162 50.5q-97 0 -159.5 -51t-62.5 -139q0 -99 64.5 -151t157.5 -52z" />
    <glyph glyph-name="nine" unicode="9" horiz-adv-x="1234" 
d="M475 213q89 0 158 30t113 85t69 125.5t33 156.5h-4q-51 -63 -133 -94t-170 -31q-226 0 -352 135t-126 353q0 224 149 369t388 145q91 0 167.5 -22t132 -59.5t99 -91t71 -113.5t45.5 -130.5t25 -137.5t7 -138q0 -177 -39.5 -324t-117.5 -259t-205 -174.5t-293 -62.5
q-169 0 -310 41l45 238q118 -41 248 -41zM846 942q0 56 -15 108.5t-44.5 97.5t-79.5 72t-113 27q-107 0 -173.5 -75.5t-66.5 -198.5q0 -110 62 -185t176 -75t184 69.5t70 159.5z" />
    <glyph glyph-name="colon" unicode=":" horiz-adv-x="739" 
d="M213 0v322h315v-322h-315zM213 760v321h315v-321h-315z" />
    <glyph glyph-name="semicolon" unicode=";" horiz-adv-x="739" 
d="M213 760v321h315v-321h-315zM145 -262l86 581h297l-182 -581h-201z" />
    <glyph glyph-name="less" unicode="&#x3c;" horiz-adv-x="1132" 
d="M1061 887l-776 -250v-4l776 -258v-215l-989 325v291l989 326v-215z" />
    <glyph glyph-name="equal" unicode="=" horiz-adv-x="1132" 
d="M72 748v204h987v-204h-987zM72 334v205h987v-205h-987z" />
    <glyph glyph-name="greater" unicode="&#x3e;" horiz-adv-x="1132" 
d="M72 375l774 252v4l-774 256v215l989 -326v-291l-989 -325v215z" />
    <glyph glyph-name="question" unicode="?" horiz-adv-x="1017" 
d="M485 1247q-147 0 -309 -90l-84 217q183 113 420 113q96 0 177.5 -21t149.5 -66t107 -123.5t39 -184.5q0 -117 -43 -201.5t-133 -149.5l-76 -55q-79 -58 -106 -98t-25 -99v-32h-276v53q0 101 33.5 166.5t115.5 130.5q10 8 38.5 29.5t38.5 29.5t32.5 27t31.5 28.5t25 27
t22.5 30.5t14.5 30.5t11 35.5t3 38q0 87 -57 125.5t-150 38.5zM309 0v307h320v-307h-320z" />
    <glyph glyph-name="at" unicode="@" horiz-adv-x="1964" 
d="M1024 866q-69 0 -122 -63t-78 -150.5t-25 -177.5q0 -36 6 -70t20 -67t41 -52.5t64 -19.5q59 0 105 40t71.5 102.5t38 126.5t12.5 122q0 209 -133 209zM1499 -88l49 -193q-232 -98 -522 -98q-286 0 -497 115t-321 321t-110 478q0 209 71.5 387.5t197 303.5t301.5 196
t379 71q141 0 263.5 -29t225.5 -91.5t176.5 -153t114.5 -220.5t41 -288q0 -300 -139 -480t-355 -180q-102 0 -156.5 48t-56.5 126h-4q-36 -77 -109.5 -125.5t-162.5 -48.5q-87 0 -153.5 34.5t-106 95t-59 135.5t-19.5 163q0 115 32.5 221t90.5 188.5t146.5 131.5t193.5 49
q81 0 135 -39.5t76 -97.5h4l18 86h221l-90 -477q-28 -136 -28 -197q0 -92 73 -92q63 0 115 64t80 164t28 210q0 290 -157.5 444t-440.5 154q-211 0 -371.5 -98t-245.5 -269.5t-85 -390.5q0 -330 183.5 -515t510.5 -185q257 0 463 82z" />
    <glyph glyph-name="A" unicode="A" horiz-adv-x="1468" 
d="M449 356l-127 -356h-318l526 1462h410l524 -1462h-321l-131 356h-563zM731 1229l-213 -631h424z" />
    <glyph glyph-name="B" unicode="B" horiz-adv-x="1349" 
d="M160 0v1462h610q205 0 327 -91t122 -277q0 -244 -236 -332v-4q272 -76 272 -350q0 -83 -28.5 -155.5t-84.5 -129.5t-148.5 -90t-211.5 -33h-622zM459 1223v-357h211q123 0 186.5 44t63.5 141q0 172 -234 172h-227zM459 627v-387h241q125 0 190.5 42t65.5 150t-76.5 151.5
t-215.5 43.5h-205z" />
    <glyph glyph-name="C" unicode="C" horiz-adv-x="1273" 
d="M1192 1430l-55 -234q-128 51 -263 51q-114 0 -204.5 -41.5t-147.5 -113.5t-86.5 -165.5t-29.5 -201.5q0 -102 30 -193t87 -162t147 -113t202 -42q154 0 277 55l51 -231q-155 -64 -362 -64q-164 0 -301.5 56t-231.5 155t-146.5 238t-52.5 303q0 165 51 304.5t144.5 240.5
t234 158t312.5 57q207 0 344 -57z" />
    <glyph glyph-name="D" unicode="D" horiz-adv-x="1501" 
d="M160 0v1462h497q357 0 547.5 -191.5t190.5 -533.5q0 -344 -191.5 -540.5t-546.5 -196.5h-497zM459 1223v-983h155q243 0 362.5 131t119.5 362q0 229 -120 359.5t-362 130.5h-155z" />
    <glyph glyph-name="E" unicode="E" horiz-adv-x="1144" 
d="M160 0v1462h880v-239h-581v-357h534v-239h-534v-387h600v-240h-899z" />
    <glyph glyph-name="F" unicode="F" horiz-adv-x="1099" 
d="M160 0v1462h876v-239h-577v-357h528v-239h-528v-627h-299z" />
    <glyph glyph-name="G" unicode="G" horiz-adv-x="1505" 
d="M1317 1403l-82 -242q-63 37 -155.5 61.5t-178.5 24.5q-226 0 -360.5 -140t-134.5 -386q0 -141 54.5 -254.5t164.5 -182.5t258 -69q110 0 178 29v364h-248v240h545v-770q-209 -103 -498 -103q-226 0 -398 95.5t-264 266t-92 390.5q0 166 52.5 304.5t151 240t249.5 158.5
t340 57q233 0 418 -84z" />
    <glyph glyph-name="H" unicode="H" horiz-adv-x="1476" 
d="M160 0v1462h299v-596h561v596h299v-1462h-299v627h-561v-627h-299z" />
    <glyph glyph-name="I" unicode="I" horiz-adv-x="618" 
d="M160 0v1462h299v-1462h-299z" />
    <glyph glyph-name="J" unicode="J" horiz-adv-x="737" 
d="M596 1462v-1095q0 -199 -104.5 -295.5t-323.5 -96.5q-82 0 -168 11v239q62 -10 121 -10q91 0 133.5 42t42.5 142v1063h299z" />
    <glyph glyph-name="K" unicode="K" horiz-adv-x="1331" 
d="M944 1462h356l-520 -706l547 -756h-369l-495 727h-4v-727h-299v1462h299v-686h4z" />
    <glyph glyph-name="L" unicode="L" horiz-adv-x="1067" 
d="M160 0v1462h299v-1222h581v-240h-880z" />
    <glyph glyph-name="M" unicode="M" horiz-adv-x="1894" 
d="M659 1462l283 -1177h6l283 1177h504v-1462h-283v1212h-4l-322 -1212h-372l-316 1212h-4v-1212h-274v1462h499z" />
    <glyph glyph-name="N" unicode="N" horiz-adv-x="1509" 
d="M621 1462l444 -1167h4v1167h281v-1462h-447l-461 1184h-4v-1184h-278v1462h461z" />
    <glyph glyph-name="O" unicode="O" horiz-adv-x="1591" 
d="M1481 729q0 -165 -45.5 -303t-131 -238.5t-216 -156.5t-293.5 -56q-162 0 -292.5 56t-216 156.5t-131.5 238.5t-46 303q0 166 45.5 304.5t130.5 239.5t216 157.5t294 56.5q218 0 374.5 -98.5t234 -268t77.5 -391.5zM1182 729q0 110 -23.5 202.5t-70 164t-121.5 111.5
t-172 40t-172 -40t-121.5 -111.5t-70 -164t-23.5 -202.5q0 -109 24 -201t70.5 -162.5t122 -110.5t172.5 -40q98 0 173 40t120.5 110.5t68.5 162.5t23 201z" />
    <glyph glyph-name="P" unicode="P" horiz-adv-x="1304" 
d="M160 0v1462h549q89 0 165 -14t144.5 -47t116 -84t75 -129t27.5 -178q0 -101 -27.5 -182t-75.5 -135t-115 -90t-143.5 -52t-164.5 -16h-252v-535h-299zM459 1223v-447h219q260 0 260 223q0 122 -71 173t-203 51h-205z" />
    <glyph glyph-name="Q" unicode="Q" horiz-adv-x="1591" 
d="M1481 729q0 -227 -81 -396.5t-239 -260.5l223 -312h-329l-154 224q-79 -9 -106 -9q-162 0 -292.5 56t-216 156.5t-131.5 238.5t-46 303q0 166 45.5 304.5t130.5 239.5t216 157.5t294 56.5q218 0 374.5 -98.5t234 -268t77.5 -391.5zM1184 729q0 110 -24 202.5t-70.5 164
t-122 111.5t-172.5 40t-172 -40t-121.5 -111.5t-70 -164t-23.5 -202.5q0 -109 24 -201t70.5 -162.5t122 -110.5t172.5 -40q98 0 173 40t121.5 110.5t69.5 162.5t23 201z" />
    <glyph glyph-name="R" unicode="R" horiz-adv-x="1337" 
d="M160 0v1462h567q82 0 154 -12.5t138 -41.5t113 -73.5t75 -113.5t28 -156q0 -128 -64.5 -213.5t-183.5 -126.5v-4q70 -25 108 -79t76 -185q20 -69 42.5 -144.5t50 -167t43.5 -145.5h-322q-9 34 -46.5 182t-51.5 201q-19 65 -35 100t-47.5 62t-79.5 36t-127 9h-139v-590
h-299zM459 1223v-394h196q134 0 207.5 45t73.5 152q0 197 -272 197h-205z" />
    <glyph glyph-name="S" unicode="S" horiz-adv-x="1163" 
d="M993 1434l-51 -240q-146 53 -313 53q-65 0 -114.5 -12.5t-84.5 -49t-35 -93.5q0 -73 61.5 -121.5t215.5 -110.5q81 -33 136 -61t110 -68t87 -84t52 -105t20 -136q0 -106 -43.5 -190t-119 -136t-171.5 -78.5t-206 -26.5q-238 0 -445 74l53 244q193 -78 381 -78
q123 0 187.5 43t64.5 127q0 78 -64 129t-222 113q-94 38 -161.5 77t-123 91t-83.5 119t-28 149q0 88 30 160t79.5 120.5t116.5 81.5t139 47.5t149 14.5q222 0 383 -53z" />
    <glyph glyph-name="T" unicode="T" horiz-adv-x="1112" 
d="M410 0v1223h-390v239h1070v-239h-381v-1223h-299z" />
    <glyph glyph-name="U" unicode="U" horiz-adv-x="1454" 
d="M1311 1462v-1030q0 -145 -77 -249.5t-208 -156t-301 -51.5q-168 0 -298 51.5t-207 156t-77 249.5v1030h299v-993q0 -129 75.5 -191.5t205.5 -62.5q129 0 209 64t80 190v993h299z" />
    <glyph glyph-name="V" unicode="V" horiz-adv-x="1390" 
d="M508 0l-502 1462h328l360 -1175h4l363 1175h323l-503 -1462h-373z" />
    <glyph glyph-name="W" unicode="W" horiz-adv-x="2007" 
d="M1208 0l-200 1190h-4l-205 -1190h-420l-318 1462h326l209 -1196h4l188 1196h441l182 -1196h4l215 1196h318l-318 -1462h-422z" />
    <glyph glyph-name="X" unicode="X" horiz-adv-x="1343" 
d="M965 1462h342l-430 -702l462 -760h-352l-313 549l-320 -549h-352l467 760l-428 702h348l285 -501z" />
    <glyph glyph-name="Y" unicode="Y" horiz-adv-x="1378" 
d="M541 0v557l-539 905h350l340 -622l342 622h342l-536 -905v-557h-299z" />
    <glyph glyph-name="Z" unicode="Z" horiz-adv-x="1234" 
d="M76 240l706 983h-649v239h1006v-239l-707 -983h721v-240h-1077v240z" />
    <glyph glyph-name="bracketleft" unicode="[" horiz-adv-x="681" 
d="M575 1632v-200h-208v-1629h208v-202h-452v2031h452z" />
    <glyph glyph-name="backslash" unicode="\" horiz-adv-x="1001" 
d="M295 1462l661 -1462h-249l-662 1462h250z" />
    <glyph glyph-name="bracketright" unicode="]" horiz-adv-x="681" 
d="M109 -399v200h223v1629h-223v202h462v-2031h-462z" />
    <glyph glyph-name="asciicircum" unicode="^" horiz-adv-x="1132" 
d="M561 1229l-209 -617h-235l313 822h270l312 -822h-236l-211 617h-4z" />
    <glyph glyph-name="underscore" unicode="_" horiz-adv-x="999" 
d="M0 -164h999v-158h-999v158z" />
    <glyph glyph-name="grave" unicode="`" horiz-adv-x="944" 
d="M463 1237l-273 336h306l186 -336h-219z" />
    <glyph glyph-name="a" unicode="a" horiz-adv-x="1193" 
d="M764 680v27q0 180 -240 180q-140 0 -278 -53l-53 208q76 28 173.5 46t178.5 18q510 0 510 -414v-446q0 -158 16 -246h-258q-18 63 -22 133h-5q-42 -73 -124.5 -115.5t-188.5 -42.5q-59 0 -113 10.5t-105.5 36t-89 63t-60.5 96t-23 130.5q0 67 19 120.5t51 91.5t82 66
t105.5 45.5t127.5 28t141.5 14t155.5 3.5zM764 500h-39q-81 0 -141.5 -7.5t-112.5 -26t-79 -54.5t-27 -88q0 -70 42.5 -109t116.5 -39q119 0 179.5 73t60.5 175v76z" />
    <glyph glyph-name="b" unicode="b" horiz-adv-x="1314" 
d="M428 119v-119h-285v1505h291v-563h4q58 81 143.5 122.5t182.5 41.5q144 0 249 -76t156.5 -202.5t51.5 -286.5t-53.5 -287t-159.5 -203t-250 -76q-99 0 -184.5 35t-141.5 109h-4zM930 541q0 156 -61.5 251t-182.5 95q-125 0 -197.5 -96t-72.5 -250t72.5 -251t197.5 -97
q121 0 182.5 96t61.5 252z" />
    <glyph glyph-name="c" unicode="c" horiz-adv-x="980" 
d="M922 1071l-50 -217q-79 33 -174 33q-149 0 -231 -98t-82 -250q0 -151 81.5 -247.5t238.5 -96.5q108 0 176 30l45 -213q-107 -37 -246 -37q-187 0 -321.5 74.5t-199.5 200.5t-65 289q0 251 157 409t427 158q143 0 244 -35z" />
    <glyph glyph-name="d" unicode="d" horiz-adv-x="1316" 
d="M883 961v544h291v-1505h-285v137h-4q-57 -81 -146.5 -121.5t-187.5 -40.5q-144 0 -249 76.5t-156.5 203t-51.5 286.5t53.5 287t159.5 202.5t250 75.5q213 0 322 -145h4zM385 541q0 -156 62 -252t184 -96q124 0 196 97.5t72 252.5q0 152 -72 248t-196 96q-122 0 -184 -95
t-62 -251z" />
    <glyph glyph-name="e" unicode="e" horiz-adv-x="1208" 
d="M1122 455h-741q11 -131 109 -196.5t247 -65.5q148 0 258 38l33 -213q-153 -43 -326 -43q-286 0 -448 154.5t-162 409.5q0 251 147 409t396 158q233 0 360 -143.5t127 -391.5v-116zM631 909q-102 0 -170 -69.5t-80 -182.5h469q2 114 -58 183t-161 69z" />
    <glyph glyph-name="f" unicode="f" horiz-adv-x="716" 
d="M778 1489l-20 -215q-49 12 -123 12q-83 0 -120.5 -35.5t-37.5 -117.5v-52h228v-219h-228v-862h-291v862h-174v219h174v72q0 167 95 259.5t315 92.5q91 0 182 -16z" />
    <glyph glyph-name="g" unicode="g" horiz-adv-x="1312" 
d="M383 569q0 -145 62 -234t182 -89q122 0 195 92t73 231q0 138 -73 228t-195 90q-120 0 -182 -87.5t-62 -230.5zM885 94v76h-4q-109 -141 -314 -141q-145 0 -254 71.5t-165 193.5t-56 275q0 154 57 275t166 191.5t252 70.5q203 0 314 -143h4v118h284v-981
q0 -112 -34 -199.5t-90 -143t-134 -91.5t-159.5 -50.5t-173.5 -14.5q-190 0 -340 43l34 215q124 -39 273 -39q173 0 256.5 67t83.5 207z" />
    <glyph glyph-name="h" unicode="h" horiz-adv-x="1294" 
d="M143 1505h291v-569h4q42 81 128.5 125.5t193.5 44.5q183 0 291 -107t108 -286v-713h-291v604q0 142 -43 212.5t-157 70.5q-96 0 -165 -74t-69 -227v-586h-291v1505z" />
    <glyph glyph-name="i" unicode="i" horiz-adv-x="577" 
d="M143 1081h291v-1081h-291v1081zM143 1499h291v-252h-291v252z" />
    <glyph glyph-name="j" unicode="j" horiz-adv-x="577" 
d="M434 1081v-1130q0 -172 -85.5 -261t-289.5 -89q-82 0 -139 8v219q49 -8 92 -8q75 0 103 38t28 128v1095h291zM143 1499h291v-252h-291v252z" />
    <glyph glyph-name="k" unicode="k" horiz-adv-x="1173" 
d="M797 1081h346l-400 -483l424 -598h-350l-379 567h-4v-567h-291v1505h291v-891h4z" />
    <glyph glyph-name="l" unicode="l" horiz-adv-x="577" 
d="M143 1505h291v-1505h-291v1505z" />
    <glyph glyph-name="m" unicode="m" horiz-adv-x="1937" 
d="M143 1081h285v-147h4q39 81 123 126.5t188 45.5q241 0 318 -176h4q51 87 140.5 131.5t195.5 44.5q200 0 300.5 -105t100.5 -288v-713h-291v604q0 57 -3.5 96.5t-14.5 77.5t-30.5 60t-53 35.5t-80.5 13.5q-85 0 -146 -57t-61 -175v-655h-291v608q0 72 -6.5 118t-25.5 85.5
t-56 57.5t-96 18q-92 0 -152.5 -72.5t-60.5 -224.5v-590h-291v1081z" />
    <glyph glyph-name="n" unicode="n" horiz-adv-x="1294" 
d="M143 1081h285v-145h4q40 81 130 125.5t198 44.5q183 0 291 -107t108 -286v-713h-291v604q0 142 -43 212.5t-157 70.5q-96 0 -165 -74t-69 -227v-586h-291v1081z" />
    <glyph glyph-name="o" unicode="o" horiz-adv-x="1290" 
d="M1196 543q0 -262 -150 -415t-401 -153q-253 0 -402 152.5t-149 415.5q0 262 148.5 412.5t402.5 150.5t402.5 -150.5t148.5 -412.5zM905 543q0 158 -66 251t-194 93t-194 -93t-66 -251q0 -162 66 -255t194 -93q129 0 194.5 92.5t65.5 255.5z" />
    <glyph glyph-name="p" unicode="p" horiz-adv-x="1314" 
d="M434 119v-518h-291v1480h285v-139h4q58 81 146.5 122.5t185.5 41.5q144 0 249 -76t156.5 -202.5t51.5 -286.5t-53.5 -287t-159.5 -203t-250 -76q-212 0 -320 144h-4zM930 541q0 156 -61.5 251t-182.5 95q-125 0 -197.5 -96t-72.5 -250t72.5 -251t197.5 -97
q121 0 182.5 96t61.5 252z" />
    <glyph glyph-name="q" unicode="q" horiz-adv-x="1314" 
d="M889 961v120h285v-1480h-291v536h-4q-58 -81 -143.5 -121.5t-182.5 -40.5q-145 0 -250.5 75.5t-157 201t-51.5 285.5q0 161 53.5 289t160.5 204t251 76q217 0 326 -145h4zM385 541q0 -156 62 -252t184 -96q124 0 196 97.5t72 252.5q0 152 -72 248t-196 96
q-122 0 -184 -95t-62 -251z" />
    <glyph glyph-name="r" unicode="r" horiz-adv-x="813" 
d="M795 1102l-15 -223q-36 8 -84 8q-118 0 -190 -87t-72 -278v-522h-291v1081h285v-141h4q78 166 283 166q30 0 80 -4z" />
    <glyph glyph-name="s" unicode="s" horiz-adv-x="1007" 
d="M870 1044l-63 -215q-143 58 -295 58q-143 0 -143 -88q0 -45 42 -75.5t158 -66.5q184 -58 272.5 -137.5t88.5 -214.5q0 -71 -26.5 -128.5t-69.5 -94.5t-102 -61.5t-121.5 -35t-129.5 -10.5q-101 0 -211 20.5t-194 55.5l57 221q85 -36 181 -56.5t165 -20.5q87 0 130.5 22
t43.5 74q0 46 -48.5 77t-178.5 72q-174 57 -253 135.5t-79 194.5q0 85 36 151.5t97 105.5t134.5 59t154.5 20q194 0 354 -62z" />
    <glyph glyph-name="t" unicode="t" horiz-adv-x="751" 
d="M20 862v219h166v287h291v-287h225v-219h-225v-483q0 -109 23 -139.5t100 -30.5q38 0 96 8v-217q-92 -10 -188 -10q-100 0 -164 19t-98.5 61.5t-47 96t-12.5 136.5v559h-166z" />
    <glyph glyph-name="u" unicode="u" horiz-adv-x="1294" 
d="M1151 0h-285v145h-4q-40 -81 -128.5 -125.5t-196.5 -44.5q-183 0 -292.5 107.5t-109.5 286.5v712h291v-604q0 -140 45 -211t158 -71q45 0 84.5 16.5t73 50.5t53.5 94t20 140v585h291v-1081z" />
    <glyph glyph-name="v" unicode="v" horiz-adv-x="1155" 
d="M322 1081l256 -819h4l258 819h307l-402 -1081h-339l-398 1081h314z" />
    <glyph glyph-name="w" unicode="w" horiz-adv-x="1769" 
d="M1069 1081l184 -819h4l170 819h297l-284 -1081h-373l-182 831h-4l-183 -831h-370l-283 1081h299l176 -819h4l174 819h371z" />
    <glyph glyph-name="x" unicode="x" horiz-adv-x="1138" 
d="M780 1081h320l-332 -520l358 -561h-329l-226 381l-231 -381h-332l363 561l-334 520h328l206 -350z" />
    <glyph glyph-name="y" unicode="y" horiz-adv-x="1159" 
d="M322 1081l262 -725h4l260 725h305l-586 -1480h-309l176 424l-426 1056h314z" />
    <glyph glyph-name="z" unicode="z" horiz-adv-x="1046" 
d="M74 215l532 647h-489v219h839v-217l-526 -645h549v-219h-905v215z" />
    <glyph glyph-name="braceleft" unicode="{" horiz-adv-x="681" 
d="M18 489v254q87 4 115.5 57t28.5 179v319q0 89 26 155t72.5 104t105 56.5t130.5 18.5h98v-215h-55q-65 0 -94 -43t-29 -141v-285q0 -154 -40.5 -226t-148.5 -104v-4q108 -35 148.5 -105.5t40.5 -223.5v-283q0 -105 28.5 -145.5t94.5 -40.5h55v-215h-98q-150 0 -242 81.5
t-92 256.5v315q0 126 -28.5 178.5t-115.5 56.5z" />
    <glyph glyph-name="bar" unicode="|" horiz-adv-x="952" 
d="M369 1505h215v-1904h-215v1904z" />
    <glyph glyph-name="braceright" unicode="}" horiz-adv-x="681" 
d="M664 743v-254q-87 -4 -116.5 -57t-29.5 -178v-320q0 -89 -25.5 -154.5t-72 -104t-104.5 -56.5t-130 -18h-100v215h55q66 0 94.5 43t28.5 141v285q0 153 41.5 224.5t149.5 102.5v4q-109 37 -150 108t-41 222v285q0 105 -27.5 144.5t-95.5 39.5h-55v217h100q72 0 130 -18.5
t104.5 -57t72 -105.5t25.5 -157v-315q0 -126 29.5 -179t116.5 -57z" />
    <glyph glyph-name="asciitilde" unicode="~" horiz-adv-x="1132" 
d="M815 688q148 5 236 107v-228q-102 -94 -265 -94q-66 0 -130 21t-107 46.5t-102 46.5t-115 21q-155 0 -250 -106v227q98 94 266 94q67 0 132.5 -21t109 -46.5t104.5 -46.5t121 -21z" />
    <glyph glyph-name="uni00A0" unicode="&#xa0;" horiz-adv-x="532" 
 />
    <glyph glyph-name="exclamdown" unicode="&#xa1;" horiz-adv-x="649" 
d="M158 -381l39 954h258l39 -954h-336zM485 1081v-307h-313v307h313z" />
    <glyph glyph-name="cent" unicode="&#xa2;" horiz-adv-x="978" 
d="M909 1069l-47 -219q-76 29 -141 35v-686q77 3 149 37l45 -222q-94 -31 -194 -37v-114h-158v121q-222 30 -343.5 180.5t-121.5 374.5q0 226 123.5 379t341.5 182v129h158v-125q106 -6 188 -35zM389 539q0 -58 9.5 -109.5t29 -97t54 -78t81.5 -45.5v659
q-88 -28 -131 -118.5t-43 -210.5z" />
    <glyph glyph-name="sterling" unicode="&#xa3;" horiz-adv-x="1216" 
d="M1077 1434l-71 -236q-75 37 -187 37q-115 0 -171 -64.5t-56 -175.5v-137h338v-205h-338v-413h528v-240h-1022v240h199v413h-184v205h184v148q0 220 131.5 347.5t384.5 127.5q154 0 264 -47z" />
    <glyph glyph-name="currency" unicode="&#xa4;" horiz-adv-x="1136" 
d="M66 340l145 145q-41 75 -41 181q0 102 41 174l-145 147l180 180l145 -147q77 41 178 41q96 0 176 -41l146 147l178 -180l-145 -143q43 -88 43 -178q0 -101 -41 -181l143 -143l-180 -178q-11 11 -64 62.5t-80 80.5q-75 -41 -176 -41q-100 0 -180 41l-145 -143zM569 481
q77 0 128 53t51 132q0 75 -51.5 127.5t-127.5 52.5q-77 0 -128.5 -52t-51.5 -128q0 -79 51 -132t129 -53z" />
    <glyph glyph-name="yen" unicode="&#xa5;" horiz-adv-x="1327" 
d="M180 479h338v119h-338v180h242l-391 684h317l318 -614l323 614h307l-393 -684h240v-180h-336v-119h336v-180h-336v-299h-289v299h-338v180z" />
    <glyph glyph-name="brokenbar" unicode="&#xa6;" horiz-adv-x="952" 
d="M369 1505h215v-753h-215v753zM369 354h215v-753h-215v753z" />
    <glyph glyph-name="section" unicode="&#xa7;" horiz-adv-x="1095" 
d="M111 -227l79 217q80 -40 176 -65t164 -25q90 0 139.5 28.5t49.5 98.5q0 58 -52.5 97.5t-220.5 113.5q-105 45 -168 79t-110 76.5t-65.5 91t-18.5 115.5q0 97 52 167t143 110q-148 85 -148 253q0 81 26 144t69.5 102.5t104.5 65t125 35.5t138 10q188 0 344 -62l-72 -219
q-54 24 -134 42t-140 18q-186 0 -186 -123q0 -60 54.5 -100t215.5 -107q186 -78 265 -158t79 -207q0 -176 -168 -260q80 -53 117 -115t37 -149q0 -101 -38.5 -175t-106.5 -115.5t-149 -61t-177 -19.5q-101 0 -218.5 26.5t-205.5 70.5zM590 711l-127 53q-50 -12 -83.5 -44
t-33.5 -85q0 -59 41.5 -93t151.5 -81l120 -51q48 12 77.5 46t29.5 81q0 61 -43.5 99.5t-132.5 74.5z" />
    <glyph glyph-name="dieresis" unicode="&#xa8;" horiz-adv-x="944" 
d="M387 1522v-242h-254v242h254zM809 1522v-242h-256v242h256z" />
    <glyph glyph-name="copyright" unicode="&#xa9;" horiz-adv-x="1630" 
d="M188 727q0 -130 46.5 -247t128 -203t200 -136.5t256.5 -50.5q180 0 324 86t222.5 231.5t78.5 319.5q0 176 -78.5 323.5t-222.5 235.5t-324 88q-183 0 -328.5 -88t-224 -235t-78.5 -324zM68 727q0 156 56 295t154 240t238.5 160t302.5 59q160 0 299.5 -59t236.5 -160
t152.5 -240t55.5 -295q0 -154 -55.5 -291t-152.5 -237t-236.5 -158.5t-299.5 -58.5q-162 0 -302.5 58.5t-238.5 158.5t-154 237t-56 291zM1069 1163l-33 -166q-73 33 -162 33q-67 0 -117 -24.5t-78.5 -68t-42 -96t-13.5 -114.5q0 -123 63.5 -205t190.5 -82q82 0 163 33
l31 -162q-86 -37 -219 -37q-201 0 -317.5 126t-116.5 329q0 205 114.5 335t321.5 130q138 0 215 -31z" />
    <glyph glyph-name="ordfeminine" unicode="&#xaa;" horiz-adv-x="724" 
d="M453 1174v14q0 96 -136 96q-86 0 -174 -35l-34 140q96 41 223 41q164 0 238.5 -65t74.5 -189v-267q0 -100 8 -149h-172q-10 35 -10 69h-4q-56 -86 -186 -86q-46 0 -86 10.5t-75.5 33t-56 64t-20.5 97.5t22 97.5t57.5 65.5t90.5 38.5t111 19.5t129 5zM451 1053h-17
q-94 0 -146 -21t-52 -76q0 -77 88 -77q65 0 96 41t31 98v35z" />
    <glyph glyph-name="guillemotleft" unicode="&#xab;" horiz-adv-x="1157" 
d="M612 1030l-245 -420l245 -422h-252l-243 416v10l252 416h243zM1040 1030l-245 -420l245 -422h-252l-243 416v10l250 416h245z" />
    <glyph glyph-name="logicalnot" unicode="&#xac;" horiz-adv-x="1132" 
d="M57 719v196h985v-632h-206v436h-779z" />
    <glyph glyph-name="uni00AD" unicode="&#xad;" horiz-adv-x="811" 
d="M141 498v235h529v-235h-529z" />
    <glyph glyph-name="registered" unicode="&#xae;" horiz-adv-x="1019" 
d="M76 1075q0 183 122.5 306.5t313.5 123.5t311.5 -123.5t120.5 -306.5q0 -184 -120.5 -307t-311.5 -123t-313.5 123t-122.5 307zM145 1075q0 -156 101.5 -261t265.5 -105q161 0 263 105.5t102 260.5q0 154 -102 259.5t-263 105.5q-164 0 -265.5 -105.5t-101.5 -259.5z
M322 827v498h223q82 0 129 -30t47 -107q0 -93 -96 -119v-2q29 -10 45.5 -28t29.5 -62q6 -20 50 -150h-132q-6 21 -17 65t-13 54q-12 43 -32 56.5t-73 13.5h-43v-189h-118zM440 1239v-135h68q98 0 98 70q0 65 -92 65h-74z" />
    <glyph glyph-name="macron" unicode="&#xaf;" horiz-adv-x="944" 
d="M766 1493v-186h-582v186h582z" />
    <glyph glyph-name="degree" unicode="&#xb0;" horiz-adv-x="753" 
d="M381 1487q130 0 219.5 -93t89.5 -223q0 -131 -90 -223t-223 -92q-134 0 -225 92.5t-91 225.5q0 131 92 222t228 91zM375 1313q-58 0 -97.5 -42t-39.5 -100q0 -59 39.5 -100t97.5 -41q61 0 100 41t39 100q0 60 -39.5 101t-99.5 41z" />
    <glyph glyph-name="plusminus" unicode="&#xb1;" horiz-adv-x="1132" 
d="M72 143v203h987v-203h-987zM459 440v279h-387v205h387v284h213v-284h387v-205h-387v-279h-213z" />
    <glyph glyph-name="twosuperior" unicode="&#xb2;" 
d="M694 1040v-163h-602v167q222 188 302.5 281t80.5 166q0 52 -33 81.5t-88 29.5q-92 0 -200 -62l-62 148q58 39 134 60t149 21q141 0 222 -71t81 -199q0 -59 -18.5 -110t-64 -107.5t-100.5 -109t-149 -132.5h348z" />
    <glyph glyph-name="threesuperior" unicode="&#xb3;" 
d="M205 1243v162h108q164 0 164 102q0 48 -34.5 72.5t-90.5 24.5q-94 0 -192 -45l-47 157q112 53 264 53q64 0 117.5 -13t96.5 -40t67 -73t24 -107q0 -149 -139 -197v-4q79 -22 119 -79t40 -128q0 -69 -27 -121.5t-74.5 -83.5t-108 -46t-132.5 -15q-151 0 -276 58l51 157
q110 -49 213 -49q67 0 107.5 27.5t40.5 81.5q0 106 -185 106h-106z" />
    <glyph glyph-name="acute" unicode="&#xb4;" horiz-adv-x="944" 
d="M733 1573l-272 -336h-219l186 336h305z" />
    <glyph glyph-name="mu" unicode="&#xb5;" horiz-adv-x="1361" 
d="M881 150h-4q-40 -86 -111.5 -130.5t-167.5 -44.5q-45 0 -90.5 12t-69.5 33h-4v-419h-291v1480h291v-604q0 -141 45 -211.5t158 -70.5q45 0 84.5 16.5t73 50.5t53.5 94t20 140v585h291v-723q0 -93 17 -121t63 -28q30 0 51 6v-215q-75 -10 -135 -10q-117 0 -183.5 38
t-90.5 122z" />
    <glyph glyph-name="paragraph" unicode="&#xb6;" horiz-adv-x="1134" 
d="M1038 1462v-1702h-186v1540h-152v-1540h-186v904q-186 0 -306 108.5t-120 271.5q0 197 124.5 307.5t340.5 110.5h485z" />
    <glyph glyph-name="periodcentered" unicode="&#xb7;" horiz-adv-x="624" 
d="M156 457v321h315v-321h-315z" />
    <glyph glyph-name="cedilla" unicode="&#xb8;" horiz-adv-x="944" 
d="M475 16l-29 -108q14 2 43 2q77 0 129 -44.5t52 -119.5q0 -97 -72.5 -143.5t-196.5 -46.5q-95 0 -147 12l14 123q52 -8 113 -8q111 0 111 55q0 51 -103 51q-53 0 -106 -6l32 233h160z" />
    <glyph glyph-name="onesuperior" unicode="&#xb9;" 
d="M543 1753v-876h-211v682l-158 -86l-68 157l228 123h209z" />
    <glyph glyph-name="ordmasculine" unicode="&#xba;" horiz-adv-x="784" 
d="M735 1087q0 -158 -93.5 -250t-250.5 -92q-155 0 -248.5 92t-93.5 250q0 159 93 251t249 92q158 0 251 -92t93 -251zM535 1087q0 90 -36 143.5t-108 53.5q-71 0 -106 -53.5t-35 -143.5q0 -93 36 -144.5t105 -51.5q144 0 144 196z" />
    <glyph glyph-name="guillemotright" unicode="&#xbb;" horiz-adv-x="1157" 
d="M545 188l246 422l-246 420h252l243 -416v-10l-252 -416h-243zM117 188l245 422l-245 420h252l243 -416v-10l-252 -416h-243z" />
    <glyph glyph-name="onequarter" unicode="&#xbc;" horiz-adv-x="1808" 
d="M1452 1462l-829 -1462h-209l831 1462h207zM543 1466v-876h-211v682l-158 -86l-68 157l228 123h209zM1677 877v-539h92v-166h-92v-172h-204v172h-398v197l328 508h274zM1473 338v348h-5l-206 -348h211z" />
    <glyph glyph-name="onehalf" unicode="&#xbd;" horiz-adv-x="1808" 
d="M1423 1462l-829 -1462h-209l832 1462h206zM543 1466v-876h-211v682l-158 -86l-68 157l228 123h209zM1722 164v-164h-602v168q223 189 303 281t80 165q0 52 -33 81.5t-88 29.5q-94 0 -200 -61l-62 147q59 39 135 60.5t148 21.5q141 0 222 -71t81 -199q0 -59 -18.5 -110
t-64 -107.5t-100.5 -109t-149 -132.5h348z" />
    <glyph glyph-name="threequarters" unicode="&#xbe;" horiz-adv-x="1808" 
d="M1452 1462l-829 -1462h-209l831 1462h207zM1677 877v-539h92v-166h-92v-172h-204v172h-398v197l328 508h274zM1473 338v348h-5l-206 -348h211zM205 956v162h108q164 0 164 103q0 48 -34 72t-91 24q-94 0 -192 -45l-47 158q112 53 264 53q86 0 152.5 -22.5t109.5 -76.5
t43 -135q0 -148 -139 -196v-4q79 -22 119 -79t40 -128q0 -69 -27 -121.5t-74.5 -83.5t-108 -46.5t-132.5 -15.5q-151 0 -276 58l51 158q112 -50 213 -50q67 0 107.5 27.5t40.5 81.5q0 106 -185 106h-106z" />
    <glyph glyph-name="questiondown" unicode="&#xbf;" horiz-adv-x="1017" 
d="M532 -166q145 0 310 90l82 -217q-180 -113 -420 -113q-81 0 -149.5 13.5t-129 45t-103 79.5t-67 120t-24.5 164q6 105 48.5 182t129.5 142q129 99 151 120q46 44 52 96q2 15 2 34v35h276v-56q0 -100 -33 -166t-114 -131q-106 -74 -162.5 -136.5t-56.5 -137.5
q0 -164 208 -164zM707 1081v-309h-320v309h320z" />
    <glyph glyph-name="Agrave" unicode="&#xc0;" horiz-adv-x="1468" 
d="M449 356l-127 -356h-318l526 1462h410l524 -1462h-321l-131 356h-563zM731 1229l-213 -631h424zM381 1860h321l193 -297h-236z" />
    <glyph glyph-name="Aacute" unicode="&#xc1;" horiz-adv-x="1468" 
d="M449 356l-127 -356h-318l526 1462h410l524 -1462h-321l-131 356h-563zM731 1229l-213 -631h424zM1112 1860l-281 -297h-235l195 297h321z" />
    <glyph glyph-name="Acircumflex" unicode="&#xc2;" horiz-adv-x="1468" 
d="M449 356l-127 -356h-318l526 1462h410l524 -1462h-321l-131 356h-563zM731 1229l-213 -631h424zM1116 1556h-235l-150 183l-149 -183h-238l238 312h299z" />
    <glyph glyph-name="Atilde" unicode="&#xc3;" horiz-adv-x="1468" 
d="M449 356l-127 -356h-318l526 1462h410l524 -1462h-321l-131 356h-563zM731 1229l-213 -631h424zM760 1800q43 -29 65.5 -38t46.5 -9q63 0 66 113h162q-5 -140 -55 -222.5t-152 -82.5q-41 0 -77.5 12t-96.5 47q-55 32 -80.5 42.5t-46.5 10.5q-66 0 -72 -110h-162
q7 145 64 224t149 79q49 0 88 -13.5t101 -52.5z" />
    <glyph glyph-name="Adieresis" unicode="&#xc4;" horiz-adv-x="1468" 
d="M449 356l-127 -356h-318l526 1462h410l524 -1462h-321l-131 356h-563zM731 1229l-213 -631h424zM643 1853v-249h-254v249h254zM1065 1853v-249h-256v249h256z" />
    <glyph glyph-name="Aring" unicode="&#xc5;" horiz-adv-x="1468" 
d="M449 356l-127 -356h-318l526 1462h410l524 -1462h-321l-131 356h-563zM731 1229l-213 -631h424zM731 1944q93 0 154 -62.5t61 -155.5q0 -95 -61 -156t-156 -61q-93 0 -154 61t-61 156q0 92 62 155t155 63zM729 1841q-47 0 -77.5 -33.5t-30.5 -81.5q0 -51 30 -82.5
t78 -31.5t79.5 31.5t31.5 80.5q0 50 -32.5 83.5t-78.5 33.5z" />
    <glyph glyph-name="AE" unicode="&#xc6;" horiz-adv-x="1839" 
d="M492 344l-162 -344h-328l686 1462h1077v-239h-581v-357h528v-239h-528v-387h600v-240h-893v344h-399zM887 1231l-297 -647h301v647h-4z" />
    <glyph glyph-name="Ccedilla" unicode="&#xc7;" horiz-adv-x="1273" 
d="M1192 1430l-55 -234q-128 51 -263 51q-114 0 -204.5 -41.5t-147.5 -113.5t-86.5 -165.5t-29.5 -201.5q0 -102 30 -193t87 -162t147 -113t202 -42q154 0 277 55l51 -231q-145 -58 -338 -64l-16 -67q14 2 43 2q76 0 128 -44.5t52 -119.5q0 -97 -72 -143.5t-196 -46.5
q-96 0 -148 12l15 123q52 -8 112 -8q111 0 111 55q0 51 -103 51q-54 0 -106 -6l29 203q-278 40 -441.5 241t-163.5 500q0 165 51 304.5t144.5 240.5t234 158t312.5 57q207 0 344 -57z" />
    <glyph glyph-name="Egrave" unicode="&#xc8;" horiz-adv-x="1144" 
d="M160 0v1462h880v-239h-581v-357h534v-239h-534v-387h600v-240h-899zM231 1860h322l192 -297h-235z" />
    <glyph glyph-name="Eacute" unicode="&#xc9;" horiz-adv-x="1144" 
d="M160 0v1462h880v-239h-581v-357h534v-239h-534v-387h600v-240h-899zM987 1860l-280 -297h-236l195 297h321z" />
    <glyph glyph-name="Ecircumflex" unicode="&#xca;" horiz-adv-x="1144" 
d="M160 0v1462h880v-239h-581v-357h534v-239h-534v-387h600v-240h-899zM993 1556h-235l-150 183l-149 -183h-238l238 312h299z" />
    <glyph glyph-name="Edieresis" unicode="&#xcb;" horiz-adv-x="1144" 
d="M160 0v1462h880v-239h-581v-357h534v-239h-534v-387h600v-240h-899zM512 1853v-249h-254v249h254zM934 1853v-249h-256v249h256z" />
    <glyph glyph-name="Igrave" unicode="&#xcc;" horiz-adv-x="618" 
d="M160 0v1462h299v-1462h-299zM-63 1860h321l193 -297h-236z" />
    <glyph glyph-name="Iacute" unicode="&#xcd;" horiz-adv-x="618" 
d="M160 0v1462h299v-1462h-299zM690 1860l-280 -297h-236l195 297h321z" />
    <glyph glyph-name="Icircumflex" unicode="&#xce;" horiz-adv-x="618" 
d="M160 0v1462h299v-1462h-299zM700 1556h-235l-150 183l-149 -183h-238l238 312h299z" />
    <glyph glyph-name="Idieresis" unicode="&#xcf;" horiz-adv-x="618" 
d="M160 0v1462h299v-1462h-299zM227 1853v-249h-254v249h254zM649 1853v-249h-256v249h256z" />
    <glyph glyph-name="Eth" unicode="&#xd0;" horiz-adv-x="1501" 
d="M160 0v666h-127v168h127v628h497q357 0 547.5 -191.5t190.5 -533.5q0 -344 -191.5 -540.5t-546.5 -196.5h-497zM459 1223v-389h254v-168h-254v-426h155q243 0 362.5 131t119.5 362q0 229 -120 359.5t-362 130.5h-155z" />
    <glyph glyph-name="Ntilde" unicode="&#xd1;" horiz-adv-x="1509" 
d="M621 1462l444 -1167h4v1167h281v-1462h-447l-461 1184h-4v-1184h-278v1462h461zM813 1800q43 -28 66 -37.5t47 -9.5q62 0 65 113h162q-5 -140 -55 -222.5t-152 -82.5q-40 0 -77 12t-97 47q-55 32 -80.5 42.5t-46.5 10.5q-66 0 -72 -110h-161q7 145 64 224t149 79
q49 0 87.5 -13.5t100.5 -52.5z" />
    <glyph glyph-name="Ograve" unicode="&#xd2;" horiz-adv-x="1591" 
d="M1481 729q0 -165 -45.5 -303t-131 -238.5t-216 -156.5t-293.5 -56q-162 0 -292.5 56t-216 156.5t-131.5 238.5t-46 303q0 166 45.5 304.5t130.5 239.5t216 157.5t294 56.5q218 0 374.5 -98.5t234 -268t77.5 -391.5zM1182 729q0 110 -23.5 202.5t-70 164t-121.5 111.5
t-172 40t-172 -40t-121.5 -111.5t-70 -164t-23.5 -202.5q0 -109 24 -201t70.5 -162.5t122 -110.5t172.5 -40q98 0 173 40t120.5 110.5t68.5 162.5t23 201zM412 1860h321l193 -297h-236z" />
    <glyph glyph-name="Oacute" unicode="&#xd3;" horiz-adv-x="1591" 
d="M1481 729q0 -165 -45.5 -303t-131 -238.5t-216 -156.5t-293.5 -56q-162 0 -292.5 56t-216 156.5t-131.5 238.5t-46 303q0 166 45.5 304.5t130.5 239.5t216 157.5t294 56.5q218 0 374.5 -98.5t234 -268t77.5 -391.5zM1182 729q0 110 -23.5 202.5t-70 164t-121.5 111.5
t-172 40t-172 -40t-121.5 -111.5t-70 -164t-23.5 -202.5q0 -109 24 -201t70.5 -162.5t122 -110.5t172.5 -40q98 0 173 40t120.5 110.5t68.5 162.5t23 201zM1174 1860l-281 -297h-236l195 297h322z" />
    <glyph glyph-name="Ocircumflex" unicode="&#xd4;" horiz-adv-x="1591" 
d="M1481 729q0 -165 -45.5 -303t-131 -238.5t-216 -156.5t-293.5 -56q-162 0 -292.5 56t-216 156.5t-131.5 238.5t-46 303q0 166 45.5 304.5t130.5 239.5t216 157.5t294 56.5q218 0 374.5 -98.5t234 -268t77.5 -391.5zM1182 729q0 110 -23.5 202.5t-70 164t-121.5 111.5
t-172 40t-172 -40t-121.5 -111.5t-70 -164t-23.5 -202.5q0 -109 24 -201t70.5 -162.5t122 -110.5t172.5 -40q98 0 173 40t120.5 110.5t68.5 162.5t23 201zM1184 1556h-236l-149 183l-150 -183h-237l237 312h299z" />
    <glyph glyph-name="Otilde" unicode="&#xd5;" horiz-adv-x="1591" 
d="M1481 729q0 -165 -45.5 -303t-131 -238.5t-216 -156.5t-293.5 -56q-162 0 -292.5 56t-216 156.5t-131.5 238.5t-46 303q0 166 45.5 304.5t130.5 239.5t216 157.5t294 56.5q218 0 374.5 -98.5t234 -268t77.5 -391.5zM1182 729q0 110 -23.5 202.5t-70 164t-121.5 111.5
t-172 40t-172 -40t-121.5 -111.5t-70 -164t-23.5 -202.5q0 -109 24 -201t70.5 -162.5t122 -110.5t172.5 -40q98 0 173 40t120.5 110.5t68.5 162.5t23 201zM821 1800q43 -28 66 -37.5t47 -9.5q62 0 65 113h162q-5 -140 -55 -222.5t-152 -82.5q-40 0 -77 12t-97 47
q-55 32 -80.5 42.5t-46.5 10.5q-65 0 -71 -110h-162q7 145 64 224t149 79q49 0 87.5 -13.5t100.5 -52.5z" />
    <glyph glyph-name="Odieresis" unicode="&#xd6;" horiz-adv-x="1591" 
d="M1481 729q0 -165 -45.5 -303t-131 -238.5t-216 -156.5t-293.5 -56q-162 0 -292.5 56t-216 156.5t-131.5 238.5t-46 303q0 166 45.5 304.5t130.5 239.5t216 157.5t294 56.5q218 0 374.5 -98.5t234 -268t77.5 -391.5zM1182 729q0 110 -23.5 202.5t-70 164t-121.5 111.5
t-172 40t-172 -40t-121.5 -111.5t-70 -164t-23.5 -202.5q0 -109 24 -201t70.5 -162.5t122 -110.5t172.5 -40q98 0 173 40t120.5 110.5t68.5 162.5t23 201zM707 1853v-249h-254v249h254zM1128 1853v-249h-256v249h256z" />
    <glyph glyph-name="multiply" unicode="&#xd7;" horiz-adv-x="1132" 
d="M68 297l344 342l-344 340l155 154l342 -342l340 342l154 -154l-342 -340l342 -342l-154 -154l-340 342l-342 -342z" />
    <glyph glyph-name="Oslash" unicode="&#xd8;" horiz-adv-x="1591" 
d="M1481 729q0 -165 -45.5 -303t-131 -238.5t-216 -156.5t-293.5 -56q-236 0 -398 111l-121 -154l-133 103l129 168q-163 195 -163 526q0 166 45.5 304.5t130.5 239.5t216 157.5t294 56.5q228 0 385 -109l118 154l136 -102l-125 -162q82 -100 127 -240t45 -299zM408 729
q0 -178 49 -287l565 729q-88 76 -227 76q-97 0 -172 -40t-121.5 -111.5t-70 -164t-23.5 -202.5zM1182 729q0 179 -56 303l-567 -735q91 -82 238 -82q98 0 173 40t120.5 110.5t68.5 162.5t23 201z" />
    <glyph glyph-name="Ugrave" unicode="&#xd9;" horiz-adv-x="1454" 
d="M1311 1462v-1030q0 -145 -77 -249.5t-208 -156t-301 -51.5q-168 0 -298 51.5t-207 156t-77 249.5v1030h299v-993q0 -129 75.5 -191.5t205.5 -62.5q129 0 209 64t80 190v993h299zM358 1860h322l192 -297h-235z" />
    <glyph glyph-name="Uacute" unicode="&#xda;" horiz-adv-x="1454" 
d="M1311 1462v-1030q0 -145 -77 -249.5t-208 -156t-301 -51.5q-168 0 -298 51.5t-207 156t-77 249.5v1030h299v-993q0 -129 75.5 -191.5t205.5 -62.5q129 0 209 64t80 190v993h299zM1085 1860l-280 -297h-236l195 297h321z" />
    <glyph glyph-name="Ucircumflex" unicode="&#xdb;" horiz-adv-x="1454" 
d="M1311 1462v-1030q0 -145 -77 -249.5t-208 -156t-301 -51.5q-168 0 -298 51.5t-207 156t-77 249.5v1030h299v-993q0 -129 75.5 -191.5t205.5 -62.5q129 0 209 64t80 190v993h299zM1108 1556h-236l-149 183l-150 -183h-237l237 312h299z" />
    <glyph glyph-name="Udieresis" unicode="&#xdc;" horiz-adv-x="1454" 
d="M1311 1462v-1030q0 -145 -77 -249.5t-208 -156t-301 -51.5q-168 0 -298 51.5t-207 156t-77 249.5v1030h299v-993q0 -129 75.5 -191.5t205.5 -62.5q129 0 209 64t80 190v993h299zM641 1853v-249h-254v249h254zM1063 1853v-249h-256v249h256z" />
    <glyph glyph-name="Yacute" unicode="&#xdd;" horiz-adv-x="1378" 
d="M541 0v557l-539 905h350l340 -622l342 622h342l-536 -905v-557h-299zM1077 1860l-280 -297h-236l195 297h321z" />
    <glyph glyph-name="Thorn" unicode="&#xde;" horiz-adv-x="1306" 
d="M160 0v1462h299v-219h254q89 0 165 -14t143.5 -47.5t114.5 -85t74 -130t27 -178.5q0 -126 -41 -219.5t-114 -147.5t-165 -80t-204 -26h-254v-315h-299zM459 1004v-449h223q122 0 189 51t67 172q0 124 -69 175t-201 51h-209z" />
    <glyph glyph-name="germandbls" unicode="&#xdf;" horiz-adv-x="1376" 
d="M717 1505q81 0 154.5 -15t138.5 -47.5t112 -79.5t74 -115.5t27 -151.5q0 -129 -71.5 -213.5t-186.5 -112.5v-4q44 -7 85.5 -22.5t85 -45t75.5 -69t52.5 -98.5t20.5 -130q0 -89 -26.5 -161.5t-71.5 -120.5t-106 -81.5t-127.5 -48t-137.5 -14.5q-154 0 -254 33l29 211
q86 -24 182 -24q101 0 162 53t61 158q0 117 -86.5 171t-273.5 54v223q140 6 218.5 63t78.5 164q0 93 -60.5 147t-162.5 54q-134 0 -204.5 -82.5t-70.5 -241.5v-958h-291v977q0 120 32 213t85 151.5t128 96t155.5 52.5t173.5 15z" />
    <glyph glyph-name="agrave" unicode="&#xe0;" horiz-adv-x="1193" 
d="M764 680v27q0 180 -240 180q-140 0 -278 -53l-53 208q76 28 173.5 46t178.5 18q510 0 510 -414v-446q0 -158 16 -246h-258q-18 63 -22 133h-5q-42 -73 -124.5 -115.5t-188.5 -42.5q-59 0 -113 10.5t-105.5 36t-89 63t-60.5 96t-23 130.5q0 67 19 120.5t51 91.5t82 66
t105.5 45.5t127.5 28t141.5 14t155.5 3.5zM764 500h-39q-81 0 -141.5 -7.5t-112.5 -26t-79 -54.5t-27 -88q0 -70 42.5 -109t116.5 -39q119 0 179.5 73t60.5 175v76zM567 1237l-272 336h305l186 -336h-219z" />
    <glyph glyph-name="aacute" unicode="&#xe1;" horiz-adv-x="1193" 
d="M764 680v27q0 180 -240 180q-140 0 -278 -53l-53 208q76 28 173.5 46t178.5 18q510 0 510 -414v-446q0 -158 16 -246h-258q-18 63 -22 133h-5q-42 -73 -124.5 -115.5t-188.5 -42.5q-59 0 -113 10.5t-105.5 36t-89 63t-60.5 96t-23 130.5q0 67 19 120.5t51 91.5t82 66
t105.5 45.5t127.5 28t141.5 14t155.5 3.5zM764 500h-39q-81 0 -141.5 -7.5t-112.5 -26t-79 -54.5t-27 -88q0 -70 42.5 -109t116.5 -39q119 0 179.5 73t60.5 175v76zM983 1573l-272 -336h-219l186 336h305z" />
    <glyph glyph-name="acircumflex" unicode="&#xe2;" horiz-adv-x="1193" 
d="M764 680v27q0 180 -240 180q-140 0 -278 -53l-53 208q76 28 173.5 46t178.5 18q510 0 510 -414v-446q0 -158 16 -246h-258q-18 63 -22 133h-5q-42 -73 -124.5 -115.5t-188.5 -42.5q-59 0 -113 10.5t-105.5 36t-89 63t-60.5 96t-23 130.5q0 67 19 120.5t51 91.5t82 66
t105.5 45.5t127.5 28t141.5 14t155.5 3.5zM764 500h-39q-81 0 -141.5 -7.5t-112.5 -26t-79 -54.5t-27 -88q0 -70 42.5 -109t116.5 -39q119 0 179.5 73t60.5 175v76zM954 1237h-215l-137 211l-135 -211h-213l207 336h287z" />
    <glyph glyph-name="atilde" unicode="&#xe3;" horiz-adv-x="1193" 
d="M764 680v27q0 180 -240 180q-140 0 -278 -53l-53 208q76 28 173.5 46t178.5 18q510 0 510 -414v-446q0 -158 16 -246h-258q-18 63 -22 133h-5q-42 -73 -124.5 -115.5t-188.5 -42.5q-59 0 -113 10.5t-105.5 36t-89 63t-60.5 96t-23 130.5q0 67 19 120.5t51 91.5t82 66
t105.5 45.5t127.5 28t141.5 14t155.5 3.5zM764 500h-39q-81 0 -141.5 -7.5t-112.5 -26t-79 -54.5t-27 -88q0 -70 42.5 -109t116.5 -39q119 0 179.5 73t60.5 175v76zM633 1481q45 -28 67 -37.5t45 -9.5q63 0 66 112h162q-5 -140 -55 -221.5t-152 -81.5q-42 0 -78.5 11.5
t-95.5 45.5q-91 54 -127 54q-65 0 -72 -111h-162q7 145 64 224t149 79q50 0 89 -13.5t100 -51.5z" />
    <glyph glyph-name="adieresis" unicode="&#xe4;" horiz-adv-x="1193" 
d="M764 680v27q0 180 -240 180q-140 0 -278 -53l-53 208q76 28 173.5 46t178.5 18q510 0 510 -414v-446q0 -158 16 -246h-258q-18 63 -22 133h-5q-42 -73 -124.5 -115.5t-188.5 -42.5q-59 0 -113 10.5t-105.5 36t-89 63t-60.5 96t-23 130.5q0 67 19 120.5t51 91.5t82 66
t105.5 45.5t127.5 28t141.5 14t155.5 3.5zM764 500h-39q-81 0 -141.5 -7.5t-112.5 -26t-79 -54.5t-27 -88q0 -70 42.5 -109t116.5 -39q119 0 179.5 73t60.5 175v76zM522 1522v-242h-254v242h254zM944 1522v-242h-256v242h256z" />
    <glyph glyph-name="aring" unicode="&#xe5;" horiz-adv-x="1193" 
d="M764 680v27q0 180 -240 180q-140 0 -278 -53l-53 208q76 28 173.5 46t178.5 18q510 0 510 -414v-446q0 -158 16 -246h-258q-18 63 -22 133h-5q-42 -73 -124.5 -115.5t-188.5 -42.5q-59 0 -113 10.5t-105.5 36t-89 63t-60.5 96t-23 130.5q0 67 19 120.5t51 91.5t82 66
t105.5 45.5t127.5 28t141.5 14t155.5 3.5zM764 500h-39q-81 0 -141.5 -7.5t-112.5 -26t-79 -54.5t-27 -88q0 -70 42.5 -109t116.5 -39q119 0 179.5 73t60.5 175v76zM614 1636q93 0 154 -62t61 -155q0 -96 -60.5 -156.5t-156.5 -60.5q-93 0 -154 60.5t-61 156.5q0 91 62 154
t155 63zM612 1532q-47 0 -77.5 -32t-30.5 -81q0 -51 30.5 -83.5t77.5 -32.5t79 32.5t32 81.5q0 50 -32 82.5t-79 32.5z" />
    <glyph glyph-name="ae" unicode="&#xe6;" horiz-adv-x="1859" 
d="M473 -25q-61 0 -115.5 10.5t-106 35t-89 61.5t-60 94.5t-22.5 130.5q0 67 19 120t51 90.5t82 65t105 44.5t128 26.5t142 13t155 3.5v35q0 182 -240 182q-138 0 -278 -53q-9 39 -28 110t-26 98q75 28 174.5 46t178.5 18q141 0 248 -38.5t155 -113.5q58 69 147.5 110.5
t194.5 41.5q227 0 356.5 -141t129.5 -387v-119h-738q17 -132 108 -199t232 -67q163 0 273 38q21 -147 32 -213q-151 -43 -335 -43q-318 0 -449 197q-71 -99 -167.5 -148t-256.5 -49zM1284 909q-99 0 -166.5 -66.5t-79.5 -180.5h463v6q0 109 -59 175t-158 66zM762 489h-37
q-81 0 -141 -7t-112.5 -25t-79.5 -53t-27 -87q0 -71 43 -107t120 -36q66 0 114 26t72.5 69t36 88t11.5 94v38z" />
    <glyph glyph-name="ccedilla" unicode="&#xe7;" horiz-adv-x="980" 
d="M922 1071l-50 -217q-79 33 -174 33q-149 0 -231 -98t-82 -250q0 -151 81.5 -247.5t238.5 -96.5q108 0 176 30l45 -213q-107 -37 -246 -37h-33l-16 -67q14 2 43 2q76 0 128 -44.5t52 -119.5q0 -97 -72 -143.5t-196 -46.5q-96 0 -148 12l15 123q52 -8 112 -8q111 0 111 55
q0 51 -103 51q-53 0 -106 -6l29 213q-194 49 -298 194t-104 349q0 251 157 409t427 158q143 0 244 -35z" />
    <glyph glyph-name="egrave" unicode="&#xe8;" horiz-adv-x="1208" 
d="M1122 455h-741q11 -131 109 -196.5t247 -65.5q148 0 258 38l33 -213q-153 -43 -326 -43q-286 0 -448 154.5t-162 409.5q0 251 147 409t396 158q233 0 360 -143.5t127 -391.5v-116zM631 909q-102 0 -170 -69.5t-80 -182.5h469q2 114 -58 183t-161 69zM565 1237l-272 336
h305l186 -336h-219z" />
    <glyph glyph-name="eacute" unicode="&#xe9;" horiz-adv-x="1208" 
d="M1122 455h-741q11 -131 109 -196.5t247 -65.5q148 0 258 38l33 -213q-153 -43 -326 -43q-286 0 -448 154.5t-162 409.5q0 251 147 409t396 158q233 0 360 -143.5t127 -391.5v-116zM631 909q-102 0 -170 -69.5t-80 -182.5h469q2 114 -58 183t-161 69zM993 1573l-272 -336
h-219l186 336h305z" />
    <glyph glyph-name="ecircumflex" unicode="&#xea;" horiz-adv-x="1208" 
d="M1122 455h-741q11 -131 109 -196.5t247 -65.5q148 0 258 38l33 -213q-153 -43 -326 -43q-286 0 -448 154.5t-162 409.5q0 251 147 409t396 158q233 0 360 -143.5t127 -391.5v-116zM631 909q-102 0 -170 -69.5t-80 -182.5h469q2 114 -58 183t-161 69zM981 1237h-215
l-137 211l-135 -211h-213l206 336h287z" />
    <glyph glyph-name="edieresis" unicode="&#xeb;" horiz-adv-x="1208" 
d="M1122 455h-741q11 -131 109 -196.5t247 -65.5q148 0 258 38l33 -213q-153 -43 -326 -43q-286 0 -448 154.5t-162 409.5q0 251 147 409t396 158q233 0 360 -143.5t127 -391.5v-116zM631 909q-102 0 -170 -69.5t-80 -182.5h469q2 114 -58 183t-161 69zM551 1522v-242h-254
v242h254zM973 1522v-242h-256v242h256z" />
    <glyph glyph-name="igrave" unicode="&#xec;" horiz-adv-x="577" 
d="M205 1237l-273 336h306l186 -336h-219zM143 1081h293v-1081h-293v1081z" />
    <glyph glyph-name="iacute" unicode="&#xed;" horiz-adv-x="577" 
d="M645 1573l-272 -336h-219l186 336h305zM143 1081h293v-1081h-293v1081z" />
    <glyph glyph-name="icircumflex" unicode="&#xee;" horiz-adv-x="577" 
d="M143 1081h293v-1081h-293v1081zM645 1237h-215l-137 211l-135 -211h-213l207 336h286z" />
    <glyph glyph-name="idieresis" unicode="&#xef;" horiz-adv-x="577" 
d="M211 1522v-242h-254v242h254zM633 1522v-242h-256v242h256zM143 1081h293v-1081h-293v1081z" />
    <glyph glyph-name="eth" unicode="&#xf0;" horiz-adv-x="1292" 
d="M709 1190l-365 -115v168l191 55q-74 36 -168 64l174 158q151 -50 280 -138l244 82v-166l-107 -32q236 -252 236 -680q0 -294 -144.5 -452.5t-412.5 -158.5q-244 0 -392.5 146t-148.5 387q0 243 139 386.5t373 143.5q158 0 264 -80h5q-41 125 -168 232zM905 514
q0 148 -68.5 234t-191.5 86q-121 0 -189.5 -86.5t-68.5 -233.5q0 -149 68.5 -234t189.5 -85q124 0 192 84.5t68 234.5z" />
    <glyph glyph-name="ntilde" unicode="&#xf1;" horiz-adv-x="1294" 
d="M143 1081h285v-145h4q40 81 130 125.5t198 44.5q183 0 291 -107t108 -286v-713h-291v604q0 142 -43 212.5t-157 70.5q-96 0 -165 -74t-69 -227v-586h-291v1081zM713 1481q45 -28 67 -37.5t45 -9.5q63 0 66 112h162q-5 -140 -55 -221.5t-152 -81.5q-42 0 -78.5 11.5
t-95.5 45.5q-91 54 -127 54q-65 0 -72 -111h-162q7 145 64 224t149 79q50 0 89 -13.5t100 -51.5z" />
    <glyph glyph-name="ograve" unicode="&#xf2;" horiz-adv-x="1290" 
d="M1196 543q0 -262 -150 -415t-401 -153q-253 0 -402 152.5t-149 415.5q0 262 148.5 412.5t402.5 150.5t402.5 -150.5t148.5 -412.5zM905 543q0 158 -66 251t-194 93t-194 -93t-66 -251q0 -162 66 -255t194 -93q129 0 194.5 92.5t65.5 255.5zM551 1237l-272 336h305
l186 -336h-219z" />
    <glyph glyph-name="oacute" unicode="&#xf3;" horiz-adv-x="1290" 
d="M1196 543q0 -262 -150 -415t-401 -153q-253 0 -402 152.5t-149 415.5q0 262 148.5 412.5t402.5 150.5t402.5 -150.5t148.5 -412.5zM905 543q0 158 -66 251t-194 93t-194 -93t-66 -251q0 -162 66 -255t194 -93q129 0 194.5 92.5t65.5 255.5zM1020 1573l-272 -336h-220
l187 336h305z" />
    <glyph glyph-name="ocircumflex" unicode="&#xf4;" horiz-adv-x="1290" 
d="M1196 543q0 -262 -150 -415t-401 -153q-253 0 -402 152.5t-149 415.5q0 262 148.5 412.5t402.5 150.5t402.5 -150.5t148.5 -412.5zM905 543q0 158 -66 251t-194 93t-194 -93t-66 -251q0 -162 66 -255t194 -93q129 0 194.5 92.5t65.5 255.5zM997 1237h-215l-137 211
l-135 -211h-213l207 336h287z" />
    <glyph glyph-name="otilde" unicode="&#xf5;" horiz-adv-x="1290" 
d="M1196 543q0 -262 -150 -415t-401 -153q-253 0 -402 152.5t-149 415.5q0 262 148.5 412.5t402.5 150.5t402.5 -150.5t148.5 -412.5zM905 543q0 158 -66 251t-194 93t-194 -93t-66 -251q0 -162 66 -255t194 -93q129 0 194.5 92.5t65.5 255.5zM684 1481q45 -28 67.5 -37.5
t45.5 -9.5q62 0 65 112h162q-5 -140 -55 -221.5t-152 -81.5q-42 0 -78.5 11.5t-95.5 45.5q-91 54 -127 54q-65 0 -72 -111h-161q7 145 64 224t149 79q49 0 87.5 -13.5t100.5 -51.5z" />
    <glyph glyph-name="odieresis" unicode="&#xf6;" horiz-adv-x="1290" 
d="M1196 543q0 -262 -150 -415t-401 -153q-253 0 -402 152.5t-149 415.5q0 262 148.5 412.5t402.5 150.5t402.5 -150.5t148.5 -412.5zM905 543q0 158 -66 251t-194 93t-194 -93t-66 -251q0 -162 66 -255t194 -93q129 0 194.5 92.5t65.5 255.5zM561 1522v-242h-254v242h254z
M983 1522v-242h-256v242h256z" />
    <glyph glyph-name="divide" unicode="&#xf7;" horiz-adv-x="1132" 
d="M446 160v241h246v-241h-246zM72 541v204h987v-204h-987zM446 883v241h246v-241h-246z" />
    <glyph glyph-name="oslash" unicode="&#xf8;" horiz-adv-x="1290" 
d="M1196 543q0 -262 -150 -415t-401 -153q-169 0 -297 70l-100 -127l-121 92l102 131q-135 151 -135 402q0 262 148.5 412.5t402.5 150.5q167 0 295 -70l98 123l121 -92l-98 -125q135 -151 135 -399zM905 543q0 101 -26 172l-379 -477q58 -43 145 -43q129 0 194.5 92.5
t65.5 255.5zM385 543q0 -97 25 -174l378 475q-58 43 -143 43q-128 0 -194 -93t-66 -251z" />
    <glyph glyph-name="ugrave" unicode="&#xf9;" horiz-adv-x="1294" 
d="M1151 0h-285v145h-4q-40 -81 -128.5 -125.5t-196.5 -44.5q-183 0 -292.5 107.5t-109.5 286.5v712h291v-604q0 -140 45 -211t158 -71q45 0 84.5 16.5t73 50.5t53.5 94t20 140v585h291v-1081zM559 1237l-272 336h305l186 -336h-219z" />
    <glyph glyph-name="uacute" unicode="&#xfa;" horiz-adv-x="1294" 
d="M1151 0h-285v145h-4q-40 -81 -128.5 -125.5t-196.5 -44.5q-183 0 -292.5 107.5t-109.5 286.5v712h291v-604q0 -140 45 -211t158 -71q45 0 84.5 16.5t73 50.5t53.5 94t20 140v585h291v-1081zM987 1573l-272 -336h-219l186 336h305z" />
    <glyph glyph-name="ucircumflex" unicode="&#xfb;" horiz-adv-x="1294" 
d="M1151 0h-285v145h-4q-40 -81 -128.5 -125.5t-196.5 -44.5q-183 0 -292.5 107.5t-109.5 286.5v712h291v-604q0 -140 45 -211t158 -71q45 0 84.5 16.5t73 50.5t53.5 94t20 140v585h291v-1081zM989 1237h-215l-137 211l-135 -211h-213l207 336h286z" />
    <glyph glyph-name="udieresis" unicode="&#xfc;" horiz-adv-x="1294" 
d="M1151 0h-285v145h-4q-40 -81 -128.5 -125.5t-196.5 -44.5q-183 0 -292.5 107.5t-109.5 286.5v712h291v-604q0 -140 45 -211t158 -71q45 0 84.5 16.5t73 50.5t53.5 94t20 140v585h291v-1081zM555 1522v-242h-254v242h254zM977 1522v-242h-256v242h256z" />
    <glyph glyph-name="yacute" unicode="&#xfd;" horiz-adv-x="1159" 
d="M322 1081l262 -725h4l260 725h305l-586 -1480h-309l176 424l-426 1056h314zM963 1573l-273 -336h-219l186 336h306z" />
    <glyph glyph-name="thorn" unicode="&#xfe;" horiz-adv-x="1318" 
d="M432 119v-518h-289v1904h289v-563h4q56 81 143.5 122.5t184.5 41.5q144 0 249 -76t156.5 -202.5t51.5 -286.5t-53.5 -287t-160.5 -203t-251 -76q-96 0 -180 35.5t-140 108.5h-4zM930 541q0 156 -61.5 251t-182.5 95q-125 0 -197.5 -96t-72.5 -250t72.5 -251t197.5 -97
q81 0 137 47t81.5 124t25.5 177z" />
    <glyph glyph-name="ydieresis" unicode="&#xff;" horiz-adv-x="1159" 
d="M322 1081l262 -725h4l260 725h305l-586 -1480h-309l176 424l-426 1056h314zM508 1522v-242h-254v242h254zM930 1522v-242h-256v242h256z" />
    <glyph glyph-name="Amacron" unicode="&#x100;" horiz-adv-x="1468" 
d="M449 356l-127 -356h-318l526 1462h410l524 -1462h-321l-131 356h-563zM731 1229l-213 -631h424zM1020 1817v-187h-582v187h582z" />
    <glyph glyph-name="amacron" unicode="&#x101;" horiz-adv-x="1193" 
d="M764 680v27q0 180 -240 180q-140 0 -278 -53l-53 208q76 28 173.5 46t178.5 18q510 0 510 -414v-446q0 -158 16 -246h-258q-18 63 -22 133h-5q-42 -73 -124.5 -115.5t-188.5 -42.5q-59 0 -113 10.5t-105.5 36t-89 63t-60.5 96t-23 130.5q0 67 19 120.5t51 91.5t82 66
t105.5 45.5t127.5 28t141.5 14t155.5 3.5zM764 500h-39q-81 0 -141.5 -7.5t-112.5 -26t-79 -54.5t-27 -88q0 -70 42.5 -109t116.5 -39q119 0 179.5 73t60.5 175v76zM905 1493v-186h-581v186h581z" />
    <glyph glyph-name="Abreve" unicode="&#x102;" horiz-adv-x="1468" 
d="M449 356l-127 -356h-318l526 1462h410l524 -1462h-321l-131 356h-563zM731 1229l-213 -631h424zM727 1731q154 0 158 145h194q-2 -65 -22 -120t-60 -100.5t-109 -71t-161 -25.5q-89 0 -157 26t-108.5 71t-60.5 100t-22 120h194q0 -63 37 -104t117 -41z" />
    <glyph glyph-name="abreve" unicode="&#x103;" horiz-adv-x="1193" 
d="M764 680v27q0 180 -240 180q-140 0 -278 -53l-53 208q76 28 173.5 46t178.5 18q510 0 510 -414v-446q0 -158 16 -246h-258q-18 63 -22 133h-5q-42 -73 -124.5 -115.5t-188.5 -42.5q-59 0 -113 10.5t-105.5 36t-89 63t-60.5 96t-23 130.5q0 67 19 120.5t51 91.5t82 66
t105.5 45.5t127.5 28t141.5 14t155.5 3.5zM764 500h-39q-81 0 -141.5 -7.5t-112.5 -26t-79 -54.5t-27 -88q0 -70 42.5 -109t116.5 -39q119 0 179.5 73t60.5 175v76zM612 1405q154 0 158 143h195q-2 -64 -22 -119t-60 -100.5t-109.5 -71.5t-161.5 -26q-89 0 -157 26
t-108.5 71.5t-60.5 100.5t-22 119h195q0 -63 36 -103t117 -40z" />
    <glyph glyph-name="Aogonek" unicode="&#x104;" horiz-adv-x="1468" 
d="M449 356l-127 -356h-318l526 1462h410l524 -1462h-155q-73 -77 -99 -121.5t-26 -81.5q0 -63 76 -63q55 0 110 18l25 -145q-77 -29 -170 -29q-46 0 -85 8t-76 26.5t-58 55t-21 88.5q0 66 36.5 123t121.5 121l-131 356h-563zM731 1229l-213 -631h424z" />
    <glyph glyph-name="aogonek" unicode="&#x105;" horiz-adv-x="1193" 
d="M764 680v27q0 180 -240 180q-140 0 -278 -53l-53 208q76 28 173.5 46t178.5 18q510 0 510 -414v-446q0 -158 16 -246h-96q-73 -77 -99 -121.5t-26 -81.5q0 -63 76 -63q55 0 110 18l25 -145q-77 -29 -170 -29q-46 0 -85 8t-76 26.5t-58 55t-21 88.5q0 65 37.5 123.5
t122.5 122.5q-16 55 -20 131h-5q-42 -73 -124.5 -115.5t-188.5 -42.5q-59 0 -113 10.5t-105.5 36t-89 63t-60.5 96t-23 130.5q0 67 19 120.5t51 91.5t82 66t105.5 45.5t127.5 28t141.5 14t155.5 3.5zM764 500h-39q-81 0 -141.5 -7.5t-112.5 -26t-79 -54.5t-27 -88
q0 -70 42.5 -109t116.5 -39q119 0 179.5 73t60.5 175v76z" />
    <glyph glyph-name="Cacute" unicode="&#x106;" horiz-adv-x="1273" 
d="M1192 1430l-55 -234q-128 51 -263 51q-114 0 -204.5 -41.5t-147.5 -113.5t-86.5 -165.5t-29.5 -201.5q0 -102 30 -193t87 -162t147 -113t202 -42q154 0 277 55l51 -231q-155 -64 -362 -64q-164 0 -301.5 56t-231.5 155t-146.5 238t-52.5 303q0 165 51 304.5t144.5 240.5
t234 158t312.5 57q207 0 344 -57zM1192 1860l-281 -297h-235l194 297h322z" />
    <glyph glyph-name="cacute" unicode="&#x107;" horiz-adv-x="980" 
d="M922 1071l-50 -217q-79 33 -174 33q-149 0 -231 -98t-82 -250q0 -151 81.5 -247.5t238.5 -96.5q108 0 176 30l45 -213q-107 -37 -246 -37q-187 0 -321.5 74.5t-199.5 200.5t-65 289q0 251 157 409t427 158q143 0 244 -35zM981 1573l-272 -336h-220l187 336h305z" />
    <glyph glyph-name="Ccircumflex" unicode="&#x108;" horiz-adv-x="1273" 
d="M1192 1430l-55 -234q-128 51 -263 51q-114 0 -204.5 -41.5t-147.5 -113.5t-86.5 -165.5t-29.5 -201.5q0 -102 30 -193t87 -162t147 -113t202 -42q154 0 277 55l51 -231q-155 -64 -362 -64q-164 0 -301.5 56t-231.5 155t-146.5 238t-52.5 303q0 165 51 304.5t144.5 240.5
t234 158t312.5 57q207 0 344 -57zM1174 1556h-236l-150 183l-149 -183h-238l238 312h299z" />
    <glyph glyph-name="ccircumflex" unicode="&#x109;" horiz-adv-x="980" 
d="M922 1071l-50 -217q-79 33 -174 33q-149 0 -231 -98t-82 -250q0 -151 81.5 -247.5t238.5 -96.5q108 0 176 30l45 -213q-107 -37 -246 -37q-187 0 -321.5 74.5t-199.5 200.5t-65 289q0 251 157 409t427 158q143 0 244 -35zM952 1237h-215l-137 211l-135 -211h-213l207 336
h286z" />
    <glyph glyph-name="Cdotaccent" unicode="&#x10a;" horiz-adv-x="1273" 
d="M1192 1430l-55 -234q-128 51 -263 51q-114 0 -204.5 -41.5t-147.5 -113.5t-86.5 -165.5t-29.5 -201.5q0 -102 30 -193t87 -162t147 -113t202 -42q154 0 277 55l51 -231q-155 -64 -362 -64q-164 0 -301.5 56t-231.5 155t-146.5 238t-52.5 303q0 165 51 304.5t144.5 240.5
t234 158t312.5 57q207 0 344 -57zM967 1853v-258h-291v258h291z" />
    <glyph glyph-name="cdotaccent" unicode="&#x10b;" horiz-adv-x="980" 
d="M922 1071l-50 -217q-79 33 -174 33q-149 0 -231 -98t-82 -250q0 -151 81.5 -247.5t238.5 -96.5q108 0 176 30l45 -213q-107 -37 -246 -37q-187 0 -321.5 74.5t-199.5 200.5t-65 289q0 251 157 409t427 158q143 0 244 -35zM788 1532v-260h-290v260h290z" />
    <glyph glyph-name="Ccaron" unicode="&#x10c;" horiz-adv-x="1273" 
d="M1192 1430l-55 -234q-128 51 -263 51q-114 0 -204.5 -41.5t-147.5 -113.5t-86.5 -165.5t-29.5 -201.5q0 -102 30 -193t87 -162t147 -113t202 -42q154 0 277 55l51 -231q-155 -64 -362 -64q-164 0 -301.5 56t-231.5 155t-146.5 238t-52.5 303q0 165 51 304.5t144.5 240.5
t234 158t312.5 57q207 0 344 -57zM422 1868h233l150 -182l151 182h236l-236 -312h-299z" />
    <glyph glyph-name="ccaron" unicode="&#x10d;" horiz-adv-x="980" 
d="M922 1071l-50 -217q-79 33 -174 33q-149 0 -231 -98t-82 -250q0 -151 81.5 -247.5t238.5 -96.5q108 0 176 30l45 -213q-107 -37 -246 -37q-187 0 -321.5 74.5t-199.5 200.5t-65 289q0 251 157 409t427 158q143 0 244 -35zM272 1571h215l136 -213l135 213h215l-207 -336
h-287z" />
    <glyph glyph-name="Dcaron" unicode="&#x10e;" horiz-adv-x="1501" 
d="M160 0v1462h497q357 0 547.5 -191.5t190.5 -533.5q0 -344 -191.5 -540.5t-546.5 -196.5h-497zM459 1223v-983h155q243 0 362.5 131t119.5 362q0 229 -120 359.5t-362 130.5h-155zM240 1868h233l150 -182l151 182h236l-236 -312h-299z" />
    <glyph glyph-name="dcaron" unicode="&#x10f;" horiz-adv-x="1316" 
d="M883 961v544h291v-1505h-285v137h-4q-57 -81 -146.5 -121.5t-187.5 -40.5q-144 0 -249 76.5t-156.5 203t-51.5 286.5t53.5 287t159.5 202.5t250 75.5q213 0 322 -145h4zM385 541q0 -156 62 -252t184 -96q124 0 196 97.5t72 252.5q0 152 -72 248t-196 96q-122 0 -184 -95
t-62 -251zM1493 1573l-72 -336h-161l30 336h203z" />
    <glyph glyph-name="Dcroat" unicode="&#x110;" horiz-adv-x="1501" 
d="M160 0v666h-127v168h127v628h497q357 0 547.5 -191.5t190.5 -533.5q0 -344 -191.5 -540.5t-546.5 -196.5h-497zM459 1223v-389h254v-168h-254v-426h155q243 0 362.5 131t119.5 362q0 229 -120 359.5t-362 130.5h-155z" />
    <glyph glyph-name="dcroat" unicode="&#x111;" horiz-adv-x="1316" 
d="M883 961v233h-203v172h203v139h291v-139h100v-172h-100v-1194h-285v137h-4q-57 -81 -146.5 -121.5t-187.5 -40.5q-144 0 -249 76.5t-156.5 203t-51.5 286.5t53.5 287t159.5 202.5t250 75.5q213 0 322 -145h4zM385 541q0 -156 62 -252t184 -96q124 0 196 97.5t72 252.5
q0 152 -72 248t-196 96q-122 0 -184 -95t-62 -251z" />
    <glyph glyph-name="Emacron" unicode="&#x112;" horiz-adv-x="1144" 
d="M160 0v1462h880v-239h-581v-357h534v-239h-534v-387h600v-240h-899zM897 1817v-187h-582v187h582z" />
    <glyph glyph-name="emacron" unicode="&#x113;" horiz-adv-x="1208" 
d="M1122 455h-741q11 -131 109 -196.5t247 -65.5q148 0 258 38l33 -213q-153 -43 -326 -43q-286 0 -448 154.5t-162 409.5q0 251 147 409t396 158q233 0 360 -143.5t127 -391.5v-116zM631 909q-102 0 -170 -69.5t-80 -182.5h469q2 114 -58 183t-161 69zM930 1493v-186h-582
v186h582z" />
    <glyph glyph-name="Ebreve" unicode="&#x114;" horiz-adv-x="1144" 
d="M160 0v1462h880v-239h-581v-357h534v-239h-534v-387h600v-240h-899zM602 1731q154 0 158 145h194q-2 -65 -22 -120t-60 -100.5t-109 -71t-161 -25.5q-89 0 -157 26t-108.5 71t-60.5 100t-22 120h195q0 -64 36.5 -104.5t116.5 -40.5z" />
    <glyph glyph-name="ebreve" unicode="&#x115;" horiz-adv-x="1208" 
d="M1122 455h-741q11 -131 109 -196.5t247 -65.5q148 0 258 38l33 -213q-153 -43 -326 -43q-286 0 -448 154.5t-162 409.5q0 251 147 409t396 158q233 0 360 -143.5t127 -391.5v-116zM631 909q-102 0 -170 -69.5t-80 -182.5h469q2 114 -58 183t-161 69zM627 1405
q153 0 157 143h195q-2 -64 -22 -119t-60 -100.5t-109 -71.5t-161 -26q-89 0 -157 26t-108.5 71.5t-60.5 100.5t-22 119h194q0 -63 36.5 -103t117.5 -40z" />
    <glyph glyph-name="Edotaccent" unicode="&#x116;" horiz-adv-x="1144" 
d="M160 0v1462h880v-239h-581v-357h534v-239h-534v-387h600v-240h-899zM762 1853v-258h-291v258h291z" />
    <glyph glyph-name="edotaccent" unicode="&#x117;" horiz-adv-x="1208" 
d="M1122 455h-741q11 -131 109 -196.5t247 -65.5q148 0 258 38l33 -213q-153 -43 -326 -43q-286 0 -448 154.5t-162 409.5q0 251 147 409t396 158q233 0 360 -143.5t127 -391.5v-116zM631 909q-102 0 -170 -69.5t-80 -182.5h469q2 114 -58 183t-161 69zM776 1532v-260h-291
v260h291z" />
    <glyph glyph-name="Eogonek" unicode="&#x118;" horiz-adv-x="1144" 
d="M160 0v1462h880v-239h-581v-357h534v-239h-534v-387h600v-240h-62q-73 -77 -99 -121.5t-26 -81.5q0 -63 76 -63q56 0 111 18l24 -145q-77 -29 -170 -29q-46 0 -85 8t-75.5 26.5t-57.5 55t-21 88.5q0 66 36 123.5t119 120.5h-669z" />
    <glyph glyph-name="eogonek" unicode="&#x119;" horiz-adv-x="1208" 
d="M1122 455h-741q11 -131 109 -196.5t247 -65.5q148 0 258 38l33 -213q-54 -14 -65 -16q-75 -78 -101 -123t-26 -82q0 -63 75 -63q56 0 111 18l25 -145q-77 -29 -170 -29q-46 0 -85 8t-76 26.5t-58 55t-21 88.5q0 59 29 111t96 110q-18 -2 -60 -2q-286 0 -448 154.5
t-162 409.5q0 251 147 409t396 158q233 0 360 -143.5t127 -391.5v-116zM631 909q-102 0 -170 -69.5t-80 -182.5h469q2 114 -58 183t-161 69z" />
    <glyph glyph-name="Ecaron" unicode="&#x11a;" horiz-adv-x="1144" 
d="M160 0v1462h880v-239h-581v-357h534v-239h-534v-387h600v-240h-899zM207 1868h233l150 -182l151 182h236l-236 -312h-299z" />
    <glyph glyph-name="ecaron" unicode="&#x11b;" horiz-adv-x="1208" 
d="M1122 455h-741q11 -131 109 -196.5t247 -65.5q148 0 258 38l33 -213q-153 -43 -326 -43q-286 0 -448 154.5t-162 409.5q0 251 147 409t396 158q233 0 360 -143.5t127 -391.5v-116zM631 909q-102 0 -170 -69.5t-80 -182.5h469q2 114 -58 183t-161 69zM281 1571h215
l135 -213l135 213h215l-207 -336h-287z" />
    <glyph glyph-name="Gcircumflex" unicode="&#x11c;" horiz-adv-x="1505" 
d="M1317 1403l-82 -242q-63 37 -155.5 61.5t-178.5 24.5q-226 0 -360.5 -140t-134.5 -386q0 -141 54.5 -254.5t164.5 -182.5t258 -69q110 0 178 29v364h-248v240h545v-770q-209 -103 -498 -103q-226 0 -398 95.5t-264 266t-92 390.5q0 166 52.5 304.5t151 240t249.5 158.5
t340 57q233 0 418 -84zM1217 1556h-236l-150 183l-149 -183h-238l238 312h299z" />
    <glyph glyph-name="gcircumflex" unicode="&#x11d;" horiz-adv-x="1312" 
d="M383 569q0 -145 62 -234t182 -89q122 0 195 92t73 231q0 138 -73 228t-195 90q-120 0 -182 -87.5t-62 -230.5zM885 94v76h-4q-109 -141 -314 -141q-145 0 -254 71.5t-165 193.5t-56 275q0 154 57 275t166 191.5t252 70.5q203 0 314 -143h4v118h284v-981
q0 -112 -34 -199.5t-90 -143t-134 -91.5t-159.5 -50.5t-173.5 -14.5q-190 0 -340 43l34 215q124 -39 273 -39q173 0 256.5 67t83.5 207zM1022 1237h-215l-137 211l-135 -211h-213l206 336h287z" />
    <glyph glyph-name="Gbreve" unicode="&#x11e;" horiz-adv-x="1505" 
d="M1317 1403l-82 -242q-63 37 -155.5 61.5t-178.5 24.5q-226 0 -360.5 -140t-134.5 -386q0 -141 54.5 -254.5t164.5 -182.5t258 -69q110 0 178 29v364h-248v240h545v-770q-209 -103 -498 -103q-226 0 -398 95.5t-264 266t-92 390.5q0 166 52.5 304.5t151 240t249.5 158.5
t340 57q233 0 418 -84zM840 1731q153 0 157 145h195q-2 -65 -22 -120t-60 -100.5t-109 -71t-161 -25.5q-89 0 -157 26t-108.5 71t-60.5 100t-22 120h194q0 -63 37 -104t117 -41z" />
    <glyph glyph-name="gbreve" unicode="&#x11f;" horiz-adv-x="1312" 
d="M383 569q0 -145 62 -234t182 -89q122 0 195 92t73 231q0 138 -73 228t-195 90q-120 0 -182 -87.5t-62 -230.5zM885 94v76h-4q-109 -141 -314 -141q-145 0 -254 71.5t-165 193.5t-56 275q0 154 57 275t166 191.5t252 70.5q203 0 314 -143h4v118h284v-981
q0 -112 -34 -199.5t-90 -143t-134 -91.5t-159.5 -50.5t-173.5 -14.5q-190 0 -340 43l34 215q124 -39 273 -39q173 0 256.5 67t83.5 207zM631 1405q153 0 157 143h195q-2 -64 -22 -119t-60 -100.5t-109 -71.5t-161 -26q-89 0 -157 26t-108.5 71.5t-60.5 100.5t-22 119h194
q0 -63 36.5 -103t117.5 -40z" />
    <glyph glyph-name="Gdotaccent" unicode="&#x120;" horiz-adv-x="1505" 
d="M1317 1403l-82 -242q-63 37 -155.5 61.5t-178.5 24.5q-226 0 -360.5 -140t-134.5 -386q0 -141 54.5 -254.5t164.5 -182.5t258 -69q110 0 178 29v364h-248v240h545v-770q-209 -103 -498 -103q-226 0 -398 95.5t-264 266t-92 390.5q0 166 52.5 304.5t151 240t249.5 158.5
t340 57q233 0 418 -84zM995 1853v-258h-290v258h290z" />
    <glyph glyph-name="gdotaccent" unicode="&#x121;" horiz-adv-x="1312" 
d="M383 569q0 -145 62 -234t182 -89q122 0 195 92t73 231q0 138 -73 228t-195 90q-120 0 -182 -87.5t-62 -230.5zM885 94v76h-4q-109 -141 -314 -141q-145 0 -254 71.5t-165 193.5t-56 275q0 154 57 275t166 191.5t252 70.5q203 0 314 -143h4v118h284v-981
q0 -112 -34 -199.5t-90 -143t-134 -91.5t-159.5 -50.5t-173.5 -14.5q-190 0 -340 43l34 215q124 -39 273 -39q173 0 256.5 67t83.5 207zM795 1532v-260h-291v260h291z" />
    <glyph glyph-name="Gcommaaccent" unicode="&#x122;" horiz-adv-x="1505" 
d="M1317 1403l-82 -242q-63 37 -155.5 61.5t-178.5 24.5q-226 0 -360.5 -140t-134.5 -386q0 -141 54.5 -254.5t164.5 -182.5t258 -69q110 0 178 29v364h-248v240h545v-770q-209 -103 -498 -103q-226 0 -398 95.5t-264 266t-92 390.5q0 166 52.5 304.5t151 240t249.5 158.5
t340 57q233 0 418 -84zM973 -117l-248 -332h-217l156 332h309z" />
    <glyph glyph-name="gcommaaccent" unicode="&#x123;" horiz-adv-x="1312" 
d="M383 569q0 -145 62 -234t182 -89q122 0 195 92t73 231q0 138 -73 228t-195 90q-120 0 -182 -87.5t-62 -230.5zM885 94v76h-4q-109 -141 -314 -141q-145 0 -254 71.5t-165 193.5t-56 275q0 154 57 275t166 191.5t252 70.5q203 0 314 -143h4v118h284v-981
q0 -112 -34 -199.5t-90 -143t-134 -91.5t-159.5 -50.5t-173.5 -14.5q-190 0 -340 43l34 215q124 -39 273 -39q173 0 256.5 67t83.5 207zM444 1235l248 336h219l-159 -336h-308z" />
    <glyph glyph-name="Hcircumflex" unicode="&#x124;" horiz-adv-x="1476" 
d="M160 0v1462h299v-596h561v596h299v-1462h-299v627h-561v-627h-299zM1120 1556h-235l-150 183l-149 -183h-238l238 312h299z" />
    <glyph glyph-name="hcircumflex" unicode="&#x125;" horiz-adv-x="1294" 
d="M143 1505h291v-569h4q42 81 128.5 125.5t193.5 44.5q183 0 291 -107t108 -286v-713h-291v604q0 142 -43 212.5t-157 70.5q-96 0 -165 -74t-69 -227v-586h-291v1505zM967 1581h-236l-149 182l-150 -182h-237l237 311h299z" />
    <glyph glyph-name="Hbar" unicode="&#x126;" horiz-adv-x="1476" 
d="M160 0v1124h-125v172h125v166h299v-166h561v166h299v-166h125v-172h-125v-1124h-299v627h-561v-627h-299zM459 866h561v258h-561v-258z" />
    <glyph glyph-name="hbar" unicode="&#x127;" horiz-adv-x="1294" 
d="M143 1505h291v-139h195v-172h-195v-258h4q42 81 128.5 125.5t193.5 44.5q183 0 291 -107t108 -286v-713h-291v604q0 142 -43 212.5t-157 70.5q-96 0 -165 -74t-69 -227v-586h-291v1194h-106v172h106v139z" />
    <glyph glyph-name="Itilde" unicode="&#x128;" horiz-adv-x="618" 
d="M160 0v1462h299v-1462h-299zM346 1800q43 -28 66 -37.5t47 -9.5q62 0 65 113h162q-5 -140 -55 -222.5t-152 -82.5q-41 0 -77.5 12t-96.5 47q-55 32 -80.5 42.5t-46.5 10.5q-66 0 -72 -110h-161q7 145 64 224t149 79q49 0 87.5 -13.5t100.5 -52.5z" />
    <glyph glyph-name="itilde" unicode="&#x129;" horiz-adv-x="577" 
d="M332 1481q45 -28 67 -37.5t45 -9.5q63 0 66 112h162q-5 -140 -55 -221.5t-152 -81.5q-42 0 -78.5 11.5t-95.5 45.5q-91 54 -127 54q-65 0 -72 -111h-162q7 145 64 224t149 79q50 0 89 -13.5t100 -51.5zM143 1081h293v-1081h-293v1081z" />
    <glyph glyph-name="Imacron" unicode="&#x12a;" horiz-adv-x="618" 
d="M160 0v1462h299v-1462h-299zM606 1817v-187h-581v187h581z" />
    <glyph glyph-name="imacron" unicode="&#x12b;" horiz-adv-x="577" 
d="M590 1493v-186h-582v186h582zM143 1081h293v-1081h-293v1081z" />
    <glyph glyph-name="Ibreve" unicode="&#x12c;" horiz-adv-x="618" 
d="M160 0v1462h299v-1462h-299zM307 1731q154 0 158 145h194q-2 -65 -22 -120t-60 -100.5t-109 -71t-161 -25.5q-89 0 -157 26t-108.5 71t-60.5 100t-22 120h195q0 -64 36.5 -104.5t116.5 -40.5z" />
    <glyph glyph-name="ibreve" unicode="&#x12d;" horiz-adv-x="577" 
d="M295 1405q154 0 158 143h194q-2 -64 -22 -119t-60 -100.5t-109 -71.5t-161 -26q-89 0 -157 26t-108.5 71.5t-60.5 100.5t-22 119h194q0 -63 36.5 -103t117.5 -40zM143 1081h293v-1081h-293v1081z" />
    <glyph glyph-name="Iogonek" unicode="&#x12e;" horiz-adv-x="618" 
d="M160 0v1462h299v-1462h-92q-73 -77 -99 -121.5t-26 -81.5q0 -63 75 -63q56 0 111 18l25 -145q-77 -29 -170 -29q-46 0 -85 8t-76 26.5t-58 55t-21 88.5q0 65 36 122.5t120 121.5h-39z" />
    <glyph glyph-name="iogonek" unicode="&#x12f;" horiz-adv-x="577" 
d="M143 1081h291v-1081h-59q-73 -77 -99 -121.5t-26 -81.5q0 -63 76 -63q55 0 110 18l25 -145q-77 -29 -170 -29q-46 0 -85 8t-76 26.5t-58 55t-21 88.5q0 65 36 122.5t120 121.5h-64v1081zM143 1499h291v-252h-291v252z" />
    <glyph glyph-name="Idotaccent" unicode="&#x130;" horiz-adv-x="618" 
d="M160 0v1462h299v-1462h-299zM459 1853v-258h-291v258h291z" />
    <glyph glyph-name="dotlessi" unicode="&#x131;" horiz-adv-x="577" 
d="M143 1081h293v-1081h-293v1081z" />
    <glyph glyph-name="Jcircumflex" unicode="&#x134;" horiz-adv-x="737" 
d="M596 1462v-1095q0 -199 -104.5 -295.5t-323.5 -96.5q-82 0 -168 11v239q62 -10 121 -10q91 0 133.5 42t42.5 142v1063h299zM829 1556h-235l-150 183l-149 -183h-238l238 312h299z" />
    <glyph glyph-name="jcircumflex" unicode="&#x135;" horiz-adv-x="577" 
d="M434 1081v-1130q0 -172 -85.5 -261t-289.5 -89q-82 0 -139 8v219q49 -8 92 -8q75 0 103 38t28 128v1095h291zM629 1237h-215l-138 211l-135 -211h-213l207 336h287z" />
    <glyph glyph-name="Kcommaaccent" unicode="&#x136;" horiz-adv-x="1331" 
d="M944 1462h356l-520 -706l547 -756h-369l-495 727h-4v-727h-299v1462h299v-686h4zM827 -117l-247 -332h-218l156 332h309z" />
    <glyph glyph-name="kcommaaccent" unicode="&#x137;" horiz-adv-x="1173" 
d="M797 1081h346l-400 -483l424 -598h-350l-379 567h-4v-567h-291v1505h291v-891h4zM756 -117l-248 -332h-217l155 332h310z" />
    <glyph glyph-name="kgreenlandic" unicode="&#x138;" horiz-adv-x="1173" 
d="M797 1081h346l-400 -483l424 -598h-350l-379 567h-4v-567h-291v1081h291v-467h4z" />
    <glyph glyph-name="Lacute" unicode="&#x139;" horiz-adv-x="1067" 
d="M160 0v1462h299v-1222h581v-240h-880zM709 1860l-281 -297h-235l194 297h322z" />
    <glyph glyph-name="lacute" unicode="&#x13a;" horiz-adv-x="577" 
d="M143 1505h291v-1505h-291v1505zM680 1896l-281 -297h-235l194 297h322z" />
    <glyph glyph-name="Lcommaaccent" unicode="&#x13b;" horiz-adv-x="1067" 
d="M160 0v1462h299v-1222h581v-240h-880zM750 -117l-248 -332h-217l155 332h310z" />
    <glyph glyph-name="lcommaaccent" unicode="&#x13c;" horiz-adv-x="577" 
d="M143 1505h291v-1505h-291v1505zM446 -117l-247 -332h-217l155 332h309z" />
    <glyph glyph-name="Lcaron" unicode="&#x13d;" horiz-adv-x="1067" 
d="M160 0v1462h299v-1222h581v-240h-880zM821 1573l-71 -336h-162l30 336h203z" />
    <glyph glyph-name="lcaron" unicode="&#x13e;" horiz-adv-x="577" 
d="M143 1505h291v-1505h-291v1505zM754 1573l-72 -336h-162l31 336h203z" />
    <glyph glyph-name="Ldot" unicode="&#x13f;" horiz-adv-x="1112" 
d="M160 0v1462h299v-1222h581v-240h-880zM1014 999v-260h-291v260h291z" />
    <glyph glyph-name="ldot" unicode="&#x140;" horiz-adv-x="860" 
d="M143 1505h291v-1505h-291v1505zM860 942v-260h-291v260h291z" />
    <glyph glyph-name="Lslash" unicode="&#x141;" horiz-adv-x="1067" 
d="M160 0v635l-137 -90v188l137 88v641h299v-489l211 139v-188l-211 -142v-542h581v-240h-880z" />
    <glyph glyph-name="lslash" unicode="&#x142;" horiz-adv-x="620" 
d="M162 1505h291v-508l139 97v-191l-139 -96v-807h-291v657l-135 -94v193l135 90v659z" />
    <glyph glyph-name="Nacute" unicode="&#x143;" horiz-adv-x="1509" 
d="M621 1462l444 -1167h4v1167h281v-1462h-447l-461 1184h-4v-1184h-278v1462h461zM1106 1860l-281 -297h-235l194 297h322z" />
    <glyph glyph-name="nacute" unicode="&#x144;" horiz-adv-x="1294" 
d="M143 1081h285v-145h4q40 81 130 125.5t198 44.5q183 0 291 -107t108 -286v-713h-291v604q0 142 -43 212.5t-157 70.5q-96 0 -165 -74t-69 -227v-586h-291v1081zM1022 1573l-272 -336h-220l187 336h305z" />
    <glyph glyph-name="Ncommaaccent" unicode="&#x145;" horiz-adv-x="1509" 
d="M621 1462l444 -1167h4v1167h281v-1462h-447l-461 1184h-4v-1184h-278v1462h461zM973 -117l-248 -332h-217l156 332h309z" />
    <glyph glyph-name="ncommaaccent" unicode="&#x146;" horiz-adv-x="1294" 
d="M143 1081h285v-145h4q40 81 130 125.5t198 44.5q183 0 291 -107t108 -286v-713h-291v604q0 142 -43 212.5t-157 70.5q-96 0 -165 -74t-69 -227v-586h-291v1081zM807 -117l-248 -332h-217l156 332h309z" />
    <glyph glyph-name="Ncaron" unicode="&#x147;" horiz-adv-x="1509" 
d="M621 1462l444 -1167h4v1167h281v-1462h-447l-461 1184h-4v-1184h-278v1462h461zM373 1868h233l150 -182l151 182h236l-236 -312h-299z" />
    <glyph glyph-name="ncaron" unicode="&#x148;" horiz-adv-x="1294" 
d="M143 1081h285v-145h4q40 81 130 125.5t198 44.5q183 0 291 -107t108 -286v-713h-291v604q0 142 -43 212.5t-157 70.5q-96 0 -165 -74t-69 -227v-586h-291v1081zM336 1571h215l135 -213l135 213h215l-207 -336h-286z" />
    <glyph glyph-name="Eng" unicode="&#x14a;" horiz-adv-x="1509" 
d="M621 1462l444 -1167h4v1167h281v-1528q0 -165 -86.5 -249t-274.5 -84q-80 0 -155 10v215q52 -6 92 -6q71 0 102 36t31 109v35h-156l-461 1184h-4v-1184h-278v1462h461z" />
    <glyph glyph-name="eng" unicode="&#x14b;" horiz-adv-x="1294" 
d="M143 1081h285v-145h4q40 81 130 125.5t198 44.5q183 0 291 -107t108 -286v-779q0 -165 -86 -249t-272 -84q-84 0 -156 10v215q49 -6 92 -6q75 0 103 38t28 128v618q0 142 -43 212.5t-157 70.5q-96 0 -165 -74t-69 -227v-586h-291v1081z" />
    <glyph glyph-name="Omacron" unicode="&#x14c;" horiz-adv-x="1591" 
d="M1481 729q0 -165 -45.5 -303t-131 -238.5t-216 -156.5t-293.5 -56q-162 0 -292.5 56t-216 156.5t-131.5 238.5t-46 303q0 166 45.5 304.5t130.5 239.5t216 157.5t294 56.5q218 0 374.5 -98.5t234 -268t77.5 -391.5zM1182 729q0 110 -23.5 202.5t-70 164t-121.5 111.5
t-172 40t-172 -40t-121.5 -111.5t-70 -164t-23.5 -202.5q0 -109 24 -201t70.5 -162.5t122 -110.5t172.5 -40q98 0 173 40t120.5 110.5t68.5 162.5t23 201zM1085 1817v-187h-581v187h581z" />
    <glyph glyph-name="omacron" unicode="&#x14d;" horiz-adv-x="1290" 
d="M1196 543q0 -262 -150 -415t-401 -153q-253 0 -402 152.5t-149 415.5q0 262 148.5 412.5t402.5 150.5t402.5 -150.5t148.5 -412.5zM905 543q0 158 -66 251t-194 93t-194 -93t-66 -251q0 -162 66 -255t194 -93q129 0 194.5 92.5t65.5 255.5zM934 1493v-186h-582v186h582z
" />
    <glyph glyph-name="Obreve" unicode="&#x14e;" horiz-adv-x="1591" 
d="M1481 729q0 -165 -45.5 -303t-131 -238.5t-216 -156.5t-293.5 -56q-162 0 -292.5 56t-216 156.5t-131.5 238.5t-46 303q0 166 45.5 304.5t130.5 239.5t216 157.5t294 56.5q218 0 374.5 -98.5t234 -268t77.5 -391.5zM1182 729q0 110 -23.5 202.5t-70 164t-121.5 111.5
t-172 40t-172 -40t-121.5 -111.5t-70 -164t-23.5 -202.5q0 -109 24 -201t70.5 -162.5t122 -110.5t172.5 -40q98 0 173 40t120.5 110.5t68.5 162.5t23 201zM793 1731q153 0 157 145h195q-2 -65 -22 -120t-60 -100.5t-109 -71t-161 -25.5q-89 0 -157 26t-108.5 71t-61 100
t-22.5 120h195q0 -63 37 -104t117 -41z" />
    <glyph glyph-name="obreve" unicode="&#x14f;" horiz-adv-x="1290" 
d="M1196 543q0 -262 -150 -415t-401 -153q-253 0 -402 152.5t-149 415.5q0 262 148.5 412.5t402.5 150.5t402.5 -150.5t148.5 -412.5zM905 543q0 158 -66 251t-194 93t-194 -93t-66 -251q0 -162 66 -255t194 -93q129 0 194.5 92.5t65.5 255.5zM641 1405q154 0 158 143h194
q-2 -64 -22 -119t-60 -100.5t-109 -71.5t-161 -26q-89 0 -157 26t-108.5 71.5t-60.5 100.5t-22 119h194q0 -63 36.5 -103t117.5 -40z" />
    <glyph glyph-name="Ohungarumlaut" unicode="&#x150;" horiz-adv-x="1591" 
d="M1481 729q0 -165 -45.5 -303t-131 -238.5t-216 -156.5t-293.5 -56q-162 0 -292.5 56t-216 156.5t-131.5 238.5t-46 303q0 166 45.5 304.5t130.5 239.5t216 157.5t294 56.5q218 0 374.5 -98.5t234 -268t77.5 -391.5zM1182 729q0 110 -23.5 202.5t-70 164t-121.5 111.5
t-172 40t-172 -40t-121.5 -111.5t-70 -164t-23.5 -202.5q0 -109 24 -201t70.5 -162.5t122 -110.5t172.5 -40q98 0 173 40t120.5 110.5t68.5 162.5t23 201zM1268 1862l-230 -299h-217l183 299h264zM895 1862l-217 -299h-209l174 299h252z" />
    <glyph glyph-name="ohungarumlaut" unicode="&#x151;" horiz-adv-x="1290" 
d="M1196 543q0 -262 -150 -415t-401 -153q-253 0 -402 152.5t-149 415.5q0 262 148.5 412.5t402.5 150.5t402.5 -150.5t148.5 -412.5zM905 543q0 158 -66 251t-194 93t-194 -93t-66 -251q0 -162 66 -255t194 -93q129 0 194.5 92.5t65.5 255.5zM1184 1573l-238 -336h-215
l191 336h262zM817 1573l-225 -336h-207l180 336h252z" />
    <glyph glyph-name="OE" unicode="&#x152;" horiz-adv-x="2021" 
d="M109 725q0 345 189.5 541t543.5 196h1075v-239h-588v-357h541v-239h-541v-387h604v-240h-1091q-356 0 -544.5 191.5t-188.5 533.5zM1030 240v983h-145q-242 0 -359.5 -131t-117.5 -363q0 -229 117.5 -359t359.5 -130h145z" />
    <glyph glyph-name="oe" unicode="&#x153;" horiz-adv-x="2015" 
d="M1929 455h-741q13 -130 109.5 -195t240.5 -65q154 0 264 38l33 -213q-139 -45 -334 -45q-150 0 -268 52t-186 151q-65 -101 -172 -152t-242 -51q-246 0 -392.5 153t-146.5 415t146.5 412.5t392.5 150.5q281 0 414 -197q63 96 164.5 146.5t230.5 50.5q234 0 360.5 -143
t126.5 -392v-116zM907 543q0 159 -65 251.5t-197 92.5q-130 0 -195 -92.5t-65 -251.5q0 -164 64.5 -256t195.5 -92q132 0 197 92t65 256zM1438 909q-102 0 -170 -69t-80 -183h469v5q0 114 -59 180.5t-160 66.5z" />
    <glyph glyph-name="Racute" unicode="&#x154;" horiz-adv-x="1337" 
d="M160 0v1462h567q82 0 154 -12.5t138 -41.5t113 -73.5t75 -113.5t28 -156q0 -128 -64.5 -213.5t-183.5 -126.5v-4q70 -25 108 -79t76 -185q20 -69 42.5 -144.5t50 -167t43.5 -145.5h-322q-9 34 -46.5 182t-51.5 201q-19 65 -35 100t-47.5 62t-79.5 36t-127 9h-139v-590
h-299zM459 1223v-394h196q134 0 207.5 45t73.5 152q0 197 -272 197h-205zM1022 1860l-281 -297h-235l194 297h322z" />
    <glyph glyph-name="racute" unicode="&#x155;" horiz-adv-x="813" 
d="M795 1102l-15 -223q-36 8 -84 8q-118 0 -190 -87t-72 -278v-522h-291v1081h285v-141h4q78 166 283 166q30 0 80 -4zM729 1573l-272 -336h-219l186 336h305z" />
    <glyph glyph-name="Rcommaaccent" unicode="&#x156;" horiz-adv-x="1337" 
d="M160 0v1462h567q82 0 154 -12.5t138 -41.5t113 -73.5t75 -113.5t28 -156q0 -128 -64.5 -213.5t-183.5 -126.5v-4q70 -25 108 -79t76 -185q20 -69 42.5 -144.5t50 -167t43.5 -145.5h-322q-9 34 -46.5 182t-51.5 201q-19 65 -35 100t-47.5 62t-79.5 36t-127 9h-139v-590
h-299zM459 1223v-394h196q134 0 207.5 45t73.5 152q0 197 -272 197h-205zM842 -117l-248 -332h-217l155 332h310z" />
    <glyph glyph-name="rcommaaccent" unicode="&#x157;" horiz-adv-x="813" 
d="M795 1102l-15 -223q-36 8 -84 8q-118 0 -190 -87t-72 -278v-522h-291v1081h285v-141h4q78 166 283 166q30 0 80 -4zM473 -117l-248 -332h-217l156 332h309z" />
    <glyph glyph-name="Rcaron" unicode="&#x158;" horiz-adv-x="1337" 
d="M160 0v1462h567q82 0 154 -12.5t138 -41.5t113 -73.5t75 -113.5t28 -156q0 -128 -64.5 -213.5t-183.5 -126.5v-4q70 -25 108 -79t76 -185q20 -69 42.5 -144.5t50 -167t43.5 -145.5h-322q-9 34 -46.5 182t-51.5 201q-19 65 -35 100t-47.5 62t-79.5 36t-127 9h-139v-590
h-299zM459 1223v-394h196q134 0 207.5 45t73.5 152q0 197 -272 197h-205zM276 1868h234l149 -182l152 182h236l-236 -312h-299z" />
    <glyph glyph-name="rcaron" unicode="&#x159;" horiz-adv-x="813" 
d="M795 1102l-15 -223q-36 8 -84 8q-118 0 -190 -87t-72 -278v-522h-291v1081h285v-141h4q78 166 283 166q30 0 80 -4zM80 1571h215l135 -213l135 213h215l-207 -336h-286z" />
    <glyph glyph-name="Sacute" unicode="&#x15a;" horiz-adv-x="1163" 
d="M993 1434l-51 -240q-146 53 -313 53q-65 0 -114.5 -12.5t-84.5 -49t-35 -93.5q0 -73 61.5 -121.5t215.5 -110.5q81 -33 136 -61t110 -68t87 -84t52 -105t20 -136q0 -106 -43.5 -190t-119 -136t-171.5 -78.5t-206 -26.5q-238 0 -445 74l53 244q193 -78 381 -78
q123 0 187.5 43t64.5 127q0 78 -64 129t-222 113q-94 38 -161.5 77t-123 91t-83.5 119t-28 149q0 88 30 160t79.5 120.5t116.5 81.5t139 47.5t149 14.5q222 0 383 -53zM975 1860l-281 -297h-235l194 297h322z" />
    <glyph glyph-name="sacute" unicode="&#x15b;" horiz-adv-x="1007" 
d="M870 1044l-63 -215q-143 58 -295 58q-143 0 -143 -88q0 -45 42 -75.5t158 -66.5q184 -58 272.5 -137.5t88.5 -214.5q0 -71 -26.5 -128.5t-69.5 -94.5t-102 -61.5t-121.5 -35t-129.5 -10.5q-101 0 -211 20.5t-194 55.5l57 221q85 -36 181 -56.5t165 -20.5q87 0 130.5 22
t43.5 74q0 46 -48.5 77t-178.5 72q-174 57 -253 135.5t-79 194.5q0 85 36 151.5t97 105.5t134.5 59t154.5 20q194 0 354 -62zM881 1573l-273 -336h-219l186 336h306z" />
    <glyph glyph-name="Scircumflex" unicode="&#x15c;" horiz-adv-x="1163" 
d="M993 1434l-51 -240q-146 53 -313 53q-65 0 -114.5 -12.5t-84.5 -49t-35 -93.5q0 -73 61.5 -121.5t215.5 -110.5q81 -33 136 -61t110 -68t87 -84t52 -105t20 -136q0 -106 -43.5 -190t-119 -136t-171.5 -78.5t-206 -26.5q-238 0 -445 74l53 244q193 -78 381 -78
q123 0 187.5 43t64.5 127q0 78 -64 129t-222 113q-94 38 -161.5 77t-123 91t-83.5 119t-28 149q0 88 30 160t79.5 120.5t116.5 81.5t139 47.5t149 14.5q222 0 383 -53zM973 1556h-236l-149 183l-150 -183h-237l237 312h299z" />
    <glyph glyph-name="scircumflex" unicode="&#x15d;" horiz-adv-x="1007" 
d="M870 1044l-63 -215q-143 58 -295 58q-143 0 -143 -88q0 -45 42 -75.5t158 -66.5q184 -58 272.5 -137.5t88.5 -214.5q0 -71 -26.5 -128.5t-69.5 -94.5t-102 -61.5t-121.5 -35t-129.5 -10.5q-101 0 -211 20.5t-194 55.5l57 221q85 -36 181 -56.5t165 -20.5q87 0 130.5 22
t43.5 74q0 46 -48.5 77t-178.5 72q-174 57 -253 135.5t-79 194.5q0 85 36 151.5t97 105.5t134.5 59t154.5 20q194 0 354 -62zM858 1237h-215l-137 211l-135 -211h-213l207 336h286z" />
    <glyph glyph-name="Scedilla" unicode="&#x15e;" horiz-adv-x="1163" 
d="M993 1434l-51 -240q-146 53 -313 53q-65 0 -114.5 -12.5t-84.5 -49t-35 -93.5q0 -73 61.5 -121.5t215.5 -110.5q81 -33 136 -61t110 -68t87 -84t52 -105t20 -136q0 -187 -125 -295.5t-323 -128.5l-19 -74q14 2 43 2q77 0 129 -44.5t52 -119.5q0 -97 -72.5 -143.5
t-196.5 -46.5q-95 0 -147 12l14 123q52 -8 113 -8q110 0 110 55q0 51 -102 51q-55 0 -107 -6l27 194q-207 10 -381 72l53 244q193 -78 381 -78q123 0 187.5 43t64.5 127q0 78 -64 129t-222 113q-94 38 -161.5 77t-123 91t-83.5 119t-28 149q0 88 30 160t79.5 120.5
t116.5 81.5t139 47.5t149 14.5q222 0 383 -53z" />
    <glyph glyph-name="scedilla" unicode="&#x15f;" horiz-adv-x="1007" 
d="M870 1044l-63 -215q-143 58 -295 58q-143 0 -143 -88q0 -45 42 -75.5t158 -66.5q184 -58 272.5 -137.5t88.5 -214.5q0 -78 -30.5 -138.5t-83.5 -98t-116 -59t-137 -29.5l-18 -72q14 2 43 2q76 0 128 -44.5t52 -119.5q0 -97 -72 -143.5t-196 -46.5q-96 0 -148 12l15 123
q52 -8 112 -8q111 0 111 55q0 51 -103 51q-53 0 -106 -6l27 194q-188 13 -332 74l57 221q85 -36 181 -56.5t165 -20.5q87 0 130.5 22t43.5 74q0 46 -48.5 77t-178.5 72q-174 57 -253 135.5t-79 194.5q0 85 36 151.5t97 105.5t134.5 59t154.5 20q194 0 354 -62z" />
    <glyph glyph-name="Scaron" unicode="&#x160;" horiz-adv-x="1163" 
d="M993 1434l-51 -240q-146 53 -313 53q-65 0 -114.5 -12.5t-84.5 -49t-35 -93.5q0 -73 61.5 -121.5t215.5 -110.5q81 -33 136 -61t110 -68t87 -84t52 -105t20 -136q0 -106 -43.5 -190t-119 -136t-171.5 -78.5t-206 -26.5q-238 0 -445 74l53 244q193 -78 381 -78
q123 0 187.5 43t64.5 127q0 78 -64 129t-222 113q-94 38 -161.5 77t-123 91t-83.5 119t-28 149q0 88 30 160t79.5 120.5t116.5 81.5t139 47.5t149 14.5q222 0 383 -53zM211 1868h233l150 -182l151 182h236l-236 -312h-299z" />
    <glyph glyph-name="scaron" unicode="&#x161;" horiz-adv-x="1007" 
d="M870 1044l-63 -215q-143 58 -295 58q-143 0 -143 -88q0 -45 42 -75.5t158 -66.5q184 -58 272.5 -137.5t88.5 -214.5q0 -71 -26.5 -128.5t-69.5 -94.5t-102 -61.5t-121.5 -35t-129.5 -10.5q-101 0 -211 20.5t-194 55.5l57 221q85 -36 181 -56.5t165 -20.5q87 0 130.5 22
t43.5 74q0 46 -48.5 77t-178.5 72q-174 57 -253 135.5t-79 194.5q0 85 36 151.5t97 105.5t134.5 59t154.5 20q194 0 354 -62zM170 1571h215l135 -213l135 213h215l-206 -336h-287z" />
    <glyph glyph-name="uni0162" unicode="&#x162;" horiz-adv-x="1112" 
d="M410 0v1223h-390v239h1070v-239h-381v-1223h-299zM719 -117l-248 -332h-217l156 332h309z" />
    <glyph glyph-name="uni0163" unicode="&#x163;" horiz-adv-x="753" 
d="M20 862v219h166v287h291v-287h225v-219h-225v-483q0 -109 23 -139.5t100 -30.5q38 0 96 8v-217q-92 -10 -188 -10q-100 0 -164 19t-98.5 61.5t-47 96t-12.5 136.5v559h-166zM610 -117l-248 -332h-217l156 332h309z" />
    <glyph glyph-name="Tcaron" unicode="&#x164;" horiz-adv-x="1112" 
d="M410 0v1223h-390v239h1070v-239h-381v-1223h-299zM172 1868h234l149 -182l152 182h235l-235 -312h-299z" />
    <glyph glyph-name="tcaron" unicode="&#x165;" horiz-adv-x="753" 
d="M20 862v219h166v287h291v-287h225v-219h-225v-483q0 -109 23 -139.5t100 -30.5q38 0 96 8v-217q-92 -10 -188 -10q-100 0 -164 19t-98.5 61.5t-47 96t-12.5 136.5v559h-166zM825 1573l-71 -336h-162l31 336h202z" />
    <glyph glyph-name="Tbar" unicode="&#x166;" horiz-adv-x="1112" 
d="M410 0v729h-199v160h199v334h-390v239h1070v-239h-381v-334h196v-160h-196v-729h-299z" />
    <glyph glyph-name="tbar" unicode="&#x167;" horiz-adv-x="753" 
d="M20 862v219h166v287h291v-287h225v-219h-225v-223h174v-164h-174v-96q0 -109 23 -139.5t100 -30.5q38 0 96 8v-217q-92 -10 -188 -10q-100 0 -164 19t-98.5 61.5t-47 96t-12.5 136.5v172h-141v164h141v223h-166z" />
    <glyph glyph-name="Utilde" unicode="&#x168;" horiz-adv-x="1454" 
d="M1311 1462v-1030q0 -145 -77 -249.5t-208 -156t-301 -51.5q-168 0 -298 51.5t-207 156t-77 249.5v1030h299v-993q0 -129 75.5 -191.5t205.5 -62.5q129 0 209 64t80 190v993h299zM770 1800q43 -28 66 -37.5t47 -9.5q62 0 65 113h162q-5 -140 -55 -222.5t-152 -82.5
q-41 0 -77.5 12t-96.5 47q-55 32 -80.5 42.5t-46.5 10.5q-66 0 -72 -110h-161q7 145 64 224t149 79q49 0 87.5 -13.5t100.5 -52.5z" />
    <glyph glyph-name="utilde" unicode="&#x169;" horiz-adv-x="1294" 
d="M1151 0h-285v145h-4q-40 -81 -128.5 -125.5t-196.5 -44.5q-183 0 -292.5 107.5t-109.5 286.5v712h291v-604q0 -140 45 -211t158 -71q45 0 84.5 16.5t73 50.5t53.5 94t20 140v585h291v-1081zM680 1481q45 -28 67.5 -37.5t45.5 -9.5q62 0 65 112h162q-5 -140 -55 -221.5
t-152 -81.5q-42 0 -78.5 11.5t-95.5 45.5q-91 54 -127 54q-65 0 -72 -111h-161q7 145 64 224t149 79q49 0 87.5 -13.5t100.5 -51.5z" />
    <glyph glyph-name="Umacron" unicode="&#x16a;" horiz-adv-x="1454" 
d="M1311 1462v-1030q0 -145 -77 -249.5t-208 -156t-301 -51.5q-168 0 -298 51.5t-207 156t-77 249.5v1030h299v-993q0 -129 75.5 -191.5t205.5 -62.5q129 0 209 64t80 190v993h299zM1020 1817v-187h-582v187h582z" />
    <glyph glyph-name="umacron" unicode="&#x16b;" horiz-adv-x="1294" 
d="M1151 0h-285v145h-4q-40 -81 -128.5 -125.5t-196.5 -44.5q-183 0 -292.5 107.5t-109.5 286.5v712h291v-604q0 -140 45 -211t158 -71q45 0 84.5 16.5t73 50.5t53.5 94t20 140v585h291v-1081zM930 1493v-186h-582v186h582z" />
    <glyph glyph-name="Ubreve" unicode="&#x16c;" horiz-adv-x="1454" 
d="M1311 1462v-1030q0 -145 -77 -249.5t-208 -156t-301 -51.5q-168 0 -298 51.5t-207 156t-77 249.5v1030h299v-993q0 -129 75.5 -191.5t205.5 -62.5q129 0 209 64t80 190v993h299zM731 1731q154 0 158 145h194q-2 -65 -22 -120t-60 -100.5t-109 -71t-161 -25.5
q-89 0 -157 26t-108.5 71t-60.5 100t-22 120h195q0 -64 36.5 -104.5t116.5 -40.5z" />
    <glyph glyph-name="ubreve" unicode="&#x16d;" horiz-adv-x="1294" 
d="M1151 0h-285v145h-4q-40 -81 -128.5 -125.5t-196.5 -44.5q-183 0 -292.5 107.5t-109.5 286.5v712h291v-604q0 -140 45 -211t158 -71q45 0 84.5 16.5t73 50.5t53.5 94t20 140v585h291v-1081zM633 1405q154 0 158 143h194q-2 -64 -22 -119t-60 -100.5t-109 -71.5t-161 -26
q-89 0 -157 26t-108.5 71.5t-60.5 100.5t-22 119h194q0 -63 36.5 -103t117.5 -40z" />
    <glyph glyph-name="Uring" unicode="&#x16e;" horiz-adv-x="1454" 
d="M1311 1462v-1030q0 -145 -77 -249.5t-208 -156t-301 -51.5q-168 0 -298 51.5t-207 156t-77 249.5v1030h299v-993q0 -129 75.5 -191.5t205.5 -62.5q129 0 209 64t80 190v993h299zM729 1944q93 0 154 -62.5t61 -155.5q0 -95 -61 -156t-156 -61q-93 0 -154 61t-61 156
q0 92 62 155t155 63zM727 1841q-47 0 -78 -33.5t-31 -81.5q0 -51 30.5 -82.5t78.5 -31.5t79.5 31.5t31.5 80.5q0 50 -32.5 83.5t-78.5 33.5z" />
    <glyph glyph-name="uring" unicode="&#x16f;" horiz-adv-x="1294" 
d="M1151 0h-285v145h-4q-40 -81 -128.5 -125.5t-196.5 -44.5q-183 0 -292.5 107.5t-109.5 286.5v712h291v-604q0 -140 45 -211t158 -71q45 0 84.5 16.5t73 50.5t53.5 94t20 140v585h291v-1081zM641 1636q93 0 154 -62t61 -155q0 -96 -60.5 -156.5t-156.5 -60.5
q-93 0 -154 60.5t-61 156.5q0 91 62 154t155 63zM639 1532q-47 0 -78 -32t-31 -81q0 -51 31 -83.5t78 -32.5t79 32.5t32 81.5q0 50 -32 82.5t-79 32.5z" />
    <glyph glyph-name="Uhungarumlaut" unicode="&#x170;" horiz-adv-x="1454" 
d="M1311 1462v-1030q0 -145 -77 -249.5t-208 -156t-301 -51.5q-168 0 -298 51.5t-207 156t-77 249.5v1030h299v-993q0 -129 75.5 -191.5t205.5 -62.5q129 0 209 64t80 190v993h299zM1196 1862l-229 -299h-217l182 299h264zM823 1862l-217 -299h-209l174 299h252z" />
    <glyph glyph-name="uhungarumlaut" unicode="&#x171;" horiz-adv-x="1294" 
d="M1151 0h-285v145h-4q-40 -81 -128.5 -125.5t-196.5 -44.5q-183 0 -292.5 107.5t-109.5 286.5v712h291v-604q0 -140 45 -211t158 -71q45 0 84.5 16.5t73 50.5t53.5 94t20 140v585h291v-1081zM1167 1573l-237 -336h-215l190 336h262zM801 1573l-226 -336h-206l180 336h252z
" />
    <glyph glyph-name="Uogonek" unicode="&#x172;" horiz-adv-x="1454" 
d="M1311 1462v-1030q0 -191 -127.5 -306.5t-341.5 -141.5q-63 -67 -85 -109t-22 -78q0 -63 76 -63q56 0 111 18l24 -145q-77 -29 -170 -29q-46 0 -85 8t-75.5 26.5t-57.5 55t-21 88.5q0 60 29.5 112.5t97.5 108.5q-234 14 -377.5 133t-143.5 322v1030h299v-993
q0 -129 75.5 -191.5t205.5 -62.5q129 0 209 64t80 190v993h299z" />
    <glyph glyph-name="uogonek" unicode="&#x173;" horiz-adv-x="1302" 
d="M1151 0h-117q-73 -77 -99 -121.5t-26 -81.5q0 -63 76 -63q56 0 111 18l24 -145q-77 -29 -170 -29q-46 0 -85 8t-75.5 26.5t-57.5 55t-21 88.5q0 66 36 123.5t119 120.5v145h-4q-40 -81 -128.5 -125.5t-196.5 -44.5q-183 0 -292.5 107.5t-109.5 286.5v712h291v-604
q0 -140 45 -211t158 -71q45 0 84.5 16.5t73 50.5t53.5 94t20 140v585h291v-1081z" />
    <glyph glyph-name="Wcircumflex" unicode="&#x174;" horiz-adv-x="2007" 
d="M1208 0l-200 1190h-4l-205 -1190h-420l-318 1462h326l209 -1196h4l188 1196h441l182 -1196h4l215 1196h318l-318 -1462h-422zM1391 1556h-236l-149 183l-150 -183h-238l238 312h299z" />
    <glyph glyph-name="wcircumflex" unicode="&#x175;" horiz-adv-x="1769" 
d="M1069 1081l184 -819h4l170 819h297l-284 -1081h-373l-182 831h-4l-183 -831h-370l-283 1081h299l176 -819h4l174 819h371zM1231 1237h-215l-137 211l-136 -211h-213l207 336h287z" />
    <glyph glyph-name="Ycircumflex" unicode="&#x176;" horiz-adv-x="1378" 
d="M541 0v557l-539 905h350l340 -622l342 622h342l-536 -905v-557h-299zM1077 1556h-235l-150 183l-149 -183h-238l238 312h299z" />
    <glyph glyph-name="ycircumflex" unicode="&#x177;" horiz-adv-x="1159" 
d="M322 1081l262 -725h4l260 725h305l-586 -1480h-309l176 424l-426 1056h314zM942 1237h-215l-137 211l-135 -211h-213l207 336h286z" />
    <glyph glyph-name="Ydieresis" unicode="&#x178;" horiz-adv-x="1378" 
d="M541 0v557l-539 905h350l340 -622l342 622h342l-536 -905v-557h-299zM608 1853v-249h-254v249h254zM1030 1853v-249h-256v249h256z" />
    <glyph glyph-name="Zacute" unicode="&#x179;" horiz-adv-x="1234" 
d="M76 240l706 983h-649v239h1006v-239l-707 -983h721v-240h-1077v240zM1010 1860l-281 -297h-235l194 297h322z" />
    <glyph glyph-name="zacute" unicode="&#x17a;" horiz-adv-x="1046" 
d="M74 215l532 647h-489v219h839v-217l-526 -645h549v-219h-905v215zM903 1573l-272 -336h-219l186 336h305z" />
    <glyph glyph-name="Zdotaccent" unicode="&#x17b;" horiz-adv-x="1234" 
d="M76 240l706 983h-649v239h1006v-239l-707 -983h721v-240h-1077v240zM793 1853v-258h-291v258h291z" />
    <glyph glyph-name="zdotaccent" unicode="&#x17c;" horiz-adv-x="1046" 
d="M74 215l532 647h-489v219h839v-217l-526 -645h549v-219h-905v215zM690 1532v-260h-291v260h291z" />
    <glyph glyph-name="Zcaron" unicode="&#x17d;" horiz-adv-x="1234" 
d="M76 240l706 983h-649v239h1006v-239l-707 -983h721v-240h-1077v240zM264 1868h234l149 -182l152 182h235l-235 -312h-299z" />
    <glyph glyph-name="zcaron" unicode="&#x17e;" horiz-adv-x="1046" 
d="M74 215l532 647h-489v219h839v-217l-526 -645h549v-219h-905v215zM209 1571h215l135 -213l135 213h215l-207 -336h-286z" />
    <glyph glyph-name="florin" unicode="&#x192;" horiz-adv-x="1169" 
d="M47 -242l43 219q68 -18 121 -18q63 0 92.5 35.5t42.5 114.5l92 563h-223v215h260l41 229q12 77 36.5 138t70 115t122.5 84t181 30q115 0 200 -29q-29 -94 -63 -219q-54 25 -121 25q-123 0 -151 -170l-35 -203h239v-215h-272l-105 -609q-14 -61 -32 -107.5t-49 -90
t-72 -71.5t-102 -45t-138 -17q-92 0 -178 26z" />
    <glyph glyph-name="Scommaaccent" unicode="&#x218;" horiz-adv-x="1163" 
d="M993 1434l-51 -240q-146 53 -313 53q-65 0 -114.5 -12.5t-84.5 -49t-35 -93.5q0 -73 61.5 -121.5t215.5 -110.5q81 -33 136 -61t110 -68t87 -84t52 -105t20 -136q0 -106 -43.5 -190t-119 -136t-171.5 -78.5t-206 -26.5q-238 0 -445 74l53 244q193 -78 381 -78
q123 0 187.5 43t64.5 127q0 78 -64 129t-222 113q-94 38 -161.5 77t-123 91t-83.5 119t-28 149q0 88 30 160t79.5 120.5t116.5 81.5t139 47.5t149 14.5q222 0 383 -53zM748 -117l-248 -332h-217l155 332h310z" />
    <glyph glyph-name="scommaaccent" unicode="&#x219;" horiz-adv-x="1007" 
d="M870 1044l-63 -215q-143 58 -295 58q-143 0 -143 -88q0 -45 42 -75.5t158 -66.5q184 -58 272.5 -137.5t88.5 -214.5q0 -71 -26.5 -128.5t-69.5 -94.5t-102 -61.5t-121.5 -35t-129.5 -10.5q-101 0 -211 20.5t-194 55.5l57 221q85 -36 181 -56.5t165 -20.5q87 0 130.5 22
t43.5 74q0 46 -48.5 77t-178.5 72q-174 57 -253 135.5t-79 194.5q0 85 36 151.5t97 105.5t134.5 59t154.5 20q194 0 354 -62zM686 -117l-248 -332h-217l156 332h309z" />
    <glyph glyph-name="uni021A" unicode="&#x21a;" horiz-adv-x="1112" 
d="M410 0v1223h-390v239h1070v-239h-381v-1223h-299zM719 -117l-248 -332h-217l156 332h309z" />
    <glyph glyph-name="uni021B" unicode="&#x21b;" horiz-adv-x="753" 
d="M20 862v219h166v287h291v-287h225v-219h-225v-483q0 -109 23 -139.5t100 -30.5q38 0 96 8v-217q-92 -10 -188 -10q-100 0 -164 19t-98.5 61.5t-47 96t-12.5 136.5v559h-166zM610 -117l-248 -332h-217l156 332h309z" />
    <glyph glyph-name="dotlessj" unicode="&#x237;" horiz-adv-x="577" 
d="M434 1081v-1130q0 -172 -85.5 -261t-289.5 -89q-82 0 -139 8v219q49 -8 92 -8q75 0 103 38t28 128v1095h291z" />
    <glyph glyph-name="circumflex" unicode="&#x2c6;" horiz-adv-x="944" 
d="M821 1237h-215l-137 211l-135 -211h-213l207 336h286z" />
    <glyph glyph-name="caron" unicode="&#x2c7;" horiz-adv-x="944" 
d="M121 1571h215l135 -213l135 213h215l-207 -336h-286z" />
    <glyph glyph-name="uni02C9" unicode="&#x2c9;" horiz-adv-x="944" 
d="M766 1626v-186h-582v186h582z" />
    <glyph glyph-name="breve" unicode="&#x2d8;" horiz-adv-x="944" 
d="M469 1405q154 0 158 143h194q-2 -64 -22 -119t-60 -100.5t-109 -71.5t-161 -26q-89 0 -157 26t-108.5 71.5t-60.5 100.5t-22 119h194q0 -63 36.5 -103t117.5 -40z" />
    <glyph glyph-name="dotaccent" unicode="&#x2d9;" horiz-adv-x="944" 
d="M612 1532v-260h-290v260h290z" />
    <glyph glyph-name="ring" unicode="&#x2da;" horiz-adv-x="944" 
d="M473 1636q93 0 154 -62t61 -155q0 -96 -60.5 -156.5t-156.5 -60.5q-93 0 -154 60.5t-61 156.5q0 91 62 154t155 63zM471 1532q-47 0 -78 -32t-31 -81q0 -51 31 -83.5t78 -32.5t79 32.5t32 81.5q0 50 -32 82.5t-79 32.5z" />
    <glyph glyph-name="ogonek" unicode="&#x2db;" horiz-adv-x="944" 
d="M457 16h161q-84 -85 -112.5 -132.5t-28.5 -86.5q0 -63 76 -63q56 0 111 18l24 -145q-77 -29 -170 -29q-46 0 -85 8t-75.5 26.5t-57.5 55t-21 88.5q0 68 41 129t137 131z" />
    <glyph glyph-name="tilde" unicode="&#x2dc;" horiz-adv-x="944" 
d="M504 1481q45 -28 67 -37.5t45 -9.5q63 0 66 112h162q-5 -140 -55 -221.5t-152 -81.5q-42 0 -78.5 11.5t-95.5 45.5q-91 54 -127 54q-65 0 -72 -111h-162q7 145 64 224t149 79q50 0 89 -13.5t100 -51.5z" />
    <glyph glyph-name="hungarumlaut" unicode="&#x2dd;" horiz-adv-x="944" 
d="M922 1573l-238 -336h-215l190 336h263zM555 1573l-225 -336h-207l180 336h252z" />
    <glyph glyph-name="uni0374" unicode="&#x374;" horiz-adv-x="872" 
d="M662 1505l-220 -418h-200l90 418h330z" />
    <glyph glyph-name="uni0375" unicode="&#x375;" horiz-adv-x="872" 
d="M242 -373l219 418h201l-91 -418h-329z" />
    <glyph glyph-name="uni037E" unicode="&#x37e;" horiz-adv-x="739" 
d="M213 760v321h315v-321h-315zM145 -262l86 581h297l-182 -581h-201z" />
    <glyph glyph-name="tonos" unicode="&#x384;" horiz-adv-x="876" 
d="M666 1573l-224 -336h-200l98 336h326z" />
    <glyph glyph-name="dieresistonos" unicode="&#x385;" horiz-adv-x="1245" 
d="M825 1573l-182 -336h-180l43 336h319zM389 1522v-242h-254v242h254zM1110 1522v-242h-256v242h256z" />
    <glyph glyph-name="Alphatonos" unicode="&#x386;" horiz-adv-x="1468" 
d="M449 356l-127 -356h-318l526 1462h410l524 -1462h-321l-131 356h-563zM731 1229l-213 -631h424zM362 1462l-223 -336h-200l98 336h325z" />
    <glyph glyph-name="anoteleia" unicode="&#x387;" horiz-adv-x="624" 
d="M156 457v321h315v-321h-315z" />
    <glyph glyph-name="Epsilontonos" unicode="&#x388;" horiz-adv-x="1144" 
d="M160 0v1462h880v-239h-581v-357h534v-239h-534v-387h600v-240h-899zM20 1462l-223 -336h-200l98 336h325z" />
    <glyph glyph-name="Etatonos" unicode="&#x389;" horiz-adv-x="1478" 
d="M160 0v1462h299v-596h561v596h299v-1462h-299v627h-561v-627h-299zM20 1462l-223 -336h-200l98 336h325z" />
    <glyph glyph-name="Iotatonos" unicode="&#x38a;" horiz-adv-x="618" 
d="M160 0v1462h299v-1462h-299zM20 1462l-223 -336h-200l98 336h325z" />
    <glyph glyph-name="Omicrontonos" unicode="&#x38c;" horiz-adv-x="1589" 
d="M1481 729q0 -165 -45.5 -303t-131 -238.5t-216 -156.5t-293.5 -56q-162 0 -292.5 56t-216 156.5t-131.5 238.5t-46 303q0 166 45.5 304.5t130.5 239.5t216 157.5t294 56.5q218 0 374.5 -98.5t234 -268t77.5 -391.5zM1182 729q0 110 -23.5 202.5t-70 164t-121.5 111.5
t-172 40t-172 -40t-121.5 -111.5t-70 -164t-23.5 -202.5q0 -109 24 -201t70.5 -162.5t122 -110.5t172.5 -40q98 0 173 40t120.5 110.5t68.5 162.5t23 201zM211 1462l-223 -336h-201l98 336h326z" />
    <glyph glyph-name="Upsilontonos" unicode="&#x38e;" horiz-adv-x="1378" 
d="M541 0v557l-539 905h350l340 -622l342 622h342l-536 -905v-557h-299zM-92 1462l-223 -336h-201l98 336h326z" />
    <glyph glyph-name="Omegatonos" unicode="&#x38f;" horiz-adv-x="1591" 
d="M795 1247q-120 0 -203.5 -55.5t-121.5 -148t-38 -214.5q0 -166 61 -276t197 -164v-389h-557v240h307v53q-307 153 -307 543q0 189 77 335t228.5 231t356.5 85q155 0 281 -49t209 -136t128 -206t45 -260q0 -393 -307 -543v-53h307v-240h-557v389q136 54 197 164t61 276
q0 188 -92 303t-272 115zM186 1462l-223 -336h-201l99 336h325z" />
    <glyph glyph-name="iotadieresistonos" unicode="&#x390;" horiz-adv-x="704" 
d="M135 1081h291v-702q0 -76 10.5 -111.5t34.5 -47t76 -11.5q38 0 96 8v-217q-92 -10 -186 -10q-100 0 -164 19t-98.5 61.5t-47 96t-12.5 136.5v778zM549 1573l-182 -336h-181l43 336h320zM113 1522v-242h-254v242h254zM834 1522v-242h-256v242h256z" />
    <glyph glyph-name="Alpha" unicode="&#x391;" horiz-adv-x="1468" 
d="M449 356l-127 -356h-318l526 1462h410l524 -1462h-321l-131 356h-563zM731 1229l-213 -631h424z" />
    <glyph glyph-name="Beta" unicode="&#x392;" horiz-adv-x="1349" 
d="M160 0v1462h610q205 0 327 -91t122 -277q0 -244 -236 -332v-4q272 -76 272 -350q0 -83 -28.5 -155.5t-84.5 -129.5t-148.5 -90t-211.5 -33h-622zM459 1223v-357h211q123 0 186.5 44t63.5 141q0 172 -234 172h-227zM459 627v-387h241q125 0 190.5 42t65.5 150t-76.5 151.5
t-215.5 43.5h-205z" />
    <glyph glyph-name="Gamma" unicode="&#x393;" horiz-adv-x="1099" 
d="M459 1223v-1223h-299v1462h876v-239h-577z" />
    <glyph glyph-name="uni0394" unicode="&#x394;" horiz-adv-x="1449" 
d="M1378 0h-1306v240l452 1222h408l446 -1222v-240zM725 1229l-338 -989h674z" />
    <glyph glyph-name="Epsilon" unicode="&#x395;" horiz-adv-x="1144" 
d="M160 0v1462h880v-239h-581v-357h534v-239h-534v-387h600v-240h-899z" />
    <glyph glyph-name="Zeta" unicode="&#x396;" horiz-adv-x="1234" 
d="M76 240l706 983h-649v239h1006v-239l-707 -983h721v-240h-1077v240z" />
    <glyph glyph-name="Eta" unicode="&#x397;" horiz-adv-x="1478" 
d="M160 0v1462h299v-596h561v596h299v-1462h-299v627h-561v-627h-299z" />
    <glyph glyph-name="Theta" unicode="&#x398;" horiz-adv-x="1607" 
d="M1497 729q0 -159 -43 -294t-126.5 -238.5t-218 -162.5t-306.5 -59q-169 0 -302.5 57.5t-218 159.5t-129 238.5t-44.5 298.5q0 126 26 237.5t81 207.5t135.5 165t196 108.5t255.5 39.5q142 0 258 -40t196 -109.5t135 -165.5t80 -207t25 -236zM1198 729q0 151 -41 265
t-131.5 183.5t-222.5 69.5q-193 0 -294 -141.5t-101 -376.5q0 -147 41 -260.5t132 -183.5t222 -70q85 0 152.5 28.5t112.5 76.5t74.5 114.5t42.5 139.5t13 155zM549 621v231h510v-231h-510z" />
    <glyph glyph-name="Iota" unicode="&#x399;" horiz-adv-x="618" 
d="M160 0v1462h299v-1462h-299z" />
    <glyph glyph-name="Kappa" unicode="&#x39a;" horiz-adv-x="1331" 
d="M944 1462h356l-520 -706l547 -756h-369l-495 727h-4v-727h-299v1462h299v-686h4z" />
    <glyph glyph-name="Lambda" unicode="&#x39b;" horiz-adv-x="1427" 
d="M1102 0l-391 1229l-389 -1229h-318l506 1462h410l503 -1462h-321z" />
    <glyph glyph-name="Mu" unicode="&#x39c;" horiz-adv-x="1894" 
d="M659 1462l283 -1177h6l283 1177h504v-1462h-283v1212h-4l-322 -1212h-372l-316 1212h-4v-1212h-274v1462h499z" />
    <glyph glyph-name="Nu" unicode="&#x39d;" horiz-adv-x="1509" 
d="M621 1462l444 -1167h4v1167h281v-1462h-447l-461 1184h-4v-1184h-278v1462h461z" />
    <glyph glyph-name="Xi" unicode="&#x39e;" horiz-adv-x="1257" 
d="M86 0v256h1085v-256h-1085zM162 610v256h934v-256h-934zM86 1206v256h1085v-256h-1085z" />
    <glyph glyph-name="Omicron" unicode="&#x39f;" horiz-adv-x="1589" 
d="M1481 729q0 -165 -45.5 -303t-131 -238.5t-216 -156.5t-293.5 -56q-162 0 -292.5 56t-216 156.5t-131.5 238.5t-46 303q0 166 45.5 304.5t130.5 239.5t216 157.5t294 56.5q218 0 374.5 -98.5t234 -268t77.5 -391.5zM1182 729q0 110 -23.5 202.5t-70 164t-121.5 111.5
t-172 40t-172 -40t-121.5 -111.5t-70 -164t-23.5 -202.5q0 -109 24 -201t70.5 -162.5t122 -110.5t172.5 -40q98 0 173 40t120.5 110.5t68.5 162.5t23 201z" />
    <glyph glyph-name="Pi" unicode="&#x3a0;" horiz-adv-x="1468" 
d="M160 0v1462h1149v-1462h-299v1223h-551v-1223h-299z" />
    <glyph glyph-name="Rho" unicode="&#x3a1;" horiz-adv-x="1304" 
d="M160 0v1462h549q89 0 165 -14t144.5 -47t116 -84t75 -129t27.5 -178q0 -101 -27.5 -182t-75.5 -135t-115 -90t-143.5 -52t-164.5 -16h-252v-535h-299zM459 1223v-447h219q260 0 260 223q0 122 -71 173t-203 51h-205z" />
    <glyph glyph-name="Sigma" unicode="&#x3a3;" horiz-adv-x="1263" 
d="M78 0v229l379 512v4l-369 480v237h1055v-239h-699l363 -471l-383 -512h741v-240h-1087z" />
    <glyph glyph-name="Tau" unicode="&#x3a4;" horiz-adv-x="1110" 
d="M410 0v1223h-390v239h1070v-239h-381v-1223h-299z" />
    <glyph glyph-name="Upsilon" unicode="&#x3a5;" horiz-adv-x="1378" 
d="M541 0v557l-539 905h350l340 -622l342 622h342l-536 -905v-557h-299z" />
    <glyph glyph-name="Phi" unicode="&#x3a6;" horiz-adv-x="1785" 
d="M743 -41v145q-318 19 -484.5 177t-166.5 460q0 132 34 238t108 192t202.5 137.5t306.5 61.5v148h299v-148q150 -8 266 -47.5t188 -98t117.5 -139.5t63 -164t17.5 -180q0 -104 -20 -192t-68 -167.5t-121.5 -137t-186 -95t-256.5 -45.5v-145h-299zM743 338v801
q-177 0 -266.5 -102t-89.5 -300q0 -396 356 -399zM1042 338q190 3 273.5 107t83.5 292q0 189 -86.5 295.5t-270.5 106.5v-801z" />
    <glyph glyph-name="Chi" unicode="&#x3a7;" horiz-adv-x="1345" 
d="M967 1462h342l-430 -702l462 -760h-352l-313 549l-320 -549h-352l467 760l-428 702h348l285 -501z" />
    <glyph glyph-name="Psi" unicode="&#x3a8;" horiz-adv-x="1740" 
d="M721 0v236q-137 2 -240.5 29.5t-185 87.5t-124 165.5t-42.5 255.5v688h295v-700q0 -153 70.5 -216.5t226.5 -68.5v985h299v-985q90 1 150.5 22.5t91.5 62t43 87.5t12 113v700h295v-688q0 -121 -29.5 -214t-80 -153t-127 -98t-162.5 -54.5t-193 -18.5v-236h-299z" />
    <glyph glyph-name="uni03A9" unicode="&#x3a9;" horiz-adv-x="1591" 
d="M795 1247q-120 0 -203.5 -55.5t-121.5 -148t-38 -214.5q0 -166 61 -276t197 -164v-389h-557v240h307v53q-307 153 -307 543q0 189 77 335t228.5 231t356.5 85q155 0 281 -49t209 -136t128 -206t45 -260q0 -393 -307 -543v-53h307v-240h-557v389q136 54 197 164t61 276
q0 188 -92 303t-272 115z" />
    <glyph glyph-name="Iotadieresis" unicode="&#x3aa;" horiz-adv-x="618" 
d="M160 0v1462h299v-1462h-299zM227 1853v-249h-254v249h254zM649 1853v-249h-256v249h256z" />
    <glyph glyph-name="Upsilondieresis" unicode="&#x3ab;" horiz-adv-x="1378" 
d="M541 0v557l-539 905h350l340 -622l342 622h342l-536 -905v-557h-299zM608 1853v-249h-254v249h254zM1030 1853v-249h-256v249h256z" />
    <glyph glyph-name="alphatonos" unicode="&#x3ac;" horiz-adv-x="1421" 
d="M1309 1081q-39 -340 -164 -645l49 -145q13 -37 32 -56t35.5 -22.5t45.5 -3.5q19 0 43 6v-215q-52 -10 -117 -10q-110 0 -171 34t-91 132l-8 26h-5q-56 -100 -147 -153.5t-236 -53.5q-108 0 -193 35t-138 91t-87.5 132t-48.5 152t-14 156q0 115 30 214.5t89.5 179
t158 125.5t226.5 46q178 0 274 -81.5t127 -217.5h5q31 129 49 274h256zM385 541q0 -167 65 -257.5t173 -90.5q64 0 111 27.5t73.5 77t38.5 110t12 133.5q0 171 -64 258.5t-171 87.5q-47 0 -88 -19.5t-75.5 -59t-54.5 -108.5t-20 -159zM983 1573l-223 -336h-201l98 336h326z
" />
    <glyph glyph-name="epsilontonos" unicode="&#x3ad;" horiz-adv-x="1054" 
d="M311 567v4q-95 32 -138.5 89.5t-43.5 146.5q0 42 11.5 80.5t43 79.5t81 71t132 49t189.5 19q118 0 217 -18.5t153 -45.5l-47 -215q-135 58 -303 58q-209 0 -209 -117q0 -62 53.5 -86.5t161.5 -24.5l176 5v-209q-123 2 -176 2q-120 0 -175.5 -29t-55.5 -98
q0 -127 219 -127q183 0 340 55l45 -207q-167 -74 -399 -74q-235 0 -364.5 80t-129.5 242q0 108 57.5 176.5t161.5 93.5zM903 1573l-223 -336h-201l99 336h325z" />
    <glyph glyph-name="etatonos" unicode="&#x3ae;" horiz-adv-x="1306" 
d="M440 936h4q40 81 130 125.5t198 44.5q183 0 291 -107t108 -286v-1112h-290v1003q0 141 -44 212t-157 71q-96 0 -165 -74t-69 -227v-586h-290v840q0 135 -17 241h279q22 -71 22 -145zM948 1573l-223 -336h-201l99 336h325z" />
    <glyph glyph-name="iotatonos" unicode="&#x3af;" horiz-adv-x="704" 
d="M135 1081h291v-702q0 -76 10.5 -111.5t34.5 -47t76 -11.5q38 0 96 8v-217q-92 -10 -186 -10q-100 0 -164 19t-98.5 61.5t-47 96t-12.5 136.5v778zM602 1573l-223 -336h-201l98 336h326z" />
    <glyph glyph-name="upsilondieresistonos" unicode="&#x3b0;" horiz-adv-x="1263" 
d="M627 -25q-140 0 -237.5 32.5t-152.5 96t-78.5 145.5t-23.5 193v639h291v-659q0 -124 55 -175.5t156 -51.5q46 0 81 10.5t59 26.5t40.5 45.5t25.5 57t14 72.5t6 80.5t1 90.5q0 262 -71 503h284q31 -67 55.5 -198.5t24.5 -286.5q0 -110 -13 -197t-48.5 -169t-93.5 -136
t-153 -86.5t-222 -32.5zM838 1573l-183 -336h-180l43 336h320zM401 1522v-242h-254v242h254zM1122 1522v-242h-256v242h256z" />
    <glyph glyph-name="alpha" unicode="&#x3b1;" horiz-adv-x="1421" 
d="M1309 1081q-39 -340 -164 -645l49 -145q13 -37 32 -56t35.5 -22.5t45.5 -3.5q19 0 43 6v-215q-52 -10 -117 -10q-110 0 -171 34t-91 132l-8 26h-5q-56 -100 -147 -153.5t-236 -53.5q-108 0 -193 35t-138 91t-87.5 132t-48.5 152t-14 156q0 115 30 214.5t89.5 179
t158 125.5t226.5 46q178 0 274 -81.5t127 -217.5h5q31 129 49 274h256zM385 541q0 -167 65 -257.5t173 -90.5q64 0 111 27.5t73.5 77t38.5 110t12 133.5q0 171 -64 258.5t-171 87.5q-47 0 -88 -19.5t-75.5 -59t-54.5 -108.5t-20 -159z" />
    <glyph glyph-name="beta" unicode="&#x3b2;" horiz-adv-x="1325" 
d="M143 -399v1364q0 100 15.5 180.5t52.5 149t95 114t145.5 71t201.5 25.5q129 0 226 -30t153.5 -83.5t83.5 -120t27 -145.5q0 -110 -56.5 -193t-136.5 -116v-4q137 -37 209 -136.5t72 -254.5q0 -195 -121.5 -321t-333.5 -126q-231 0 -338 144h-4v-518h-291zM862 1096
q0 99 -58 144.5t-149 45.5q-221 0 -221 -262v-512q0 -157 73 -237t185 -80q101 0 169.5 61t68.5 174q0 250 -285 250q-63 0 -92 -2v221q20 -2 74 -2q122 0 178.5 56t56.5 143z" />
    <glyph glyph-name="gamma" unicode="&#x3b3;" horiz-adv-x="1202" 
d="M479 -399v272q0 4 -7 24t-22.5 61.5t-33 86.5t-47 122t-54.5 144q-49 128 -120 320.5t-117 320.5l-47 129h303q21 -55 136 -396t155 -478h4q223 467 223 835v39h278v-37q0 -270 -94.5 -544.5t-279.5 -571.5q8 -51 8 -155q0 -83 -6 -172h-279z" />
    <glyph glyph-name="delta" unicode="&#x3b4;" horiz-adv-x="1214" 
d="M608 -25q-241 0 -379.5 140t-138.5 368q0 81 17.5 155t55.5 143t105.5 125.5t159.5 92.5v5q-76 57 -107.5 110.5t-31.5 118.5q0 131 108.5 201.5t288.5 70.5q201 0 350 -41l-22 -239q-187 51 -297 51q-107 0 -107 -66q0 -31 27 -56.5t108 -74.5q216 -131 299.5 -265
t83.5 -308q0 -236 -141.5 -383.5t-378.5 -147.5zM610 195q114 0 180 79t66 232q0 69 -18 127t-73.5 122.5t-148.5 116.5q-111 -42 -179 -141.5t-68 -241.5q0 -139 62.5 -216.5t178.5 -77.5z" />
    <glyph glyph-name="epsilon" unicode="&#x3b5;" horiz-adv-x="1054" 
d="M311 567v4q-95 32 -138.5 89.5t-43.5 146.5q0 42 11.5 80.5t43 79.5t81 71t132 49t189.5 19q118 0 217 -18.5t153 -45.5l-47 -215q-135 58 -303 58q-209 0 -209 -117q0 -62 53.5 -86.5t161.5 -24.5l176 5v-209q-123 2 -176 2q-120 0 -175.5 -29t-55.5 -98
q0 -127 219 -127q183 0 340 55l45 -207q-167 -74 -399 -74q-235 0 -364.5 80t-129.5 242q0 108 57.5 176.5t161.5 93.5z" />
    <glyph glyph-name="zeta" unicode="&#x3b6;" horiz-adv-x="1011" 
d="M371 584q0 -139 68.5 -209.5t267.5 -136.5q159 -54 216.5 -114.5t57.5 -182.5q0 -145 -80 -318h-252q62 160 62 238q0 55 -29.5 84t-124.5 61q-117 39 -197.5 81t-145.5 104.5t-96.5 150.5t-31.5 205q0 230 117 413t317 304v4h-377v237h826v-205q-152 -76 -267.5 -164.5
t-187 -181t-107.5 -185.5t-36 -185z" />
    <glyph glyph-name="eta" unicode="&#x3b7;" horiz-adv-x="1306" 
d="M440 936h4q40 81 130 125.5t198 44.5q183 0 291 -107t108 -286v-1112h-290v1003q0 141 -44 212t-157 71q-96 0 -165 -74t-69 -227v-586h-290v840q0 135 -17 241h279q22 -71 22 -145z" />
    <glyph glyph-name="theta" unicode="&#x3b8;" horiz-adv-x="1308" 
d="M653 -25q-130 0 -230 44t-172.5 135.5t-110.5 239t-38 347.5q0 125 15 231t54 207t100 171t158.5 112.5t223.5 42.5q263 0 408 -185.5t145 -578.5q0 -394 -144.5 -580t-408.5 -186zM391 627q1 -126 20 -212t55 -133.5t81 -67t106 -19.5q63 0 109.5 21t82 69.5t54 133.5
t19.5 208h-527zM391 848h527q-6 221 -69.5 329.5t-193.5 108.5q-131 0 -194.5 -108.5t-69.5 -329.5z" />
    <glyph glyph-name="iota" unicode="&#x3b9;" horiz-adv-x="704" 
d="M135 1081h291v-702q0 -76 10.5 -111.5t34.5 -47t76 -11.5q38 0 96 8v-217q-92 -10 -186 -10q-100 0 -164 19t-98.5 61.5t-47 96t-12.5 136.5v778z" />
    <glyph glyph-name="kappa" unicode="&#x3ba;" horiz-adv-x="1224" 
d="M438 616l203 256q102 130 175.5 178t180.5 48q53 0 129 -13l-22 -237q-30 6 -64 6q-55 0 -98 -30t-98 -91l-80 -90l428 -643h-328l-301 444l-129 -143v-301h-291v1081h291v-465h4z" />
    <glyph glyph-name="lambda" unicode="&#x3bb;" horiz-adv-x="1267" 
d="M330 0h-299l479 1036l-51 135q-25 64 -55 87.5t-89 23.5q-34 0 -79 -10l-21 215q70 18 156 18q97 0 155.5 -21.5t105.5 -81.5t91 -177l358 -942q18 -45 37 -59.5t51 -14.5q31 0 58 6v-215q-69 -10 -131 -10q-117 0 -172 35.5t-95 148.5l-196 547h-4z" />
    <glyph glyph-name="uni03BC" unicode="&#x3bc;" horiz-adv-x="1361" 
d="M881 150h-4q-40 -86 -111.5 -130.5t-167.5 -44.5q-45 0 -90.5 12t-69.5 33h-4v-419h-291v1480h291v-604q0 -141 45 -211.5t158 -70.5q45 0 84.5 16.5t73 50.5t53.5 94t20 140v585h291v-723q0 -93 17 -121t63 -28q30 0 51 6v-215q-75 -10 -135 -10q-117 0 -183.5 38
t-90.5 122z" />
    <glyph glyph-name="nu" unicode="&#x3bd;" horiz-adv-x="1159" 
d="M391 0l-371 1081h306l264 -856h6q210 457 213 817v39h278v-39q0 -237 -77 -488.5t-252 -553.5h-367z" />
    <glyph glyph-name="xi" unicode="&#x3be;" horiz-adv-x="1026" 
d="M649 -377q62 156 62 238q0 44 -14.5 67t-57 45t-143.5 56q-121 41 -200.5 84.5t-126 94.5t-65 106.5t-18.5 129.5q0 122 65.5 211t178.5 123v4q-95 34 -141 102t-46 144q0 92 43.5 152t118.5 84v4h-184v237h825v-235l-235 -13q-171 -9 -239.5 -55t-68.5 -131
q0 -160 271 -160l190 2v-243q-141 2 -219 2q-272 0 -272 -189q0 -91 64.5 -133t264.5 -110q168 -58 223.5 -119.5t55.5 -181.5q0 -76 -25 -164.5t-55 -151.5h-252z" />
    <glyph glyph-name="omicron" unicode="&#x3bf;" horiz-adv-x="1290" 
d="M1196 543q0 -262 -150 -415t-401 -153q-253 0 -402 152.5t-149 415.5q0 262 148.5 412.5t402.5 150.5t402.5 -150.5t148.5 -412.5zM905 543q0 158 -66 251t-194 93t-194 -93t-66 -251q0 -162 66 -255t194 -93q129 0 194.5 92.5t65.5 255.5z" />
    <glyph glyph-name="pi" unicode="&#x3c0;" horiz-adv-x="1476" 
d="M1159 860v-483q0 -106 22.5 -137t96.5 -31q36 0 82 8v-217q-88 -10 -172 -10q-94 0 -156.5 18t-98 57t-49.5 92.5t-14 133.5v569h-301l-92 -860h-301l107 860h-211v221h1312v-221h-225z" />
    <glyph glyph-name="rho" unicode="&#x3c1;" horiz-adv-x="1296" 
d="M410 119v-518h-291v907q0 154 40.5 270.5t114 187.5t171 105.5t217.5 34.5q263 0 401.5 -154t138.5 -411q0 -158 -60.5 -287t-171.5 -204t-251 -75q-86 0 -168 36t-137 108h-4zM911 541q0 154 -65.5 250t-188.5 96q-121 0 -189.5 -90t-68.5 -260q0 -160 67.5 -251
t192.5 -91q122 0 187 94t65 252z" />
    <glyph glyph-name="sigma1" unicode="&#x3c2;" horiz-adv-x="1042" 
d="M655 -377q62 158 62 240q0 55 -31 84t-125 61q-117 40 -196.5 82t-144 104.5t-95.5 149.5t-31 203q0 117 35 217t102.5 177t176 121t245.5 44q181 0 320 -45l-53 -236q-104 39 -240 39q-144 0 -220.5 -82t-76.5 -215q0 -124 60.5 -191t232.5 -126q63 -21 99.5 -35.5
t77 -34.5t61.5 -40.5t40 -49.5t26 -65.5t7 -85.5q0 -66 -22.5 -153.5t-57.5 -162.5h-252z" />
    <glyph glyph-name="sigma" unicode="&#x3c3;" horiz-adv-x="1363" 
d="M1303 1081v-221h-246v-2q123 -112 123 -326q0 -248 -147 -402.5t-394 -154.5q-249 0 -399 152.5t-150 404.5q0 86 19 163.5t63 149t109 123t164.5 82.5t222.5 31h635zM899 535q0 89 -26 160.5t-85 118t-143 46.5q-71 0 -124 -29t-82.5 -78t-43.5 -104.5t-14 -116.5
q0 -151 66 -244t192 -93q131 0 195.5 94.5t64.5 245.5z" />
    <glyph glyph-name="tau" unicode="&#x3c4;" horiz-adv-x="1054" 
d="M51 1081h932v-221h-346v-489q0 -72 12 -106.5t35.5 -45t73.5 -10.5q36 0 90 8v-217q-92 -10 -180 -10q-100 0 -164 19t-98.5 61.5t-47 96t-12.5 136.5v557h-295v221z" />
    <glyph glyph-name="upsilon" unicode="&#x3c5;" horiz-adv-x="1263" 
d="M627 -25q-140 0 -237.5 32.5t-152.5 96t-78.5 145.5t-23.5 193v639h291v-659q0 -124 55 -175.5t156 -51.5q46 0 81 10.5t59 26.5t40.5 45.5t25.5 57t14 72.5t6 80.5t1 90.5q0 262 -71 503h284q31 -67 55.5 -198.5t24.5 -286.5q0 -110 -13 -197t-48.5 -169t-93.5 -136
t-153 -86.5t-222 -32.5z" />
    <glyph glyph-name="phi" unicode="&#x3c6;" horiz-adv-x="1652" 
d="M684 186v709q-148 -5 -226.5 -89.5t-78.5 -264.5q0 -345 305 -355zM969 895v-709q305 10 305 355q0 178 -76 263t-229 91zM684 1112v297h285v-297q129 -2 236 -38.5t186.5 -105.5t123.5 -177.5t44 -247.5q0 -260 -152.5 -414t-437.5 -160v-368h-285v368
q-278 6 -434 156.5t-156 415.5q0 269 157.5 417t432.5 154z" />
    <glyph glyph-name="chi" unicode="&#x3c7;" horiz-adv-x="1232" 
d="M61 -399l420 743l-213 416q-36 71 -61.5 91.5t-75.5 20.5q-26 0 -41 -6l-20 219q73 13 139 13q117 0 177 -36.5t114 -146.5l159 -317h5l243 483h310l-400 -721l211 -407q49 -94 78 -118.5t76 -24.5q27 0 51 6v-215q-75 -11 -117 -11q-115 0 -179 38.5t-122 152.5
l-166 330h-4l-278 -510h-306z" />
    <glyph glyph-name="psi" unicode="&#x3c8;" horiz-adv-x="1622" 
d="M961 -25v-374h-285v374h-10q-151 0 -254 31t-164 95t-87 152.5t-26 213.5v614h291v-641q0 -75 17 -124.5t52 -75t77 -35.5t104 -10v1214h285v-1214h16q78 0 127.5 22t75.5 71.5t35.5 112t9.5 160.5q0 274 -72 520h285q31 -74 54.5 -204.5t23.5 -280.5q0 -115 -15.5 -206
t-53.5 -170.5t-99 -132t-156 -82.5t-221 -30h-10z" />
    <glyph glyph-name="omega" unicode="&#x3c9;" horiz-adv-x="1697" 
d="M539 -25q-215 0 -319.5 133.5t-104.5 383.5q0 173 41.5 330t119.5 259h289q-159 -267 -159 -616q0 -270 157 -270q142 0 142 223v395h288v-395q0 -127 38 -175t104 -48q157 0 157 270q0 349 -159 616h288q77 -98 119.5 -255.5t42.5 -331.5q0 -118 -23.5 -211t-72.5 -163
t-131.5 -107.5t-194.5 -37.5q-242 0 -311 205h-4q-69 -205 -307 -205z" />
    <glyph glyph-name="iotadieresis" unicode="&#x3ca;" horiz-adv-x="704" 
d="M135 1081h291v-702q0 -76 10.5 -111.5t34.5 -47t76 -11.5q38 0 96 8v-217q-92 -10 -186 -10q-100 0 -164 19t-98.5 61.5t-47 96t-12.5 136.5v778zM199 1522v-242h-254v242h254zM621 1522v-242h-256v242h256z" />
    <glyph glyph-name="upsilondieresis" unicode="&#x3cb;" horiz-adv-x="1263" 
d="M627 -25q-140 0 -237.5 32.5t-152.5 96t-78.5 145.5t-23.5 193v639h291v-659q0 -124 55 -175.5t156 -51.5q46 0 81 10.5t59 26.5t40.5 45.5t25.5 57t14 72.5t6 80.5t1 90.5q0 262 -71 503h284q31 -67 55.5 -198.5t24.5 -286.5q0 -110 -13 -197t-48.5 -169t-93.5 -136
t-153 -86.5t-222 -32.5zM532 1522v-242h-253v242h253zM954 1522v-242h-256v242h256z" />
    <glyph glyph-name="omicrontonos" unicode="&#x3cc;" horiz-adv-x="1290" 
d="M1196 543q0 -262 -150 -415t-401 -153q-253 0 -402 152.5t-149 415.5q0 262 148.5 412.5t402.5 150.5t402.5 -150.5t148.5 -412.5zM905 543q0 158 -66 251t-194 93t-194 -93t-66 -251q0 -162 66 -255t194 -93q129 0 194.5 92.5t65.5 255.5zM983 1573l-223 -336h-201
l98 336h326z" />
    <glyph glyph-name="upsilontonos" unicode="&#x3cd;" horiz-adv-x="1263" 
d="M627 -25q-140 0 -237.5 32.5t-152.5 96t-78.5 145.5t-23.5 193v639h291v-659q0 -124 55 -175.5t156 -51.5q46 0 81 10.5t59 26.5t40.5 45.5t25.5 57t14 72.5t6 80.5t1 90.5q0 262 -71 503h284q31 -67 55.5 -198.5t24.5 -286.5q0 -110 -13 -197t-48.5 -169t-93.5 -136
t-153 -86.5t-222 -32.5zM930 1573l-223 -336h-201l98 336h326z" />
    <glyph glyph-name="omegatonos" unicode="&#x3ce;" horiz-adv-x="1697" 
d="M539 -25q-215 0 -319.5 133.5t-104.5 383.5q0 173 41.5 330t119.5 259h289q-159 -267 -159 -616q0 -270 157 -270q142 0 142 223v395h288v-395q0 -127 38 -175t104 -48q157 0 157 270q0 349 -159 616h288q77 -98 119.5 -255.5t42.5 -331.5q0 -118 -23.5 -211t-72.5 -163
t-131.5 -107.5t-194.5 -37.5q-242 0 -311 205h-4q-69 -205 -307 -205zM1176 1573l-224 -336h-200l98 336h326z" />
    <glyph glyph-name="uni0400" unicode="&#x400;" horiz-adv-x="1144" 
d="M160 0v1462h880v-239h-581v-357h534v-239h-534v-387h600v-240h-899zM231 1860h322l192 -297h-235z" />
    <glyph glyph-name="uni0401" unicode="&#x401;" horiz-adv-x="1144" 
d="M160 0v1462h880v-239h-581v-357h534v-239h-534v-387h600v-240h-899zM512 1853v-249h-254v249h254zM934 1853v-249h-256v249h256z" />
    <glyph glyph-name="uni0402" unicode="&#x402;" horiz-adv-x="1605" 
d="M1055 -8q-94 0 -170 8v240q61 -9 90 -9q266 0 266 220q0 109 -67.5 162t-184.5 53q-83 0 -161 -14t-119 -29v-623h-299v1223h-390v239h1070v-239h-381v-365q154 47 317 47q112 0 203 -25.5t162 -77.5t110 -140.5t39 -206.5t-37.5 -208.5t-104 -145t-153 -82t-190.5 -27.5
z" />
    <glyph glyph-name="uni0403" unicode="&#x403;" horiz-adv-x="1048" 
d="M918 1860l-281 -297h-236l195 297h322zM160 0v1462h866v-239h-567v-1223h-299z" />
    <glyph glyph-name="uni0404" unicode="&#x404;" horiz-adv-x="1286" 
d="M854 -25q-232 0 -402.5 97t-258 266.5t-87.5 390.5q0 165 50 304t143 240t233 157.5t312 56.5q206 0 354 -55l-53 -232q-126 47 -266 47q-103 0 -189 -30.5t-143.5 -82.5t-91.5 -120t-39 -144h559v-239h-567q7 -84 39 -157t88.5 -132t146 -93t201.5 -34q155 0 278 55
l51 -231q-155 -64 -358 -64z" />
    <glyph glyph-name="uni0405" unicode="&#x405;" horiz-adv-x="1163" 
d="M993 1434l-51 -240q-146 53 -313 53q-65 0 -114.5 -12.5t-84.5 -49t-35 -93.5q0 -73 61.5 -121.5t215.5 -110.5q81 -33 136 -61t110 -68t87 -84t52 -105t20 -136q0 -106 -43.5 -190t-119 -136t-171.5 -78.5t-206 -26.5q-238 0 -445 74l53 244q193 -78 381 -78
q123 0 187.5 43t64.5 127q0 78 -64 129t-222 113q-94 38 -161.5 77t-123 91t-83.5 119t-28 149q0 88 30 160t79.5 120.5t116.5 81.5t139 47.5t149 14.5q222 0 383 -53z" />
    <glyph glyph-name="uni0406" unicode="&#x406;" horiz-adv-x="618" 
d="M160 0v1462h299v-1462h-299z" />
    <glyph glyph-name="uni0407" unicode="&#x407;" horiz-adv-x="618" 
d="M160 0v1462h299v-1462h-299zM227 1853v-249h-254v249h254zM649 1853v-249h-256v249h256z" />
    <glyph glyph-name="uni0408" unicode="&#x408;" horiz-adv-x="737" 
d="M596 1462v-1095q0 -199 -104.5 -295.5t-323.5 -96.5q-82 0 -168 11v239q62 -10 121 -10q91 0 133.5 42t42.5 142v1063h299z" />
    <glyph glyph-name="uni0409" unicode="&#x409;" horiz-adv-x="2217" 
d="M170 -10q-84 0 -156 10v240q44 -7 76 -7q49 0 86 13.5t66.5 49.5t50 80.5t36 125t25 163.5t15.5 215.5t9 262t5 319.5h979v-534h264q112 0 203.5 -24.5t165.5 -77t115.5 -144t41.5 -215.5q0 -126 -41.5 -219t-116 -146t-166.5 -77.5t-204 -24.5h-561v1223h-395
q-1 -208 -7.5 -361.5t-21 -288t-40 -226t-62.5 -163.5t-90 -112.5t-120.5 -61t-156.5 -20.5zM1362 240h213q133 0 205.5 52t72.5 175q0 221 -264 221h-227v-448z" />
    <glyph glyph-name="uni040A" unicode="&#x40a;" horiz-adv-x="2177" 
d="M160 0v1462h299v-571h561v571h299v-571h276q111 0 201.5 -23.5t162.5 -74t112 -138t40 -206.5q0 -120 -40 -209t-112 -140t-162.5 -75.5t-201.5 -24.5h-575v651h-561v-651h-299zM1319 240h223q131 0 200.5 47.5t69.5 158.5q0 205 -256 205h-237v-411z" />
    <glyph glyph-name="uni040B" unicode="&#x40b;" horiz-adv-x="1617" 
d="M410 0v1223h-390v239h1070v-239h-381v-367q168 49 303 49q89 0 156.5 -11t131.5 -42t105 -83t65.5 -138t24.5 -203v-428h-295v387q0 153 -58.5 216t-207.5 63q-104 0 -225 -45v-621h-299z" />
    <glyph glyph-name="uni040C" unicode="&#x40c;" horiz-adv-x="1331" 
d="M1034 1860l-280 -297h-236l195 297h321zM944 1462h356l-520 -706l547 -756h-369l-495 727h-4v-727h-299v1462h299v-686h4z" />
    <glyph glyph-name="uni040D" unicode="&#x40d;" horiz-adv-x="1521" 
d="M160 0v1462h289v-1052h4l534 1052h375v-1462h-289v1069h-4l-551 -1069h-358zM389 1860h322l192 -297h-235z" />
    <glyph glyph-name="uni040E" unicode="&#x40e;" horiz-adv-x="1376" 
d="M313 0l230 438l-541 1024h336l367 -723l344 723h325l-727 -1462h-334zM707 1559q-91 0 -159.5 25.5t-108.5 71t-60.5 100.5t-22.5 120h195q2 -64 38.5 -104.5t117.5 -40.5q82 0 118.5 40.5t38.5 104.5h193q-1 -52 -13 -97t-39 -86t-66 -70.5t-98.5 -46.5t-133.5 -17z" />
    <glyph glyph-name="uni040F" unicode="&#x40f;" horiz-adv-x="1464" 
d="M623 -317l-21 317h-442v1462h299v-1222h547v1222h299v-1462h-443l-18 -317h-221z" />
    <glyph glyph-name="uni0410" unicode="&#x410;" horiz-adv-x="1468" 
d="M449 356l-127 -356h-318l526 1462h410l524 -1462h-321l-131 356h-563zM731 1229l-213 -631h424z" />
    <glyph glyph-name="uni0411" unicode="&#x411;" horiz-adv-x="1345" 
d="M160 0v1462h973v-239h-674v-332h276q112 0 202.5 -23.5t162.5 -74t111.5 -138t39.5 -206.5q0 -120 -39.5 -208.5t-111.5 -140t-162.5 -76t-202.5 -24.5h-575zM459 240h223q131 0 200.5 47.5t69.5 158.5q0 205 -256 205h-237v-411z" />
    <glyph glyph-name="uni0412" unicode="&#x412;" horiz-adv-x="1349" 
d="M160 0v1462h610q205 0 327 -91t122 -277q0 -244 -236 -332v-4q272 -76 272 -350q0 -83 -28.5 -155.5t-84.5 -129.5t-148.5 -90t-211.5 -33h-622zM459 1223v-357h211q123 0 186.5 44t63.5 141q0 172 -234 172h-227zM459 627v-387h241q125 0 190.5 42t65.5 150t-76.5 151.5
t-215.5 43.5h-205z" />
    <glyph glyph-name="uni0413" unicode="&#x413;" horiz-adv-x="1048" 
d="M160 0v1462h866v-239h-567v-1223h-299z" />
    <glyph glyph-name="uni0414" unicode="&#x414;" horiz-adv-x="1556" 
d="M20 -317v557h119q112 157 163.5 412t51.5 620v190h996v-1222h161v-557h-251l-21 317h-948l-19 -317h-252zM457 240h594v983h-412v-72q0 -634 -182 -911z" />
    <glyph glyph-name="uni0415" unicode="&#x415;" horiz-adv-x="1144" 
d="M160 0v1462h880v-239h-581v-357h534v-239h-534v-387h600v-240h-899z" />
    <glyph glyph-name="uni0416" unicode="&#x416;" horiz-adv-x="1961" 
d="M4 0l502 756l-475 706h354l442 -690h4v690h299v-690h5l442 690h354l-475 -706l502 -756h-367l-456 729h-5v-729h-299v729h-4l-456 -729h-367z" />
    <glyph glyph-name="uni0417" unicode="&#x417;" horiz-adv-x="1163" 
d="M512 -25q-240 0 -436 74l53 244q194 -78 371 -78q124 0 198 52t74 159q0 111 -79 156t-222 45h-145v239h151q264 0 264 199q0 92 -64.5 137t-176.5 45q-78 0 -172.5 -17t-171.5 -44l-47 235q205 66 430 66q106 0 195 -22.5t158.5 -68t108.5 -121t39 -173.5
q0 -120 -59 -209t-176 -129v-4q130 -32 197 -125t67 -217q0 -112 -42.5 -198t-119 -139t-176 -79.5t-219.5 -26.5z" />
    <glyph glyph-name="uni0418" unicode="&#x418;" horiz-adv-x="1521" 
d="M160 0v1462h289v-1052h4l534 1052h375v-1462h-289v1069h-4l-551 -1069h-358z" />
    <glyph glyph-name="uni0419" unicode="&#x419;" horiz-adv-x="1521" 
d="M160 0v1462h289v-1052h4l534 1052h375v-1462h-289v1069h-4l-551 -1069h-358zM754 1559q-91 0 -159.5 25.5t-108.5 71t-60.5 100.5t-22.5 120h195q2 -64 38.5 -104.5t117.5 -40.5q82 0 118.5 40.5t38.5 104.5h193q-1 -52 -13 -97t-39 -86t-66 -70.5t-98.5 -46.5
t-133.5 -17z" />
    <glyph glyph-name="uni041A" unicode="&#x41a;" horiz-adv-x="1331" 
d="M944 1462h356l-520 -706l547 -756h-369l-495 727h-4v-727h-299v1462h299v-686h4z" />
    <glyph glyph-name="uni041B" unicode="&#x41b;" horiz-adv-x="1521" 
d="M170 -10q-84 0 -156 10v240q44 -7 76 -7q49 0 86 13.5t66.5 49.5t50 80.5t36 125t25 163.5t15.5 215.5t9 262t5 319.5h979v-1462h-299v1223h-395q-1 -208 -7.5 -361.5t-21 -288t-40 -226t-62.5 -163.5t-90 -112.5t-120.5 -61t-156.5 -20.5z" />
    <glyph glyph-name="uni041C" unicode="&#x41c;" horiz-adv-x="1894" 
d="M659 1462l283 -1177h6l283 1177h504v-1462h-283v1212h-4l-322 -1212h-372l-316 1212h-4v-1212h-274v1462h499z" />
    <glyph glyph-name="uni041D" unicode="&#x41d;" horiz-adv-x="1476" 
d="M160 0v1462h299v-596h561v596h299v-1462h-299v627h-561v-627h-299z" />
    <glyph glyph-name="uni041E" unicode="&#x41e;" horiz-adv-x="1591" 
d="M1481 729q0 -165 -45.5 -303t-131 -238.5t-216 -156.5t-293.5 -56q-162 0 -292.5 56t-216 156.5t-131.5 238.5t-46 303q0 166 45.5 304.5t130.5 239.5t216 157.5t294 56.5q218 0 374.5 -98.5t234 -268t77.5 -391.5zM1182 729q0 110 -23.5 202.5t-70 164t-121.5 111.5
t-172 40t-172 -40t-121.5 -111.5t-70 -164t-23.5 -202.5q0 -109 24 -201t70.5 -162.5t122 -110.5t172.5 -40q98 0 173 40t120.5 110.5t68.5 162.5t23 201z" />
    <glyph glyph-name="uni041F" unicode="&#x41f;" horiz-adv-x="1464" 
d="M160 0v1462h1145v-1462h-299v1223h-547v-1223h-299z" />
    <glyph glyph-name="uni0420" unicode="&#x420;" horiz-adv-x="1304" 
d="M160 0v1462h549q89 0 165 -14t144.5 -47t116 -84t75 -129t27.5 -178q0 -101 -27.5 -182t-75.5 -135t-115 -90t-143.5 -52t-164.5 -16h-252v-535h-299zM459 1223v-449h219q260 0 260 225q0 122 -71 173t-203 51h-205z" />
    <glyph glyph-name="uni0421" unicode="&#x421;" horiz-adv-x="1273" 
d="M1192 1430l-55 -234q-128 51 -263 51q-114 0 -204.5 -41.5t-147.5 -113.5t-86.5 -165.5t-29.5 -201.5q0 -102 30 -193t87 -162t147 -113t202 -42q154 0 277 55l51 -231q-155 -64 -362 -64q-164 0 -301.5 56t-231.5 155t-146.5 238t-52.5 303q0 165 51 304.5t144.5 240.5
t234 158t312.5 57q207 0 344 -57z" />
    <glyph glyph-name="uni0422" unicode="&#x422;" horiz-adv-x="1112" 
d="M410 0v1223h-390v239h1070v-239h-381v-1223h-299z" />
    <glyph glyph-name="uni0423" unicode="&#x423;" horiz-adv-x="1376" 
d="M313 0l230 438l-541 1024h336l367 -723l344 723h325l-727 -1462h-334z" />
    <glyph glyph-name="uni0424" unicode="&#x424;" horiz-adv-x="1802" 
d="M752 -25v168q-321 9 -491.5 172.5t-170.5 440.5q0 270 173 428.5t489 167.5v135h299v-135q315 -9 488 -167t173 -429q0 -280 -170 -442t-491 -171v-168h-299zM752 383v729q-177 -7 -270 -100t-93 -256q0 -172 93.5 -267t269.5 -106zM1051 383q175 11 268.5 106t93.5 267
q0 163 -93 256t-269 100v-729z" />
    <glyph glyph-name="uni0425" unicode="&#x425;" horiz-adv-x="1343" 
d="M965 1462h342l-430 -702l462 -760h-352l-313 549l-320 -549h-352l467 760l-428 702h348l285 -501z" />
    <glyph glyph-name="uni0426" unicode="&#x426;" horiz-adv-x="1511" 
d="M1214 -317l-20 317h-1034v1462h299v-1222h547v1222h299v-1222h159v-557h-250z" />
    <glyph glyph-name="uni0427" unicode="&#x427;" horiz-adv-x="1353" 
d="M895 0v573q-157 -43 -299 -43q-62 0 -112.5 5.5t-100.5 19.5t-88.5 37t-72 59.5t-55 86t-34 118t-12.5 152.5v454h297v-409q0 -156 55 -218.5t203 -62.5q111 0 219 35v655h299v-1462h-299z" />
    <glyph glyph-name="uni0428" unicode="&#x428;" horiz-adv-x="2103" 
d="M160 0v1462h299v-1222h442v1222h299v-1222h445v1222h299v-1462h-1784z" />
    <glyph glyph-name="uni0429" unicode="&#x429;" horiz-adv-x="2150" 
d="M1851 -317l-18 317h-1673v1462h299v-1222h442v1222h299v-1222h445v1222h299v-1222h159v-557h-252z" />
    <glyph glyph-name="uni042A" unicode="&#x42a;" horiz-adv-x="1482" 
d="M328 0v1223h-308v239h607v-534h262q112 0 204 -24.5t166.5 -77t116 -144t41.5 -215.5q0 -126 -41.5 -219t-116 -146t-166.5 -77.5t-204 -24.5h-561zM627 240h213q133 0 205.5 52t72.5 175q0 221 -264 221h-227v-448z" />
    <glyph glyph-name="uni042B" unicode="&#x42b;" horiz-adv-x="1843" 
d="M160 0v1462h299v-534h246q89 0 165 -15t143.5 -49t115 -86.5t75 -131.5t27.5 -179q0 -102 -27.5 -182t-75 -133t-115 -87.5t-143.5 -49.5t-165 -15h-545zM459 240h196q133 0 205 52t72 175q0 221 -262 221h-211v-448zM1384 0v1462h299v-1462h-299z" />
    <glyph glyph-name="uni042C" unicode="&#x42c;" horiz-adv-x="1314" 
d="M160 0v1462h299v-534h262q112 0 204 -24.5t166.5 -77t116 -144t41.5 -215.5q0 -126 -41.5 -219t-116 -146t-166.5 -77.5t-204 -24.5h-561zM459 240h213q133 0 205.5 52t72.5 175q0 221 -264 221h-227v-448z" />
    <glyph glyph-name="uni042D" unicode="&#x42d;" horiz-adv-x="1286" 
d="M432 -25q-203 0 -358 64l51 231q123 -55 278 -55q113 0 203 34t146.5 93t89 132t39.5 157h-562v239h553q-11 159 -135 268t-329 109q-139 0 -265 -47l-55 232q151 55 350 55q175 0 316 -56.5t234 -157.5t142.5 -240t49.5 -304q0 -221 -87.5 -390.5t-258 -266.5
t-402.5 -97z" />
    <glyph glyph-name="uni042E" unicode="&#x42e;" horiz-adv-x="2078" 
d="M1317 -25q-286 0 -454 176t-193 476h-211v-627h-299v1462h299v-596h215q33 287 199 454t444 167q208 0 356 -97t221.5 -267t73.5 -396q0 -224 -74 -392.5t-222.5 -264t-354.5 -95.5zM1317 215q90 0 158.5 38.5t110 108.5t62.5 162t21 203q0 151 -36 265.5t-117 184.5
t-199 70q-90 0 -158.5 -39.5t-110 -111t-62.5 -164.5t-21 -205q0 -230 88.5 -371t263.5 -141z" />
    <glyph glyph-name="uni042F" unicode="&#x42f;" horiz-adv-x="1349" 
d="M387 0h-356l356 575q-128 45 -201 149t-73 271q0 127 41.5 219.5t116.5 145.5t169.5 77.5t212.5 24.5h537v-1462h-299v535h-193zM678 774h213v447h-201q-137 0 -207.5 -50t-70.5 -172q0 -121 69.5 -173t196.5 -52z" />
    <glyph glyph-name="uni0430" unicode="&#x430;" horiz-adv-x="1193" 
d="M764 680v27q0 180 -240 180q-140 0 -278 -53l-53 208q76 28 173.5 46t178.5 18q510 0 510 -414v-446q0 -158 16 -246h-258q-18 63 -22 133h-5q-42 -73 -124.5 -115.5t-188.5 -42.5q-59 0 -113 10.5t-105.5 36t-89 63t-60.5 96t-23 130.5q0 67 19 120.5t51 91.5t82 66
t105.5 45.5t127.5 28t141.5 14t155.5 3.5zM764 500h-39q-81 0 -141.5 -7.5t-112.5 -26t-79 -54.5t-27 -88q0 -70 42.5 -109t116.5 -39q119 0 179.5 73t60.5 175v76z" />
    <glyph glyph-name="uni0431" unicode="&#x431;" horiz-adv-x="1277" 
d="M647 -25q-179 0 -304.5 80.5t-188.5 233.5q-48 114 -48 350q0 255 38.5 419t144.5 261q129 118 434 145q312 27 387 43l31 -229q-74 -19 -361 -47q-129 -13 -206.5 -31.5t-122.5 -52.5q-97 -71 -101 -268h4q114 184 359 184q204 0 337.5 -146t133.5 -391
q0 -252 -147 -401.5t-390 -149.5zM647 195q119 0 182.5 87.5t63.5 241.5q0 152 -62.5 236t-183.5 84q-122 0 -185 -85t-63 -235q0 -157 64 -243t184 -86z" />
    <glyph glyph-name="uni0432" unicode="&#x432;" horiz-adv-x="1204" 
d="M143 0v1081h594q164 0 256 -66.5t92 -205.5q0 -178 -167 -242v-4q86 -23 141 -87.5t55 -174.5q0 -130 -91.5 -215.5t-274.5 -85.5h-605zM428 197h221q87 0 130.5 27t43.5 102t-51 103t-149 28h-195v-260zM428 649h205q86 0 127 28t41 95q0 66 -41.5 89.5t-116.5 23.5
h-215v-236z" />
    <glyph glyph-name="uni0433" unicode="&#x433;" horiz-adv-x="907" 
d="M143 0v1081h744v-219h-453v-862h-291z" />
    <glyph glyph-name="uni0434" unicode="&#x434;" horiz-adv-x="1325" 
d="M25 -279v498h104q73 120 106 292.5t33 420.5v149h883v-862h139v-498h-231l-19 279h-766l-18 -279h-231zM432 219h428v643h-313v-39q0 -402 -115 -604z" />
    <glyph glyph-name="uni0435" unicode="&#x435;" horiz-adv-x="1212" 
d="M1122 455h-741q11 -131 109 -196.5t247 -65.5q148 0 258 38l33 -213q-153 -43 -326 -43q-286 0 -448 154.5t-162 409.5q0 251 147 409t396 158q233 0 360 -143.5t127 -391.5v-116zM631 909q-102 0 -170 -69.5t-80 -182.5h469q2 114 -58 183t-161 69z" />
    <glyph glyph-name="uni0436" unicode="&#x436;" horiz-adv-x="1710" 
d="M8 0l395 567l-370 514h334l338 -501h4v501h290v-501h5l337 501h336l-370 -514l395 -567h-338l-360 541h-5v-541h-290v541h-4l-359 -541h-338z" />
    <glyph glyph-name="uni0437" unicode="&#x437;" horiz-adv-x="1044" 
d="M463 -25q-228 0 -397 62l55 213q138 -57 307 -57q229 0 229 133q0 72 -56 99.5t-169 27.5h-139v204h119q213 0 213 127q0 111 -199 111q-146 0 -285 -47l-49 201q173 57 387 57q98 0 176 -15.5t138 -48t92.5 -88t32.5 -131.5q0 -86 -49 -152t-142 -93v-5
q108 -23 164.5 -91t56.5 -171q0 -72 -26.5 -129.5t-72 -95.5t-108 -63.5t-132 -36.5t-146.5 -11z" />
    <glyph glyph-name="uni0438" unicode="&#x438;" horiz-adv-x="1316" 
d="M143 0v1081h285v-710h4l408 710h334v-1081h-285v723h-4l-422 -723h-320z" />
    <glyph glyph-name="uni0439" unicode="&#x439;" horiz-adv-x="1316" 
d="M655 1231q-91 0 -159.5 25.5t-108.5 71t-60 100.5t-22 120h195q4 -143 155 -143q154 0 158 143h193q-2 -65 -21.5 -120t-59.5 -100.5t-109 -71t-161 -25.5zM143 0v1081h285v-710h4l408 710h334v-1081h-285v723h-4l-422 -723h-320z" />
    <glyph glyph-name="uni043A" unicode="&#x43a;" horiz-adv-x="1173" 
d="M143 0v1081h291v-497h4l365 497h346l-406 -514l431 -567h-351l-385 537h-4v-537h-291z" />
    <glyph glyph-name="uni043B" unicode="&#x43b;" horiz-adv-x="1294" 
d="M147 -8q-75 0 -133 8v219q20 -4 58 -4q27 0 48.5 5.5t40 20t32.5 33t25.5 51.5t19.5 68t14 90.5t10 110.5t7 137t4.5 160.5t2.5 189.5h875v-1081h-291v862h-305q-1 -206 -14 -349.5t-41 -246.5t-77 -162t-115 -85.5t-161 -26.5z" />
    <glyph glyph-name="uni043C" unicode="&#x43c;" horiz-adv-x="1622" 
d="M143 0v1081h420l244 -843h4l246 843h422v-1081h-269v844h-2l-252 -844h-301l-249 844h-3v-844h-260z" />
    <glyph glyph-name="uni043D" unicode="&#x43d;" horiz-adv-x="1296" 
d="M143 0v1081h291v-411h428v411h291v-1081h-291v451h-428v-451h-291z" />
    <glyph glyph-name="uni043E" unicode="&#x43e;" horiz-adv-x="1290" 
d="M1196 543q0 -262 -150 -415t-401 -153q-253 0 -402 152.5t-149 415.5q0 262 148.5 412.5t402.5 150.5t402.5 -150.5t148.5 -412.5zM905 543q0 158 -66 251t-194 93t-194 -93t-66 -251q0 -162 66 -255t194 -93q129 0 194.5 92.5t65.5 255.5z" />
    <glyph glyph-name="uni043F" unicode="&#x43f;" horiz-adv-x="1286" 
d="M143 0v1081h1000v-1081h-291v862h-418v-862h-291z" />
    <glyph glyph-name="uni0440" unicode="&#x440;" horiz-adv-x="1314" 
d="M434 119v-518h-291v1480h285v-139h4q58 81 146.5 122.5t185.5 41.5q144 0 249 -76t156.5 -202.5t51.5 -286.5t-53.5 -287t-159.5 -203t-250 -76q-212 0 -320 144h-4zM930 541q0 156 -61.5 251t-182.5 95q-125 0 -197.5 -96t-72.5 -250t72.5 -251t197.5 -97
q121 0 182.5 96t61.5 252z" />
    <glyph glyph-name="uni0441" unicode="&#x441;" horiz-adv-x="980" 
d="M922 1071l-50 -217q-79 33 -174 33q-149 0 -231 -98t-82 -250q0 -151 81.5 -247.5t238.5 -96.5q108 0 176 30l45 -213q-107 -37 -246 -37q-187 0 -321.5 74.5t-199.5 200.5t-65 289q0 251 157 409t427 158q143 0 244 -35z" />
    <glyph glyph-name="uni0442" unicode="&#x442;" horiz-adv-x="995" 
d="M352 0v862h-332v219h955v-219h-332v-862h-291z" />
    <glyph glyph-name="uni0443" unicode="&#x443;" horiz-adv-x="1159" 
d="M322 1081l262 -725h4l260 725h305l-586 -1480h-309l176 424l-426 1056h314z" />
    <glyph glyph-name="uni0444" unicode="&#x444;" horiz-adv-x="1630" 
d="M670 -399v387q-124 4 -227.5 39t-183.5 101.5t-124.5 172t-44.5 240.5q0 134 42 238t120 171t183 103t235 41v411h291v-411q130 -5 235 -41t182.5 -103t119.5 -171t42 -238q0 -135 -44 -240.5t-123.5 -172t-183 -101.5t-228.5 -39v-387h-291zM670 207v667
q-139 -6 -214 -95t-75 -238q0 -152 75 -240t214 -94zM961 207q137 6 212.5 94t75.5 240q0 148 -75 237.5t-213 95.5v-667z" />
    <glyph glyph-name="uni0445" unicode="&#x445;" horiz-adv-x="1138" 
d="M780 1081h320l-332 -520l358 -561h-329l-226 381l-231 -381h-332l363 561l-334 520h328l206 -350z" />
    <glyph glyph-name="uni0446" unicode="&#x446;" horiz-adv-x="1316" 
d="M1051 -279l-19 279h-889v1081h291v-862h418v862h291v-862h139v-498h-231z" />
    <glyph glyph-name="uni0447" unicode="&#x447;" horiz-adv-x="1196" 
d="M762 0v401q-127 -39 -281 -39q-68 0 -123 11t-103 37.5t-81 68.5t-51.5 106t-18.5 148v348h289v-278q0 -122 42.5 -170.5t154.5 -48.5q100 0 172 30v467h291v-1081h-291z" />
    <glyph glyph-name="uni0448" unicode="&#x448;" horiz-adv-x="1857" 
d="M143 0v1081h291v-862h350v862h291v-862h348v862h291v-1081h-1571z" />
    <glyph glyph-name="uni0449" unicode="&#x449;" horiz-adv-x="1888" 
d="M1622 -279l-18 279h-1461v1081h291v-862h350v862h291v-862h348v862h291v-862h139v-498h-231z" />
    <glyph glyph-name="uni044A" unicode="&#x44a;" horiz-adv-x="1290" 
d="M274 0v862h-254v219h545v-358h240q94 0 168.5 -19t133 -60t90.5 -111.5t32 -167.5q0 -99 -32 -171.5t-90.5 -113.5t-133 -60.5t-168.5 -19.5h-531zM565 211h185q96 0 145 32t49 119q0 150 -184 150h-195v-301z" />
    <glyph glyph-name="uni044B" unicode="&#x44b;" horiz-adv-x="1640" 
d="M143 0v1081h291v-360h225q93 0 167 -19t132.5 -59.5t90.5 -111t32 -166.5q0 -99 -32 -171.5t-90.5 -113.5t-133 -60.5t-168.5 -19.5h-514zM434 209h168q96 0 145.5 32.5t49.5 120.5q0 150 -183 150h-180v-303zM1206 0v1081h291v-1081h-291z" />
    <glyph glyph-name="uni044C" unicode="&#x44c;" horiz-adv-x="1157" 
d="M143 0v1081h291v-360h240q93 0 167 -19t132.5 -59.5t90.5 -111t32 -166.5q0 -99 -32 -171.5t-90.5 -113.5t-132.5 -60.5t-167 -19.5h-531zM434 209h182q96 0 145.5 32.5t49.5 120.5q0 45 -16.5 76t-47.5 46.5t-66 21.5t-81 6h-166v-303z" />
    <glyph glyph-name="uni044D" unicode="&#x44d;" horiz-adv-x="1015" 
d="M342 -25q-148 0 -279 41l46 213q95 -34 200 -34q148 0 229 68t95 188h-402v204h396q-14 106 -97.5 169t-212.5 63q-98 0 -194 -29l-53 209q127 39 276 39q270 0 423 -154.5t153 -414.5q0 -256 -151.5 -409t-428.5 -153z" />
    <glyph glyph-name="uni044E" unicode="&#x44e;" horiz-adv-x="1753" 
d="M1126 -25q-218 0 -359 126.5t-169 349.5h-164v-451h-291v1081h291v-411h170q34 206 173 321t349 115q241 0 387 -150t146 -411q0 -262 -148 -416t-385 -154zM1126 195q118 0 180 95t62 255q0 153 -62.5 247.5t-179.5 94.5q-119 0 -181 -94.5t-62 -247.5q0 -160 62.5 -255
t180.5 -95z" />
    <glyph glyph-name="uni044F" unicode="&#x44f;" horiz-adv-x="1202" 
d="M55 0l256 399q-205 83 -205 322q0 98 33 169.5t92.5 112t132 59.5t160.5 19h535v-1081h-291v358h-164l-215 -358h-334zM584 567h184v305h-174q-100 0 -151.5 -33t-51.5 -120q0 -84 51 -118t142 -34z" />
    <glyph glyph-name="uni0450" unicode="&#x450;" horiz-adv-x="1212" 
d="M565 1237l-272 336h305l186 -336h-219zM1122 455h-741q11 -131 109 -196.5t247 -65.5q148 0 258 38l33 -213q-153 -43 -326 -43q-286 0 -448 154.5t-162 409.5q0 251 147 409t396 158q233 0 360 -143.5t127 -391.5v-116zM631 909q-102 0 -170 -69.5t-80 -182.5h469
q2 114 -58 183t-161 69z" />
    <glyph glyph-name="uni0451" unicode="&#x451;" horiz-adv-x="1212" 
d="M551 1522v-242h-254v242h254zM973 1522v-242h-256v242h256zM1122 455h-741q11 -131 109 -196.5t247 -65.5q148 0 258 38l33 -213q-153 -43 -326 -43q-286 0 -448 154.5t-162 409.5q0 251 147 409t396 158q233 0 360 -143.5t127 -391.5v-116zM631 909q-102 0 -170 -69.5
t-80 -182.5h469q2 114 -58 183t-161 69z" />
    <glyph glyph-name="uni0452" unicode="&#x452;" horiz-adv-x="1294" 
d="M721 -399q-82 0 -139 8v219q49 -8 92 -8q110 0 152 70t42 212v478q0 142 -43 212t-157 70q-96 0 -165 -74t-69 -227v-561h-291v1157h-163v191h163v157h291v-157h324v-191h-324v-246h4q42 81 128.5 125.5t193.5 44.5q183 0 291 -107t108 -286v-635q0 -127 -28 -215
t-85.5 -139.5t-136 -74.5t-188.5 -23z" />
    <glyph glyph-name="uni0453" unicode="&#x453;" horiz-adv-x="907" 
d="M815 1573l-272 -336h-219l186 336h305zM143 0v1081h744v-219h-453v-862h-291z" />
    <glyph glyph-name="uni0454" unicode="&#x454;" horiz-adv-x="1015" 
d="M674 -25q-277 0 -428.5 153t-151.5 409q0 260 153 414.5t423 154.5q149 0 276 -39l-53 -209q-96 29 -195 29q-127 0 -211 -63t-98 -169h389v-204h-395q8 -118 91.5 -187t232.5 -69q105 0 200 34l45 -213q-131 -41 -278 -41z" />
    <glyph glyph-name="uni0455" unicode="&#x455;" horiz-adv-x="1007" 
d="M870 1044l-63 -215q-143 58 -295 58q-143 0 -143 -88q0 -45 42 -75.5t158 -66.5q184 -58 272.5 -137.5t88.5 -214.5q0 -71 -26.5 -128.5t-69.5 -94.5t-102 -61.5t-121.5 -35t-129.5 -10.5q-101 0 -211 20.5t-194 55.5l57 221q85 -36 181 -56.5t165 -20.5q87 0 130.5 22
t43.5 74q0 46 -48.5 77t-178.5 72q-174 57 -253 135.5t-79 194.5q0 85 36 151.5t97 105.5t134.5 59t154.5 20q194 0 354 -62z" />
    <glyph glyph-name="uni0456" unicode="&#x456;" horiz-adv-x="577" 
d="M143 1081h291v-1081h-291v1081zM143 1499h291v-252h-291v252z" />
    <glyph glyph-name="uni0457" unicode="&#x457;" horiz-adv-x="577" 
d="M209 1522v-242h-254v242h254zM631 1522v-242h-256v242h256zM143 1081h293v-1081h-293v1081z" />
    <glyph glyph-name="uni0458" unicode="&#x458;" horiz-adv-x="577" 
d="M434 1081v-1130q0 -172 -85.5 -261t-289.5 -89q-82 0 -139 8v219q49 -8 92 -8q75 0 103 38t28 128v1095h291zM143 1499h291v-252h-291v252z" />
    <glyph glyph-name="uni0459" unicode="&#x459;" horiz-adv-x="1873" 
d="M147 -8q-75 0 -133 8v219q20 -4 58 -4q27 0 48.5 5.5t40 20t32.5 33t25.5 51.5t19.5 68t14 90.5t10 110.5t7 137t4.5 160.5t2.5 189.5h875v-358h240q93 0 167 -19t132.5 -60t90 -111.5t31.5 -167.5q0 -99 -31.5 -171t-90.5 -113.5t-133 -61t-168 -19.5h-529v862h-305
q-1 -206 -14 -349.5t-41 -246.5t-77 -162t-115 -85.5t-161 -26.5zM1151 211h182q96 0 145.5 32t49.5 119q0 150 -182 150h-195v-301z" />
    <glyph glyph-name="uni045A" unicode="&#x45a;" horiz-adv-x="1875" 
d="M143 0v1081h291v-397h428v397h291v-397h260q197 0 299.5 -79t102.5 -259q0 -186 -102.5 -266t-299.5 -80h-551v467h-428v-467h-291zM1153 209h199q90 0 134 29t44 108q0 71 -43.5 100t-124.5 29h-209v-266z" />
    <glyph glyph-name="uni045B" unicode="&#x45b;" horiz-adv-x="1294" 
d="M143 0v1157h-163v191h163v157h291v-157h324v-191h-324v-246h4q42 81 128.5 125.5t193.5 44.5q183 0 291 -107t108 -286v-688h-291v580q0 142 -43 212t-157 70q-96 0 -165 -74t-69 -227v-561h-291z" />
    <glyph glyph-name="uni045C" unicode="&#x45c;" horiz-adv-x="1173" 
d="M940 1573l-272 -336h-219l186 336h305zM143 0v1081h291v-497h4l365 497h346l-406 -514l431 -567h-351l-385 537h-4v-537h-291z" />
    <glyph glyph-name="uni045D" unicode="&#x45d;" horiz-adv-x="1316" 
d="M584 1237l-273 336h305l187 -336h-219zM143 0v1081h285v-710h4l408 710h334v-1081h-285v723h-4l-422 -723h-320z" />
    <glyph glyph-name="uni045E" unicode="&#x45e;" horiz-adv-x="1159" 
d="M590 1231q-91 0 -159.5 25.5t-108.5 71t-60 100.5t-22 120h194q4 -143 156 -143q154 0 158 143h192q-1 -52 -13 -97t-39 -86t-66 -70.5t-98.5 -46.5t-133.5 -17zM322 1081l262 -725h4l260 725h305l-586 -1480h-309l176 424l-426 1056h314z" />
    <glyph glyph-name="uni045F" unicode="&#x45f;" horiz-adv-x="1286" 
d="M545 -279l-19 279h-383v1081h291v-862h418v862h291v-1081h-377l-18 -279h-203z" />
    <glyph glyph-name="uni0490" unicode="&#x490;" horiz-adv-x="1048" 
d="M160 0v1462h612l21 303h233v-542h-567v-1223h-299z" />
    <glyph glyph-name="uni0491" unicode="&#x491;" horiz-adv-x="907" 
d="M143 0v1081h508l21 265h215v-484h-453v-862h-291z" />
    <glyph glyph-name="Wgrave" unicode="&#x1e80;" horiz-adv-x="2007" 
d="M1208 0l-200 1190h-4l-205 -1190h-420l-318 1462h326l209 -1196h4l188 1196h441l182 -1196h4l215 1196h318l-318 -1462h-422zM641 1860h322l192 -297h-235z" />
    <glyph glyph-name="wgrave" unicode="&#x1e81;" horiz-adv-x="1769" 
d="M1069 1081l184 -819h4l170 819h297l-284 -1081h-373l-182 831h-4l-183 -831h-370l-283 1081h299l176 -819h4l174 819h371zM805 1237l-273 336h306l186 -336h-219z" />
    <glyph glyph-name="Wacute" unicode="&#x1e82;" horiz-adv-x="2007" 
d="M1208 0l-200 1190h-4l-205 -1190h-420l-318 1462h326l209 -1196h4l188 1196h441l182 -1196h4l215 1196h318l-318 -1462h-422zM1382 1860l-280 -297h-236l195 297h321z" />
    <glyph glyph-name="wacute" unicode="&#x1e83;" horiz-adv-x="1769" 
d="M1069 1081l184 -819h4l170 819h297l-284 -1081h-373l-182 831h-4l-183 -831h-370l-283 1081h299l176 -819h4l174 819h371zM1247 1573l-272 -336h-219l186 336h305z" />
    <glyph glyph-name="Wdieresis" unicode="&#x1e84;" horiz-adv-x="2007" 
d="M1208 0l-200 1190h-4l-205 -1190h-420l-318 1462h326l209 -1196h4l188 1196h441l182 -1196h4l215 1196h318l-318 -1462h-422zM922 1853v-249h-254v249h254zM1343 1853v-249h-256v249h256z" />
    <glyph glyph-name="wdieresis" unicode="&#x1e85;" horiz-adv-x="1769" 
d="M1069 1081l184 -819h4l170 819h297l-284 -1081h-373l-182 831h-4l-183 -831h-370l-283 1081h299l176 -819h4l174 819h371zM799 1522v-242h-254v242h254zM1221 1522v-242h-256v242h256z" />
    <glyph glyph-name="Ygrave" unicode="&#x1ef2;" horiz-adv-x="1378" 
d="M541 0v557l-539 905h350l340 -622l342 622h342l-536 -905v-557h-299zM326 1860h321l193 -297h-236z" />
    <glyph glyph-name="ygrave" unicode="&#x1ef3;" horiz-adv-x="1159" 
d="M322 1081l262 -725h4l260 725h305l-586 -1480h-309l176 424l-426 1056h314zM483 1237l-272 336h305l186 -336h-219z" />
    <glyph glyph-name="uni2010" unicode="&#x2010;" horiz-adv-x="811" 
d="M141 498v235h529v-235h-529z" />
    <glyph glyph-name="uni2011" unicode="&#x2011;" horiz-adv-x="811" 
d="M141 498v235h529v-235h-529z" />
    <glyph glyph-name="endash" unicode="&#x2013;" horiz-adv-x="1015" 
d="M965 711v-193h-914v193h914z" />
    <glyph glyph-name="emdash" unicode="&#x2014;" horiz-adv-x="1630" 
d="M1579 711v-193h-1528v193h1528z" />
    <glyph glyph-name="afii00208" unicode="&#x2015;" horiz-adv-x="1630" 
d="M1579 711v-193h-1528v193h1528z" />
    <glyph glyph-name="quoteleft" unicode="&#x2018;" horiz-adv-x="600" 
d="M485 1505l-94 -499h-276l172 499h198z" />
    <glyph glyph-name="quoteright" unicode="&#x2019;" horiz-adv-x="600" 
d="M115 1004l94 501h276l-172 -501h-198z" />
    <glyph glyph-name="quotesinglbase" unicode="&#x201a;" horiz-adv-x="602" 
d="M115 -283l94 500h276l-172 -500h-198z" />
    <glyph glyph-name="quotedblleft" unicode="&#x201c;" horiz-adv-x="978" 
d="M864 1505l-94 -501h-260l156 501h198zM485 1505l-110 -501h-260l174 501h196z" />
    <glyph glyph-name="quotedblright" unicode="&#x201d;" horiz-adv-x="978" 
d="M115 1006l94 499h260l-156 -499h-198zM492 1006l110 499h262l-174 -499h-198z" />
    <glyph glyph-name="quotedblbase" unicode="&#x201e;" horiz-adv-x="978" 
d="M115 -283l94 500h260l-156 -500h-198zM492 -283l110 500h262l-174 -500h-198z" />
    <glyph glyph-name="dagger" unicode="&#x2020;" horiz-adv-x="1050" 
d="M653 1368v-356h340v-207h-340v-1057h-252v1057h-342v207h342v356h252z" />
    <glyph glyph-name="daggerdbl" unicode="&#x2021;" horiz-adv-x="1050" 
d="M653 1368v-348h334v-207h-334v-514h334v-207h-334v-344h-252v344h-335v207h335v514h-335v207h335v348h252z" />
    <glyph glyph-name="bullet" unicode="&#x2022;" horiz-adv-x="944" 
d="M135 674q0 140 98.5 239t237.5 99q141 0 239.5 -99t98.5 -239t-98.5 -238t-239.5 -98q-139 0 -237.5 98t-98.5 238z" />
    <glyph glyph-name="ellipsis" unicode="&#x2026;" horiz-adv-x="1894" 
d="M156 0v322h315v-322h-315zM788 0v322h316v-322h-316zM1423 0v322h314v-322h-314z" />
    <glyph glyph-name="perthousand" unicode="&#x2030;" horiz-adv-x="2473" 
d="M1401 1462l-852 -1462h-209l858 1462h203zM731 1063q0 -187 -83 -293t-238 -106q-151 0 -235.5 106.5t-84.5 292.5q0 189 84.5 296t235.5 107q155 0 238 -106.5t83 -296.5zM514 1063q0 99 -26.5 158t-77.5 59q-49 0 -75 -59t-26 -158q0 -96 26 -155.5t75 -59.5
q51 0 77.5 59.5t26.5 155.5zM1649 399q0 -187 -84.5 -293t-239.5 -106q-151 0 -235 106.5t-84 292.5q0 189 84 296.5t235 107.5q155 0 239.5 -107.5t84.5 -296.5zM1427 399q0 99 -25.5 158t-76.5 59q-49 0 -74.5 -59t-25.5 -158q0 -98 25.5 -156.5t74.5 -58.5
q51 0 76.5 58.5t25.5 156.5zM2384 399q0 -187 -84.5 -293t-239.5 -106q-151 0 -235 106.5t-84 292.5q0 189 84 296.5t235 107.5q155 0 239.5 -107.5t84.5 -296.5zM2165 399q0 99 -26.5 158t-78.5 59q-49 0 -74.5 -59t-25.5 -158q0 -98 25.5 -156.5t74.5 -58.5
q52 0 78.5 58.5t26.5 156.5z" />
    <glyph glyph-name="guilsinglleft" unicode="&#x2039;" horiz-adv-x="729" 
d="M612 1030l-245 -420l245 -422h-252l-243 416v10l252 416h243z" />
    <glyph glyph-name="guilsinglright" unicode="&#x203a;" horiz-adv-x="729" 
d="M117 188l245 422l-245 420h252l243 -416v-10l-252 -416h-243z" />
    <glyph glyph-name="interrobang" unicode="&#x203d;" horiz-adv-x="1034" 
d="M571 1061l-10 -242h4l45 39q57 53 82 99.5t25 107.5q0 68 -35.5 112.5t-85 61t-109.5 16.5q-152 0 -313 -88l-80 209q177 111 420 111q75 0 142.5 -13.5t128.5 -44.5t105.5 -77.5t70.5 -117.5t26 -159q0 -126 -50.5 -209.5t-154.5 -158.5q-110 -80 -145 -121.5
t-35 -102.5v-26h-272l-21 604h262zM311 0v307h318v-307h-318z" />
    <glyph glyph-name="fraction" unicode="&#x2044;" horiz-adv-x="247" 
d="M643 1462l-829 -1462h-209l831 1462h207z" />
    <glyph glyph-name="zero.superior" unicode="&#x2070;" 
d="M393 1769q165 0 252.5 -121.5t87.5 -338.5q0 -214 -87 -330.5t-253 -116.5q-165 0 -250.5 116t-85.5 331q0 218 85.5 339t250.5 121zM393 1602q-66 0 -100.5 -81t-34.5 -212q0 -129 34 -204t101 -75t102 75t35 204q0 130 -35.5 211.5t-101.5 81.5z" />
    <glyph glyph-name="four.superior" unicode="&#x2074;" 
d="M649 1753v-539h92v-165h-92v-172h-205v172h-397v196l328 508h274zM444 1214v349h-4l-207 -349h211z" />
    <glyph glyph-name="five.superior" unicode="&#x2075;" 
d="M498 1149q0 127 -195 127q-72 0 -172 -14l29 493h510v-166h-326l-12 -164q36 5 76 5q129 0 213 -73t84 -198q0 -145 -94.5 -221t-241.5 -76q-157 0 -285 58l49 155q100 -49 207 -49q69 0 113.5 29t44.5 94z" />
    <glyph glyph-name="six.superior" unicode="&#x2076;" 
d="M268 1192q0 -64 35.5 -115t99.5 -51q56 0 90.5 40.5t34.5 104.5q0 58 -33.5 99t-93.5 41q-62 0 -97.5 -36t-35.5 -83zM268 1401h2q32 30 79.5 46.5t90.5 16.5q140 0 214.5 -80.5t74.5 -212.5q0 -135 -92 -222t-240 -87q-76 0 -136 25.5t-97 66t-61.5 96.5t-34 112
t-9.5 118q0 105 24 192.5t72 154.5t126.5 104.5t181.5 37.5q95 0 172 -22l-29 -164q-65 21 -129 21q-93 0 -144.5 -53.5t-64.5 -149.5z" />
    <glyph glyph-name="seven.superior" unicode="&#x2077;" 
d="M94 1589v166h600v-164q-229 -364 -254 -714h-213q15 167 83.5 361t166.5 351h-383z" />
    <glyph glyph-name="eight.superior" unicode="&#x2078;" 
d="M395 1247q-50 0 -91.5 -30.5t-41.5 -83.5q0 -52 37.5 -80.5t95.5 -28.5t96.5 28.5t38.5 80.5q0 53 -43 83.5t-92 30.5zM389 1769q85 0 156 -26t116.5 -81t45.5 -130q0 -141 -132 -193v-4q158 -66 158 -223q0 -118 -96 -184t-244 -66q-147 0 -242.5 66t-95.5 184
q0 84 43.5 137.5t112.5 77.5v4q-131 64 -131 201q0 112 89.5 174.5t219.5 62.5zM395 1405q48 0 83.5 27.5t35.5 78.5q0 46 -34.5 74.5t-86.5 28.5q-51 0 -84 -28.5t-33 -74.5q0 -51 35.5 -78.5t83.5 -27.5z" />
    <glyph glyph-name="nine.superior" unicode="&#x2079;" 
d="M520 1440q0 63 -35.5 113.5t-99.5 50.5q-55 0 -90 -40.5t-35 -105.5q0 -58 33.5 -98.5t93.5 -40.5q61 0 97 37t36 84zM520 1229h-2q-33 -33 -80.5 -49.5t-91.5 -16.5q-138 0 -212.5 81t-74.5 212q0 137 91 225t239 88q77 0 137.5 -25.5t97.5 -66t61.5 -97t34 -112.5
t9.5 -118q0 -105 -24 -192t-72 -154t-127 -104.5t-182 -37.5q-99 0 -181 21l29 166q61 -23 137 -23q95 0 147.5 54t63.5 149z" />
    <glyph glyph-name="zero.inferior" unicode="&#x2080;" 
d="M393 606q165 0 252.5 -122t87.5 -339q0 -214 -87 -330t-253 -116q-165 0 -250.5 115.5t-85.5 330.5q0 218 86 339.5t250 121.5zM393 438q-66 0 -100.5 -81t-34.5 -212q0 -129 34 -203.5t101 -74.5t102 75t35 203q0 130 -35.5 211.5t-101.5 81.5z" />
    <glyph glyph-name="one.inferior" unicode="&#x2081;" 
d="M543 590v-877h-211v682l-158 -86l-68 158l228 123h209z" />
    <glyph glyph-name="two.inferior" unicode="&#x2082;" 
d="M694 -123v-164h-602v168q222 188 302.5 281t80.5 166q0 52 -33 81t-88 29q-94 0 -200 -61l-62 147q59 39 135 60.5t148 21.5q141 0 222 -71t81 -199q0 -59 -18.5 -110t-64 -107.5t-100.5 -109t-149 -132.5h348z" />
    <glyph glyph-name="three.inferior" unicode="&#x2083;" 
d="M205 80v162h108q164 0 164 102q0 48 -34 72t-91 24q-94 0 -192 -45l-47 158q112 53 264 53q64 0 117.5 -13t96.5 -40t67 -73t24 -107q0 -149 -139 -197v-4q79 -22 119 -79t40 -128q0 -69 -27 -121.5t-74.5 -83.5t-108 -46t-132.5 -15q-153 0 -276 57l51 158
q110 -49 213 -49q67 0 107.5 27t40.5 81q0 107 -185 107h-106z" />
    <glyph glyph-name="four.inferior" unicode="&#x2084;" 
d="M649 590v-539h92v-166h-92v-172h-205v172h-397v197l328 508h274zM444 51v348h-4l-207 -348h211z" />
    <glyph glyph-name="five.inferior" unicode="&#x2085;" 
d="M498 -14q0 127 -195 127q-65 0 -172 -15l29 494h510v-166h-326l-12 -164q29 4 76 4q129 0 213 -72.5t84 -197.5q0 -145 -94.5 -221t-241.5 -76q-159 0 -285 57l49 156q100 -49 207 -49q69 0 113.5 29t44.5 94z" />
    <glyph glyph-name="six.inferior" unicode="&#x2086;" 
d="M268 29q0 -64 35.5 -115t99.5 -51q56 0 90.5 40.5t34.5 104.5q0 58 -33.5 98.5t-93.5 40.5q-62 0 -97.5 -35.5t-35.5 -82.5zM268 238h2q32 30 79.5 46.5t90.5 16.5q140 0 214.5 -80.5t74.5 -212.5q0 -135 -92 -222t-240 -87q-76 0 -136 25.5t-97 66t-61.5 96.5t-34 112
t-9.5 118q0 105 24 192.5t72 154.5t126.5 104.5t181.5 37.5q95 0 172 -22l-29 -164q-62 20 -129 20q-183 0 -209 -202z" />
    <glyph glyph-name="seven.inferior" unicode="&#x2087;" 
d="M94 426v166h600v-164q-229 -364 -254 -715h-213q15 167 83.5 361.5t166.5 351.5h-383z" />
    <glyph glyph-name="eight.inferior" unicode="&#x2088;" 
d="M395 84q-50 0 -91.5 -31t-41.5 -84q0 -52 37.5 -80t95.5 -28q59 0 97 28t38 80q0 53 -43 84t-92 31zM389 606q85 0 156 -26t116.5 -81t45.5 -130q0 -141 -132 -193v-4q158 -66 158 -223q0 -118 -96 -184t-244 -66q-147 0 -242.5 66t-95.5 184q0 84 43.5 137.5t112.5 77.5
v4q-131 64 -131 201q0 112 89.5 174.5t219.5 62.5zM395 242q48 0 83.5 27.5t35.5 78.5q0 46 -34.5 74.5t-86.5 28.5q-51 0 -84 -28.5t-33 -74.5q0 -51 35.5 -78.5t83.5 -27.5z" />
    <glyph glyph-name="nine.inferior" unicode="&#x2089;" 
d="M520 276q0 63 -35.5 113.5t-99.5 50.5q-56 0 -90.5 -40.5t-34.5 -104.5q0 -58 33.5 -98.5t93.5 -40.5q61 0 97 36.5t36 83.5zM520 66h-2q-33 -33 -80.5 -49.5t-91.5 -16.5q-138 0 -212.5 81t-74.5 212q0 137 91 225t239 88q77 0 137.5 -25.5t97.5 -66.5t61.5 -97
t34 -112.5t9.5 -118.5q0 -105 -24 -192t-72 -154t-127 -104t-182 -37t-181 20l29 166q58 -22 137 -22q95 0 147.5 54t63.5 149z" />
    <glyph glyph-name="Euro" unicode="&#x20ac;" horiz-adv-x="1329" 
d="M86 688h131v39q0 53 2 80h-182l51 180h162q63 231 240.5 365.5t447.5 134.5q202 0 332 -53l-70 -236q-96 47 -233 47q-162 0 -268.5 -66.5t-149.5 -191.5h586l-50 -180h-567q-4 -54 -4 -82v-37h545l-49 -180h-471q36 -137 145.5 -214t280.5 -77q144 0 256 47l53 -235
q-146 -54 -348 -54q-269 0 -448.5 143.5t-237.5 389.5h-205z" />
    <glyph glyph-name="afii61248" unicode="&#x2105;" horiz-adv-x="1597" 
d="M434 801q-172 0 -265 94t-93 246t96 248t262 96q87 0 158 -25l-33 -153q-53 22 -113 22q-83 0 -126.5 -52.5t-43.5 -135.5q0 -81 44 -133t129 -52q55 0 116 25l31 -154q-79 -26 -162 -26zM250 0l831 1462h205l-827 -1462h-209zM1184 -25q-155 0 -247.5 92.5t-92.5 249.5
q0 160 92 251t248 91q158 0 249 -91t91 -251q0 -157 -92.5 -249.5t-247.5 -92.5zM1184 131q69 0 104 49t35 137q0 87 -35 137t-104 50t-104.5 -50t-35.5 -137t36.5 -136.5t103.5 -49.5z" />
    <glyph glyph-name="afii61289" unicode="&#x2113;" horiz-adv-x="913" 
d="M150 750q0 121 6.5 215.5t22.5 183t45 151t71.5 110.5t104 71.5t141.5 23.5q286 0 286 -358q0 -243 -100 -440.5t-285 -319.5q18 -97 61.5 -137.5t117.5 -40.5q77 0 151 31l12 -220q-109 -32 -223 -32q-152 0 -238.5 67.5t-125.5 220.5q-66 -20 -146 -36v227
q66 13 107 31q-8 148 -8 252zM416 750v-117q84 75 129 209.5t45 298.5q0 64 -16.5 107.5t-51.5 43.5q-58 0 -82 -135t-24 -407z" />
    <glyph glyph-name="uni2116" unicode="&#x2116;" horiz-adv-x="2232" 
d="M160 0v1462h448l445 -1128h4v1128h278v-1462h-432l-459 1145h-6v-1145h-278zM1511 530v185h609v-185h-609zM1817 801q-156 0 -250 92.5t-94 251.5q0 157 94 249.5t250 92.5t249 -92t93 -250q0 -159 -93.5 -251.5t-248.5 -92.5zM1817 954q68 0 101.5 50t33.5 141
q0 86 -34 136t-101 50q-68 0 -103 -50t-35 -136q0 -90 35.5 -140.5t102.5 -50.5z" />
    <glyph glyph-name="published" unicode="&#x2117;" horiz-adv-x="1630" 
d="M188 727q0 -130 46.5 -247t128 -203t200 -136.5t256.5 -50.5q180 0 324 86t222.5 231.5t78.5 319.5q0 176 -78.5 323.5t-222.5 235.5t-324 88q-183 0 -328.5 -88t-224 -235t-78.5 -324zM68 727q0 156 56 295t154 240t238.5 160t302.5 59q160 0 299.5 -59t236.5 -160
t152.5 -240t55.5 -295q0 -154 -55.5 -291t-152.5 -237t-236.5 -158.5t-299.5 -58.5q-162 0 -302.5 58.5t-238.5 158.5t-154 237t-56 291zM532 291v870h349q69 0 126 -15t103 -46.5t72 -88t26 -132.5q0 -77 -26 -134.5t-72 -91.5t-103.5 -50.5t-125.5 -16.5h-146v-295h-203z
M735 995v-245h125q146 0 146 124q0 66 -40 93.5t-114 27.5h-117z" />
    <glyph glyph-name="trademark" unicode="&#x2122;" horiz-adv-x="1896" 
d="M748 1462v-141h-211v-643h-177v643h-215v141h603zM1686 1462v-784h-173v608h-4l-172 -608h-170l-170 608h-4v-608h-159v784h272l147 -577h4l148 577h281z" />
    <glyph glyph-name="Omega" unicode="&#x2126;" horiz-adv-x="1591" 
d="M795 1247q-120 0 -203.5 -55.5t-121.5 -148t-38 -214.5q0 -166 61 -276t197 -164v-389h-557v240h307v53q-307 153 -307 543q0 189 77 335t228.5 231t356.5 85q155 0 281 -49t209 -136t128 -206t45 -260q0 -393 -307 -543v-53h307v-240h-557v389q136 54 197 164t61 276
q0 188 -92 303t-272 115z" />
    <glyph glyph-name="estimated" unicode="&#x212e;" horiz-adv-x="1615" 
d="M1282 258h129q-54 -61 -110 -107t-132 -87.5t-174 -64t-213 -22.5q-113 0 -218.5 29t-195 87t-157 138.5t-105.5 189.5t-38 234q0 120 39.5 229t111 193t166 146.5t208 95.5t234.5 33q141 0 261.5 -39.5t204.5 -106.5t143.5 -155.5t87.5 -186t28 -198.5v-7h-1167l-16 -20
v-436q175 -158 426 -158q295 0 487 213zM1237 727l16 18v390q-92 86 -196.5 117.5t-229.5 31.5q-282 0 -458 -166v-373l16 -18h852z" />
    <glyph glyph-name="partialdiff" unicode="&#x2202;" horiz-adv-x="1284" 
d="M834 889q-69 139 -232.5 258t-353.5 186l174 160q121 -42 230 -103t207.5 -147t169.5 -187.5t113 -230.5t42 -270q0 -139 -42 -250t-116.5 -182t-174 -108.5t-216.5 -37.5q-237 0 -385 136.5t-148 365.5q0 221 130.5 353.5t336.5 132.5q162 0 260 -76h5zM649 776
q-123 0 -191.5 -81.5t-68.5 -215.5q0 -128 68 -206t186 -78q110 0 184 78t74 214t-71.5 212.5t-180.5 76.5z" />
    <glyph glyph-name="Delta" unicode="&#x2206;" horiz-adv-x="1449" 
d="M1378 0h-1306v240l452 1222h408l446 -1222v-240zM725 1229l-338 -989h674z" />
    <glyph glyph-name="product" unicode="&#x220f;" horiz-adv-x="1484" 
d="M162 -399v1861h1175v-1861h-297v1620h-579v-1620h-299z" />
    <glyph glyph-name="summation" unicode="&#x2211;" horiz-adv-x="1341" 
d="M946 559l-514 -721l844 2v-239h-1190v237l514 711l-487 672v241h1136v-239h-782z" />
    <glyph glyph-name="minus" unicode="&#x2212;" horiz-adv-x="1132" 
d="M1059 543h-987v205h987v-205z" />
    <glyph glyph-name="uni2215" unicode="&#x2215;" horiz-adv-x="247" 
d="M643 1462l-829 -1462h-209l831 1462h207z" />
    <glyph glyph-name="uni2219" unicode="&#x2219;" horiz-adv-x="624" 
d="M156 457v321h315v-321h-315z" />
    <glyph glyph-name="radical" unicode="&#x221a;" horiz-adv-x="1245" 
d="M469 520l184 -696h4l314 1638h270l-387 -1861h-383l-203 690h-231v229h432z" />
    <glyph glyph-name="infinity" unicode="&#x221e;" horiz-adv-x="1814" 
d="M776 520q-44 113 -105 174.5t-149 61.5q-92 0 -143 -68t-51 -170q0 -98 51 -159.5t141 -61.5q164 0 256 223zM893 289q-70 -118 -170.5 -179t-220.5 -61q-195 0 -306.5 130.5t-111.5 340.5q0 218 112 348.5t314 130.5q135 0 234.5 -58.5t173.5 -184.5q71 120 172 180.5
t221 60.5q197 0 308.5 -129.5t111.5 -341.5q0 -217 -112 -348t-314 -131q-135 0 -236 59.5t-176 182.5zM1038 528q44 -115 104 -176t148 -61q93 0 145 67.5t52 169.5q0 99 -52 161.5t-141 62.5q-163 0 -256 -224z" />
    <glyph glyph-name="integral" unicode="&#x222b;" horiz-adv-x="813" 
d="M256 -37v1143q0 166 91.5 261t289.5 95q87 0 156 -14l-21 -219q-41 10 -92 10q-133 0 -133 -147v-1143q0 -165 -93 -257.5t-292 -92.5q-81 0 -150 14l21 219q41 -10 90 -10q69 0 101 33t32 108z" />
    <glyph glyph-name="approxequal" unicode="&#x2248;" horiz-adv-x="1132" 
d="M815 901q148 5 236 107v-226q-102 -94 -265 -94q-66 0 -130 21t-107 46.5t-102 46.5t-115 21q-155 0 -250 -106v225q98 94 266 94q67 0 132.5 -21t109 -46.5t104.5 -46.5t121 -21zM815 451q149 5 236 106v-227q-100 -92 -265 -92q-66 0 -130 21t-107 46.5t-102 46.5
t-115 21q-152 0 -250 -109v228q98 94 266 94q67 0 132.5 -21t109 -46.5t104.5 -46.5t121 -21z" />
    <glyph glyph-name="notequal" unicode="&#x2260;" horiz-adv-x="1132" 
d="M72 752v204h534q45 86 131 258h234l-133 -258h221v-204h-322l-110 -217h432v-205h-535l-129 -254h-231l129 254h-221v205h323l111 217h-434z" />
    <glyph glyph-name="lessequal" unicode="&#x2264;" horiz-adv-x="1132" 
d="M1061 991q-717 -195 -776 -211v-4l776 -217v-213l-989 285v291l989 284v-215zM72 94v203h987v-203h-987z" />
    <glyph glyph-name="greaterequal" unicode="&#x2265;" horiz-adv-x="1132" 
d="M846 780q-151 42 -433 118.5t-341 92.5v215l989 -284v-291l-989 -285v213l774 217v4zM1061 297v-203h-989v203h989z" />
    <glyph glyph-name="lozenge" unicode="&#x25ca;" horiz-adv-x="1081" 
d="M989 664l-332 -664h-237l-332 664l332 665h235zM537 1077l-183 -413l185 -416h4l180 416l-180 413h-6z" />
    <glyph glyph-name="f_i" unicode="&#xf001;" horiz-adv-x="1275" 
d="M1067 1481l-14 -213q-169 18 -308 18q-145 0 -206.5 -38.5t-61.5 -137.5v-29h653v-1081h-290v862h-363v-862h-291v862h-174v219h174v49q0 375 541 375q180 0 340 -24z" />
    <glyph glyph-name="f_l" unicode="&#xf002;" horiz-adv-x="1275" 
d="M1130 1473v-1473h-290v1280q-55 6 -125 6q-111 0 -174.5 -38t-63.5 -132v-35h228v-219h-228v-862h-291v862h-174v219h174v78q0 161 129 253.5t385 92.5q184 0 430 -32z" />
    <glyph glyph-name="uniF8FF" unicode="&#xf8ff;" horiz-adv-x="1048" 
d="M569 240h-114v137h114v-137zM555 479h-94l-4 35q0 115 26 166q28 54 95 121q63 60 82.5 94.5t19.5 75.5q0 73 -46 123.5t-110 50.5q-67 0 -112 -47.5t-56 -147.5l-102 17q13 141 87 210.5t189 69.5q110 0 182 -74t72 -194q0 -69 -27 -123t-102 -123q-77 -68 -88 -106
q-12 -41 -12 -148zM102 102h844v1264h-844v-1264zM0 1470h1049v-1470h-1049v1470z" />
    <glyph glyph-name="uniFEFF" unicode="&#xfeff;" horiz-adv-x="0" 
 />
    <glyph glyph-name="grave.cap" horiz-adv-x="944" 
d="M203 1860h321l193 -297h-236z" />
    <glyph glyph-name="acute.cap" horiz-adv-x="944" 
d="M748 1860l-281 -297h-236l195 297h322z" />
    <glyph glyph-name="circumflex.cap" horiz-adv-x="944" 
d="M856 1556h-235l-150 183l-149 -183h-238l238 312h299z" />
    <glyph glyph-name="caron.cap" horiz-adv-x="944" 
d="M86 1868h233l150 -182l152 182h235l-235 -312h-299z" />
    <glyph glyph-name="caron.alt" horiz-adv-x="944" 
d="M557 1573l-72 -336h-161l30 336h203z" />
    <glyph glyph-name="tilde.cap" horiz-adv-x="944" 
d="M504 1800q43 -29 65.5 -38t46.5 -9q63 0 66 113h162q-5 -140 -55 -222.5t-152 -82.5q-41 0 -77.5 12t-96.5 47q-55 32 -80.5 42.5t-46.5 10.5q-66 0 -72 -110h-162q7 145 64 224t149 79q49 0 88 -13.5t101 -52.5z" />
    <glyph glyph-name="dieresis.cap" horiz-adv-x="944" 
d="M387 1853v-249h-254v249h254zM809 1853v-249h-256v249h256z" />
    <glyph glyph-name="macron.cap" horiz-adv-x="944" 
d="M764 1817v-187h-582v187h582z" />
    <glyph glyph-name="breve.cap" horiz-adv-x="944" 
d="M469 1731q154 0 158 145h194q-2 -65 -22 -120t-60 -100.5t-109 -71t-161 -25.5q-89 0 -157 26t-108.5 71t-60.5 100t-22 120h194q0 -63 37 -104t117 -41z" />
    <glyph glyph-name="ring.cap" horiz-adv-x="944" 
d="M473 1944q93 0 154 -62.5t61 -155.5q0 -95 -61 -156t-156 -61q-93 0 -154 61t-61 156q0 92 62 155t155 63zM471 1841q-47 0 -78 -33.5t-31 -81.5q0 -51 30.5 -82.5t78.5 -31.5t79.5 31.5t31.5 80.5q0 50 -32.5 83.5t-78.5 33.5z" />
    <glyph glyph-name="hungarumlaut.cap" horiz-adv-x="944" 
d="M889 1862l-230 -299h-217l183 299h264zM516 1862l-217 -299h-209l174 299h252z" />
    <glyph glyph-name="dotaccent.cap" horiz-adv-x="944" 
d="M612 1853v-258h-290v258h290z" />
    <glyph glyph-name="commaaccent" horiz-adv-x="944" 
d="M690 -117l-248 -332h-217l156 332h309z" />
    <glyph glyph-name="commaaccent.alt" horiz-adv-x="944" 
d="M231 1235l248 336h219l-159 -336h-308z" />
    <glyph glyph-name="zero.denominator" 
d="M393 893q165 0 252.5 -122t87.5 -339q0 -214 -87 -330t-253 -116q-165 0 -250.5 115.5t-85.5 330.5q0 218 86 339.5t250 121.5zM393 725q-66 0 -100.5 -81t-34.5 -212q0 -129 34 -203.5t101 -74.5t102 75t35 203q0 130 -35.5 211.5t-101.5 81.5z" />
    <glyph glyph-name="one.denominator" 
d="M543 877v-877h-211v682l-158 -86l-68 158l228 123h209z" />
    <glyph glyph-name="two.denominator" 
d="M694 164v-164h-602v168q223 189 303 281t80 165q0 52 -33 81.5t-88 29.5q-94 0 -200 -61l-62 147q59 39 135 60.5t148 21.5q141 0 222 -71t81 -199q0 -59 -18.5 -110t-64 -107.5t-100.5 -109t-149 -132.5h348z" />
    <glyph glyph-name="three.denominator" 
d="M205 367v161h108q164 0 164 103q0 48 -34 72t-91 24q-94 0 -192 -45l-47 158q112 53 264 53q86 0 152.5 -22.5t109.5 -76.5t43 -135q0 -148 -139 -196v-4q79 -22 119 -79t40 -128q0 -69 -27 -121.5t-74.5 -83.5t-108 -46t-132.5 -15q-153 0 -276 57l51 158
q110 -49 213 -49q67 0 107.5 27t40.5 81q0 107 -185 107h-106z" />
    <glyph glyph-name="four.denominator" 
d="M649 877v-539h92v-166h-92v-172h-205v172h-397v197l328 508h274zM444 338v348h-4l-207 -348h211z" />
    <glyph glyph-name="five.denominator" 
d="M498 272q0 127 -195 127q-72 0 -172 -14l29 494h510v-166h-326l-12 -164q29 4 76 4q129 0 213 -72.5t84 -197.5q0 -145 -94.5 -221t-241.5 -76q-159 0 -285 57l49 156q100 -49 207 -49q70 0 114 28.5t44 93.5z" />
    <glyph glyph-name="six.denominator" 
d="M268 315q0 -64 35.5 -114.5t99.5 -50.5q56 0 90.5 40.5t34.5 104.5q0 58 -33.5 98.5t-93.5 40.5q-62 0 -97.5 -36t-35.5 -83zM268 524h2q32 31 79.5 47.5t90.5 16.5q140 0 214.5 -80.5t74.5 -212.5q0 -135 -92 -222t-240 -87q-76 0 -136 25t-97 65.5t-61.5 96.5t-34 112
t-9.5 118q0 105 24 192.5t72 155t126.5 105t181.5 37.5q91 0 172 -23l-29 -163q-62 20 -129 20q-93 0 -144.5 -53.5t-64.5 -149.5z" />
    <glyph glyph-name="seven.denominator" 
d="M94 713v166h600v-164q-229 -364 -254 -715h-213q15 167 83.5 361.5t166.5 351.5h-383z" />
    <glyph glyph-name="eight.denominator" 
d="M395 371q-50 0 -91.5 -31t-41.5 -84q0 -52 37.5 -80.5t95.5 -28.5t96.5 28.5t38.5 80.5q0 53 -43 84t-92 31zM389 893q132 0 225 -63t93 -175q0 -140 -132 -192v-4q158 -66 158 -223q0 -118 -96 -184t-244 -66q-147 0 -242.5 66t-95.5 184q0 84 43.5 137.5t112.5 77.5v4
q-131 64 -131 200q0 112 89.5 175t219.5 63zM395 528q48 0 83.5 28t35.5 79q0 46 -34.5 74t-86.5 28q-51 0 -84 -28t-33 -74q0 -51 35.5 -79t83.5 -28z" />
    <glyph glyph-name="nine.denominator" 
d="M520 563q0 63 -35.5 113.5t-99.5 50.5q-56 0 -90.5 -40.5t-34.5 -104.5q0 -58 33.5 -99t93.5 -41q61 0 97 37t36 84zM520 352h-2q-33 -33 -80 -49t-92 -16q-138 0 -212.5 81t-74.5 212q0 137 91 225t239 88q77 0 137.5 -25.5t97.5 -66.5t61.5 -97t34 -112.5t9.5 -118.5
q0 -105 -24 -192t-72 -154t-127 -104t-182 -37t-181 20l29 166q58 -22 137 -22q95 0 147.5 53.5t63.5 148.5z" />
    <glyph glyph-name="zero.numerator" 
d="M393 1483q165 0 252.5 -122t87.5 -339q0 -214 -87 -330.5t-253 -116.5q-165 0 -250.5 116t-85.5 331q0 218 86 339.5t250 121.5zM393 1315q-66 0 -100.5 -81t-34.5 -212q0 -129 34 -204t101 -75t102 75t35 204q0 130 -35.5 211.5t-101.5 81.5z" />
    <glyph glyph-name="one.numerator" 
d="M543 1466v-876h-211v682l-158 -86l-68 157l228 123h209z" />
    <glyph glyph-name="two.numerator" 
d="M694 754v-164h-602v168q223 189 303 281t80 165q0 52 -33 81.5t-88 29.5q-92 0 -200 -62l-62 148q59 39 135 60.5t148 21.5q141 0 222 -71.5t81 -199.5q0 -59 -18.5 -110t-64 -107.5t-100 -108.5t-149.5 -132h348z" />
    <glyph glyph-name="three.numerator" 
d="M205 956v162h108q164 0 164 103q0 48 -34 72t-91 24q-94 0 -192 -45l-47 158q112 53 264 53q86 0 152.5 -22.5t109.5 -76.5t43 -135q0 -148 -139 -196v-4q79 -22 119 -79t40 -128q0 -69 -27 -121.5t-74.5 -83.5t-108 -46.5t-132.5 -15.5q-151 0 -276 58l51 158
q112 -50 213 -50q67 0 107.5 27.5t40.5 81.5q0 106 -185 106h-106z" />
    <glyph glyph-name="four.numerator" 
d="M649 1466v-538h92v-166h-92v-172h-205v172h-397v196l328 508h274zM444 928v348h-4l-207 -348h211z" />
    <glyph glyph-name="five.numerator" 
d="M498 862q0 127 -195 127q-72 0 -172 -14l29 493h510v-165h-326l-12 -164q29 4 76 4q129 0 213 -73t84 -198q0 -145 -94.5 -221t-241.5 -76q-157 0 -285 58l49 155q100 -49 207 -49q69 0 113.5 29t44.5 94z" />
    <glyph glyph-name="six.numerator" 
d="M268 905q0 -64 35.5 -115t99.5 -51q55 0 90 40.5t35 105.5q0 58 -33.5 98.5t-93.5 40.5q-62 0 -97.5 -36t-35.5 -83zM268 1114h2q32 31 79.5 47.5t90.5 16.5q140 0 214.5 -80.5t74.5 -212.5q0 -135 -92 -222.5t-240 -87.5q-76 0 -136 25.5t-97 66t-61.5 96.5t-34 112
t-9.5 118q0 105 24 192.5t72 155t126.5 105t181.5 37.5q91 0 172 -23l-29 -164q-65 21 -129 21q-93 0 -144.5 -53.5t-64.5 -149.5z" />
    <glyph glyph-name="seven.numerator" 
d="M94 1303v165h600v-163q-229 -364 -254 -715h-213q15 167 83.5 361.5t166.5 351.5h-383z" />
    <glyph glyph-name="eight.numerator" 
d="M395 961q-50 0 -91.5 -31t-41.5 -84q0 -52 37.5 -80.5t95.5 -28.5t96.5 28.5t38.5 80.5q0 53 -43 84t-92 31zM389 1483q132 0 225 -63t93 -175q0 -140 -132 -192v-4q158 -66 158 -224q0 -118 -96 -184t-244 -66q-147 0 -242.5 66t-95.5 184q0 84 43.5 137.5t112.5 77.5v4
q-131 64 -131 201q0 112 89.5 175t219.5 63zM395 1118q48 0 83.5 28t35.5 79q0 46 -34.5 74t-86.5 28q-51 0 -84 -28t-33 -74q0 -51 35.5 -79t83.5 -28z" />
    <glyph glyph-name="nine.numerator" 
d="M520 1153q0 63 -35.5 113.5t-99.5 50.5q-55 0 -90 -40.5t-35 -105.5q0 -58 33.5 -98.5t93.5 -40.5q61 0 97 37t36 84zM520 942h-2q-33 -33 -80 -49t-92 -16q-138 0 -212.5 80.5t-74.5 211.5q0 137 91 225.5t239 88.5q77 0 137.5 -25.5t97.5 -66.5t61.5 -97t34 -112.5
t9.5 -118.5q0 -105 -24 -192t-72 -154t-127 -104.5t-182 -37.5q-99 0 -181 21l29 166q61 -23 137 -23q95 0 147.5 54t63.5 149z" />
    <glyph glyph-name="tonos.cap" horiz-adv-x="876" 
d="M666 1462l-224 -336h-200l98 336h326z" />
    <glyph glyph-name="cyrbreve" horiz-adv-x="944" 
d="M471 1231q-91 0 -159.5 25.5t-108.5 71t-60 100.5t-22 120h194q4 -143 156 -143q154 0 158 143h192q-1 -52 -13 -97t-39 -86t-66 -70.5t-98.5 -46.5t-133.5 -17z" />
    <glyph glyph-name="cyrbreve.cap" horiz-adv-x="944" 
d="M471 1559q-91 0 -159.5 25.5t-108.5 71t-60 100.5t-22 120h194q2 -64 38.5 -104.5t117.5 -40.5q82 0 119 40.5t39 104.5h192q-1 -52 -13 -97t-39 -86t-66 -70.5t-98.5 -46.5t-133.5 -17z" />
    <glyph glyph-name="hyphen.cap" horiz-adv-x="811" 
d="M141 631v235h529v-235h-529z" />
    <glyph glyph-name="endash.cap" horiz-adv-x="1015" 
d="M965 844v-193h-914v193h914z" />
    <glyph glyph-name="emdash.cap" horiz-adv-x="1630" 
d="M1579 844v-193h-1528v193h1528z" />
    <glyph glyph-name="colon.cap" horiz-adv-x="739" 
d="M213 190v322h315v-322h-315zM213 950v322h315v-322h-315z" />
    <glyph glyph-name="registered.alt1" horiz-adv-x="1630" 
d="M188 727q0 -130 46.5 -247t128 -203t200 -136.5t256.5 -50.5q180 0 324 86t222.5 231.5t78.5 319.5q0 176 -78.5 323.5t-222.5 235.5t-324 88q-183 0 -328.5 -88t-224 -235t-78.5 -324zM68 727q0 156 56 295t154 240t238.5 160t302.5 59q160 0 299.5 -59t236.5 -160
t152.5 -240t55.5 -295q0 -154 -55.5 -291t-152.5 -237t-236.5 -158.5t-299.5 -58.5q-162 0 -302.5 58.5t-238.5 158.5t-154 237t-56 291zM500 299v872h352q63 0 116.5 -12.5t99.5 -39t72.5 -75.5t26.5 -116q0 -138 -139 -197v-4q42 -15 65 -48t46 -110q48 -166 82 -270h-226
q-7 28 -28.5 112t-28.5 113q-18 69 -47 87t-107 18h-82v-330h-202zM702 1004v-222h101q162 0 162 111t-158 111h-105z" />
    <glyph glyph-name="zero.slash" horiz-adv-x="1239" 
d="M618 1487q259 0 394 -202t135 -562q0 -358 -134 -553t-395 -195q-263 0 -395.5 194t-132.5 554q0 362 133.5 563t394.5 201zM618 1249q-231 0 -231 -526q0 -112 8 -188l410 544q-56 170 -187 170zM852 723q0 88 -10 180l-408 -543q58 -147 184 -147q234 0 234 510z" />
    <glyph glyph-name="zero.tnum" horiz-adv-x="1239" 
d="M618 1487q259 0 394 -202t135 -562q0 -358 -134 -553t-395 -195q-263 0 -395.5 194t-132.5 554q0 362 133.5 563t394.5 201zM618 1249q-231 0 -231 -526q0 -510 231 -510q234 0 234 510q0 117 -12.5 210t-39.5 165.5t-73 111.5t-109 39z" />
    <glyph glyph-name="one.tnum" horiz-adv-x="1239" 
d="M836 1462v-1462h-299v1182l-273 -164l-106 221l374 223h304z" />
    <glyph glyph-name="two.tnum" horiz-adv-x="1239" 
d="M1110 240v-240h-981v244q270 238 406.5 375t197 235t60.5 188q0 94 -64.5 149.5t-163.5 55.5q-155 0 -334 -112l-94 213q93 65 213.5 102t237.5 37q231 0 367.5 -114t136.5 -324q0 -65 -13.5 -124t-46 -120t-75 -119t-114 -131t-149.5 -144.5t-192 -170.5h608z" />
    <glyph glyph-name="three.tnum" horiz-adv-x="1239" 
d="M303 627v239h160q313 0 313 199q0 90 -62.5 136t-168.5 46q-160 0 -324 -80l-74 232q186 88 431 88q103 0 190.5 -22.5t157 -68t109.5 -121t40 -173.5q0 -120 -62 -208.5t-188 -129.5v-4q139 -31 212 -124.5t73 -217.5q0 -90 -28.5 -163.5t-79 -125t-120.5 -86.5
t-152 -51.5t-175 -16.5q-116 0 -234 25.5t-212 71.5l71 227q185 -84 361 -84q123 0 197.5 53.5t74.5 157.5q0 201 -354 201h-156z" />
    <glyph glyph-name="four.tnum" horiz-adv-x="1239" 
d="M1028 1462v-917h160v-240h-160v-305h-299v305h-676v289l559 868h416zM729 545v649h-4l-399 -649h403z" />
    <glyph glyph-name="five.tnum" horiz-adv-x="1239" 
d="M817 451q0 67 -30.5 115.5t-84 74t-112.5 36.5t-129 11q-115 0 -275 -20l43 794h820v-239h-555l-23 -310q64 7 125 7q143 0 259 -51t187.5 -155.5t71.5 -246.5q0 -120 -44 -215.5t-120.5 -155t-176 -90.5t-214.5 -31q-244 0 -448 91l71 227q173 -78 346 -78
q60 0 110 12.5t91 39t64.5 73.5t23.5 111z" />
    <glyph glyph-name="six.tnum" horiz-adv-x="1239" 
d="M758 1247q-88 0 -156 -30t-112 -84.5t-69.5 -125t-35.5 -157.5h4q54 59 136.5 92t166.5 33q226 0 351.5 -135t125.5 -353q0 -223 -148.5 -367.5t-387.5 -144.5q-91 0 -167.5 22t-132 59.5t-99 91t-71 113.5t-45.5 130t-25 137t-7 138q0 141 24.5 263.5t76 225.5
t127 176.5t183.5 114.5t240 41q151 0 289 -43l-47 -238q-109 41 -221 41zM387 518q0 -56 15 -108.5t44.5 -97.5t79.5 -72t113 -27q107 0 173.5 75.5t66.5 198.5q0 110 -61.5 185.5t-174.5 75.5q-115 0 -185.5 -69.5t-70.5 -160.5z" />
    <glyph glyph-name="seven.tnum" horiz-adv-x="1239" 
d="M137 1225v237h967v-237q-196 -291 -309.5 -610.5t-137.5 -614.5h-301q25 290 143 628.5t287 596.5h-649z" />
    <glyph glyph-name="eight.tnum" horiz-adv-x="1239" 
d="M618 637q-95 0 -171 -57.5t-76 -161.5q0 -101 68 -155t179 -54q112 0 181 54t69 155q0 71 -40 122.5t-95 74t-115 22.5zM618 1487q101 0 190.5 -25.5t159 -73.5t110 -124t40.5 -170q0 -245 -219 -326v-4q266 -105 266 -373q0 -132 -74 -227.5t-196 -142t-277 -46.5
q-156 0 -277.5 46.5t-194 142t-72.5 227.5q0 144 73 233t189 130v4q-217 96 -217 336q0 124 70 215t181.5 134.5t247.5 43.5zM618 864q93 0 156.5 52t63.5 151q0 90 -59.5 141.5t-160.5 51.5q-97 0 -157 -52t-60 -141q0 -99 62 -151t155 -52z" />
    <glyph glyph-name="nine.tnum" horiz-adv-x="1239" 
d="M479 213q89 0 158 30t113 85t69 125.5t33 156.5h-4q-51 -63 -133 -94t-170 -31q-226 0 -351.5 135t-125.5 353q0 224 148.5 369t387.5 145q91 0 167.5 -22t132 -59.5t99 -91t71 -113.5t45.5 -130.5t25 -137.5t7 -138q0 -177 -39.5 -324t-117.5 -259t-205 -174.5
t-293 -62.5q-169 0 -310 41l45 238q118 -41 248 -41zM850 942q0 56 -15 108.5t-44.5 97.5t-79.5 72t-113 27q-107 0 -173.5 -75.5t-66.5 -198.5q0 -110 62 -185t176 -75t184 69.5t70 159.5z" />
    <glyph glyph-name="dollar.tnum" horiz-adv-x="1239" 
d="M1016 1397l-51 -223q-128 47 -267 53v-375q78 -31 131 -57.5t106.5 -64.5t84.5 -80.5t50.5 -101.5t19.5 -132q0 -172 -115 -276.5t-297 -127.5v-172h-143v166q-217 11 -390 74l54 229q175 -71 336 -78v400q-91 36 -157 73.5t-118.5 87t-79 113t-26.5 142.5q0 92 33 165.5
t90.5 121.5t128 76t151.5 38v156h141v-152q185 -6 318 -55zM817 403q0 59 -32.5 99t-106.5 76v-342q139 25 139 167zM416 1073q0 -59 31.5 -97t109.5 -73v322q-65 -12 -103 -52t-38 -100z" />
    <glyph glyph-name="currency.tnum" horiz-adv-x="1239" 
d="M621 481q76 0 127 52.5t51 132.5q0 77 -51 128.5t-127 51.5q-78 0 -130.5 -51.5t-52.5 -128.5q0 -80 52 -132.5t131 -52.5zM117 987l178 180l145 -147q77 39 181 39q93 0 176 -39l145 147l178 -178l-145 -145q41 -80 41 -178q0 -104 -41 -181l145 -145l-180 -176
l-143 143q-75 -41 -176 -41q-105 0 -181 43l-145 -145l-178 176l145 145q-41 80 -41 181q0 96 41 176z" />
    <glyph glyph-name="Euro.tnum" horiz-adv-x="1239" 
d="M1116 236l43 -234q-117 -27 -248 -27q-270 0 -445.5 142.5t-232.5 390.5h-186l45 180h119q-2 20 -2 53q0 34 4 66h-164l45 180h150q64 232 236.5 366t441.5 134q122 0 227 -21l-51 -235q-75 16 -148 16q-307 0 -403 -260h500l-41 -180h-498q-4 -36 -4 -68q0 -33 2 -51
h475l-41 -180h-408q40 -135 145.5 -213t272.5 -78q82 0 166 19z" />
    <glyph glyph-name="cent.tnum" horiz-adv-x="1239" 
d="M1020 1069l-47 -219q-76 29 -142 35v-686q78 3 150 37l45 -222q-94 -31 -195 -37v-114h-157v121q-222 30 -343.5 180.5t-121.5 374.5q0 226 123.5 379t341.5 182v129h157v-125q107 -6 189 -35zM500 539q0 -58 9.5 -109.5t29 -97t54 -78t81.5 -45.5v659
q-88 -28 -131 -118.5t-43 -210.5z" />
    <glyph glyph-name="sterling.tnum" horiz-adv-x="1239" 
d="M1087 1434l-73 -236q-76 39 -185 39q-116 0 -171.5 -65t-55.5 -177v-137h336v-205h-336v-413h526v-240h-1019v240h198v413h-184v205h184v150q0 219 131.5 346t384.5 127q154 0 264 -47z" />
    <glyph glyph-name="florin.tnum" horiz-adv-x="1239" 
d="M1028 887v-213h-274l-117 -664q-23 -129 -117 -203.5t-262 -74.5q-94 0 -180 26l43 217q67 -18 121 -18q65 0 94.5 36t42.5 116l92 565h-225v213h262l41 227q11 61 27 110t47 99.5t73.5 84t109 54.5t150.5 21q124 0 201 -29l-63 -217q-61 25 -119 25q-126 0 -154 -172
l-35 -203h242z" />
    <glyph glyph-name="yen.tnum" horiz-adv-x="1239" 
d="M137 477h338v121h-338v178h264l-372 686h315l279 -577l284 577h305l-376 -686h262v-178h-334v-121h334v-178h-334v-299h-289v299h-338v178z" />
    </font>
</defs>
</svg>
