<svg width="92" height="127" viewBox="0 0 92 127" fill="none" xmlns="http://www.w3.org/2000/svg">
<path opacity="0.35" fill-rule="evenodd" clip-rule="evenodd" d="M91.1001 122.6V24.4999C91.1001 22.2999 89.4 20.4999 87.2 20.4999H73.5V16.5999C73.5 14.4999 71.7 12.6999 69.5 12.6999H59.6001C58.6001 5.9999 52.9 0.899902 46 0.899902C39.1 0.899902 33.4 5.9999 32.4 12.6999H22.4C20.3 12.6999 18.5 14.4999 18.5 16.5999V20.4999H4.80005C2.60005 20.4999 0.800049 22.2999 0.800049 24.4999V122.6C0.800049 124.8 2.60005 126.5 4.80005 126.5H87.2C89.4 126.5 91.1001 124.8 91.1001 122.6ZM69.5 32.2999H22.4V16.5999H35.8L36.3 13.1999C37 8.3999 41.1 4.7999 46 4.7999C50.8 4.7999 55 8.3999 55.7 13.1999L56.2 16.5999H69.5V32.2999Z" fill="#3385FF"/>
<path opacity="0.25" fill-rule="evenodd" clip-rule="evenodd" d="M46.0001 8.7998C42.7001 8.7998 40.1001 11.3998 40.1001 14.6998C40.1001 17.8998 42.7001 20.4998 46.0001 20.4998C49.2001 20.4998 51.9001 17.8998 51.9001 14.6998C51.9001 11.3998 49.2001 8.7998 46.0001 8.7998ZM46.0001 16.5998C44.9001 16.5998 44.0001 15.6998 44.0001 14.6998C44.0001 13.5998 44.9001 12.6998 46.0001 12.6998C47.1001 12.6998 47.9001 13.5998 47.9001 14.6998C47.9001 15.6998 47.1001 16.5998 46.0001 16.5998Z" fill="#3385FF"/>
<path fill-rule="evenodd" clip-rule="evenodd" d="M72.3001 56H37.0001C36.2001 56 35.6001 56.9 35.6001 58C35.6001 59.1 36.2001 60 37.0001 60H72.3001C73.0001 60 73.6001 59.1 73.6001 58C73.6001 56.9 73.0001 56 72.3001 56Z" fill="white"/>
<path fill-rule="evenodd" clip-rule="evenodd" d="M72.3001 80H37.0001C36.2001 80 35.6001 80.8 35.6001 81.9C35.6001 83 36.2001 83.9 37.0001 83.9H72.3001C73.0001 83.9 73.6001 83 73.6001 81.9C73.6001 80.8 73.0001 80 72.3001 80Z" fill="white"/>
<path fill-rule="evenodd" clip-rule="evenodd" d="M72.3001 103.9H37.0001C36.2001 103.9 35.6001 104.8 35.6001 105.9C35.6001 106.9 36.2001 107.8 37.0001 107.8H72.3001C73.0001 107.8 73.6001 106.9 73.6001 105.9C73.6001 104.8 73.0001 103.9 72.3001 103.9Z" fill="white"/>
<path fill-rule="evenodd" clip-rule="evenodd" d="M31.9001 48C31.3668 48.3333 30.8334 48.6667 30.3001 49L30.2001 49.1C28.4001 50.2 26.9001 51.9 26.8001 52C23.9334 54.8 21.8334 57.3667 20.5001 59.7L20.1001 58.8C19.3668 57.1333 18.6668 56.3 18.0001 56.3C17.2668 56.3 16.4668 56.7667 15.6001 57.7C16.1334 57.8333 16.6001 58.1667 17.0001 58.7C17.4668 59.2333 17.9334 60.0667 18.4001 61.2L18.7001 62C19.1001 62.8667 19.3334 63.5 19.4001 63.9C19.6668 63.6333 20.1668 63.2333 20.9001 62.7L21.8001 62.1C22.5334 60.6333 23.6334 58.8333 25.1001 56.7C26.6001 54.6 29.2001 51.3 30.9001 49.8L31.0001 49.7C31.4668 49.3 31.9001 48.9667 32.3001 48.7L31.9001 48Z" fill="#003D70"/>
<path fill-rule="evenodd" clip-rule="evenodd" d="M31.9001 71.7C31.3668 72.0333 30.8334 72.3666 30.3001 72.7L30.2001 72.8C28.4001 73.9 26.9001 75.6 26.8001 75.7C23.9334 78.5 21.8334 81.0666 20.5001 83.3999L20.1001 82.5C19.3668 80.8333 18.6668 80 18.0001 80C17.2668 80 16.4668 80.4666 15.6001 81.3999C16.1334 81.5333 16.6001 81.8666 17.0001 82.3999C17.4668 82.9333 17.9334 83.8 18.4001 85L18.7001 85.7C19.1001 86.5666 19.3334 87.2 19.4001 87.6C19.6668 87.3333 20.1668 86.9333 20.9001 86.3999L21.8001 85.8C22.5334 84.3333 23.6334 82.5333 25.1001 80.3999C26.6001 78.2999 29.2001 75 30.9001 73.5L31.0001 73.3999C31.4668 72.9999 31.9001 72.6666 32.3001 72.3999L31.9001 71.7Z" fill="#003D70"/>
<path fill-rule="evenodd" clip-rule="evenodd" d="M31.9001 95.3999C31.3668 95.7332 30.8334 96.0666 30.3001 96.3999L30.2001 96.4999C28.4001 97.5999 26.9001 99.2999 26.8001 99.3999C23.9334 102.2 21.8334 104.767 20.5001 107.1L20.1001 106.2C19.3668 104.533 18.6668 103.7 18.0001 103.7C17.2668 103.7 16.4668 104.167 15.6001 105.1C16.1334 105.233 16.6001 105.567 17.0001 106.1C17.4668 106.633 17.9334 107.5 18.4001 108.7L18.7001 109.4C19.1001 110.267 19.3334 110.9 19.4001 111.3C19.6668 111.033 20.1668 110.633 20.9001 110.1L21.8001 109.5C22.5334 108.033 23.6334 106.233 25.1001 104.1C26.6001 102 29.2001 98.6999 30.9001 97.1999L31.0001 97.0999C31.4668 96.6999 31.9001 96.3666 32.3001 96.0999L31.9001 95.3999Z" fill="#003D70"/>
</svg>
