<svg width="116" height="129" viewBox="0 0 116 129" fill="none" xmlns="http://www.w3.org/2000/svg">
<mask id="mask0_61_7" style="mask-type:alpha" maskUnits="userSpaceOnUse" x="-1" y="-1" width="118" height="131">
<path d="M72.882 98.631H44.8962C44.7138 98.6319 44.5332 98.5948 44.366 98.522C44.1987 98.4492 44.0485 98.3424 43.9248 98.2082C43.8012 98.0741 43.7069 97.9157 43.648 97.7431C43.5891 97.5705 43.5668 97.3874 43.5825 97.2057C43.5825 97.1819 43.8131 94.5546 43.1398 90.8661C42.525 87.4959 41.0064 82.5029 37.2575 77.8996C34.4582 74.4581 32.3944 71.2526 30.9399 68.1111C29.1212 64.1811 28.2375 60.3408 28.2375 56.365C28.2375 52.263 29.0499 48.2818 30.6453 44.531C32.1857 40.9122 34.4167 37.6284 37.2136 34.8634C40.0096 32.0832 43.3166 29.8696 46.9527 28.3444C50.7271 26.7571 54.7818 25.9439 58.8763 25.9531C63.0094 25.9531 67.0199 26.7618 70.7999 28.3444C74.4364 29.8687 77.7436 32.0824 80.539 34.8634C83.3332 37.6303 85.5633 40.9137 87.1055 44.531C88.7042 48.2711 89.524 52.2976 89.5151 56.365C89.5151 60.3408 88.6314 64.1811 86.8109 68.1111C85.3563 71.2526 83.2944 74.4581 80.4932 77.8996C76.7462 82.5029 75.2276 87.4959 74.611 90.8661C73.9395 94.5546 74.1701 97.1819 74.1701 97.2057C74.1858 97.3867 74.1637 97.569 74.1051 97.741C74.0465 97.913 73.9527 98.0709 73.8298 98.2047C73.7115 98.3394 73.5657 98.4472 73.4022 98.5207C73.2387 98.5942 73.0613 98.6318 72.882 98.631ZM46.2538 96.0238H71.5244C71.5244 94.7961 71.6068 92.8494 72.0294 90.4965C72.6954 86.8025 74.3494 81.3265 78.4697 76.2584C81.1281 72.9889 83.0821 69.9682 84.447 67.0244C86.1065 63.4438 86.9079 59.9529 86.9079 56.365C86.9069 52.7079 86.1803 49.0874 84.7702 45.7131C83.36 42.3388 81.2944 39.2779 78.6929 36.7076C76.1352 34.166 73.1119 32.1409 69.7881 30.7431C66.338 29.2922 62.6319 28.5481 58.8891 28.5548C55.1091 28.5548 51.4444 29.2922 47.9901 30.7431C44.6633 32.1364 41.6386 34.162 39.0835 36.7076C36.528 39.2384 34.4875 42.2407 33.075 45.5483C31.6141 48.967 30.864 52.6472 30.8704 56.365C30.8704 59.9529 31.6772 63.4438 33.3312 67.0244C34.6888 69.9682 36.6428 72.9889 39.3085 76.2584C43.4288 81.3265 45.0883 86.7952 45.747 90.4965C46.1696 92.8494 46.2538 94.7961 46.2538 96.0238ZM73.8298 104.693C73.8283 104.345 73.6891 104.013 73.4428 103.768C73.1965 103.524 72.8632 103.387 72.5161 103.388H45.2676C44.9205 103.387 44.5872 103.524 44.3409 103.768C44.0946 104.013 43.9554 104.345 43.9539 104.693C43.9539 105.41 44.5431 105.995 45.2676 105.995H72.5106C73.2351 105.995 73.8298 105.41 73.8298 104.693ZM72.5106 113.334H45.2676C44.9208 113.335 44.5878 113.198 44.3415 112.954C44.0953 112.71 43.9559 112.378 43.9539 112.031C43.9539 111.312 44.5431 110.727 45.2676 110.727H72.5161C73.2406 110.727 73.8298 111.312 73.8298 112.031C73.8264 112.378 73.6858 112.71 73.4387 112.954C73.1915 113.198 72.8579 113.335 72.5106 113.334ZM73.8298 119.362C73.8278 119.016 73.6885 118.684 73.4422 118.439C73.1959 118.195 72.8629 118.059 72.5161 118.06H45.2676C44.9208 118.059 44.5878 118.195 44.3415 118.439C44.0953 118.684 43.9559 119.016 43.9539 119.362C43.9539 120.081 44.5431 120.667 45.2676 120.667H72.5106C73.2351 120.667 73.8298 120.081 73.8298 119.362ZM58.8891 128C56.2234 128 53.7058 127.129 51.803 125.545C49.8288 123.903 48.7457 121.71 48.7457 119.362C48.7457 118.645 49.3348 118.06 50.0594 118.06C50.7839 118.06 51.373 118.645 51.373 119.362C51.373 122.689 54.7432 125.393 58.8891 125.393C63.035 125.393 66.4052 122.689 66.4052 119.362C66.4052 118.645 66.9943 118.06 67.717 118.06C68.4415 118.06 69.0307 118.645 69.0307 119.362C69.0307 121.717 67.9421 123.911 65.9752 125.545C64.0724 127.129 61.5549 128 58.8891 128ZM60.1259 14.8254V2.5944C60.124 2.2476 59.9846 1.91572 59.7384 1.67152C59.4921 1.42732 59.1591 1.29074 58.8123 1.29171C58.4655 1.29074 58.1324 1.42732 57.8862 1.67152C57.6399 1.91572 57.5005 2.2476 57.4986 2.5944V14.8254C57.4986 15.5426 58.0877 16.1281 58.8123 16.1281C59.5368 16.1281 60.1259 15.5426 60.1259 14.8254ZM88.5033 25.9787C88.2439 25.9824 87.9894 25.9083 87.7725 25.7661C87.5557 25.6238 87.3863 25.4199 87.2863 25.1806C87.1863 24.9412 87.1603 24.6775 87.2115 24.4232C87.2628 24.1689 87.389 23.9358 87.5738 23.7539L96.5829 14.8126C96.8301 14.5682 97.1638 14.4312 97.5114 14.4312C97.859 14.4312 98.1927 14.5682 98.4399 14.8126C98.5616 14.9333 98.6582 15.077 98.7241 15.2353C98.7901 15.3935 98.824 15.5633 98.824 15.7347C98.824 15.9061 98.7901 16.0759 98.7241 16.2342C98.6582 16.3924 98.5616 16.5361 98.4399 16.6568L89.4309 25.5982C89.309 25.7196 89.1642 25.8157 89.0051 25.881C88.8459 25.9463 88.6753 25.9795 88.5033 25.9787ZM28.3272 25.5982C28.4489 25.4774 28.5455 25.3338 28.6114 25.1755C28.6773 25.0172 28.7113 24.8475 28.7113 24.676C28.7113 24.5046 28.6773 24.3348 28.6114 24.1766C28.5455 24.0183 28.4489 23.8747 28.3272 23.7539L19.3182 14.8126C19.0706 14.5681 18.7366 14.431 18.3887 14.431C18.0408 14.431 17.7068 14.5681 17.4593 14.8126C17.3376 14.9333 17.241 15.077 17.1751 15.2353C17.1091 15.3935 17.0752 15.5633 17.0752 15.7347C17.0752 15.9061 17.1091 16.0759 17.1751 16.2342C17.241 16.3924 17.3376 16.5361 17.4593 16.6568L26.4683 25.5982C26.7156 25.8431 27.0497 25.9805 27.3977 25.9805C27.7458 25.9805 28.0798 25.8431 28.3272 25.5982ZM100.632 55.7301C100.288 55.7307 99.9577 55.5962 99.712 55.3556C99.4663 55.1151 99.3249 54.7877 99.3182 54.4439C99.316 54.2721 99.3477 54.1015 99.4116 53.9419C99.4755 53.7823 99.5702 53.6369 99.6904 53.5141C99.8106 53.3912 99.9538 53.2932 100.112 53.2258C100.27 53.1583 100.44 53.1228 100.612 53.1211L113.567 52.9125H113.587C113.931 52.912 114.261 53.0462 114.507 53.2864C114.752 53.5265 114.894 53.8535 114.901 54.1969C114.903 54.3689 114.871 54.5397 114.807 54.6994C114.743 54.859 114.648 55.0045 114.528 55.1274C114.408 55.2503 114.264 55.3483 114.106 55.4156C113.948 55.4829 113.778 55.5183 113.606 55.5197L100.65 55.7301H100.632ZM16.5829 54.4439C16.5844 54.0974 16.4492 53.7642 16.2068 53.5166C15.9643 53.269 15.634 53.1269 15.2875 53.1211L2.33199 52.9125C2.16013 52.9091 1.98928 52.9397 1.82925 53.0024C1.66922 53.0652 1.52316 53.1589 1.39942 53.2782C1.27568 53.3976 1.1767 53.5401 1.10817 53.6978C1.03963 53.8554 1.00289 54.025 1.00003 54.1969C0.997585 54.5434 1.13214 54.8769 1.37442 55.1247C1.61671 55.3724 1.94707 55.5144 2.29357 55.5197L15.2491 55.7301H15.2692C15.9791 55.7301 16.5701 55.163 16.5829 54.4439ZM100.632 93.0982C100.292 93.1005 99.9646 92.9675 99.7225 92.7286L90.4061 83.7946C90.2822 83.6761 90.183 83.5341 90.1143 83.377C90.0455 83.22 90.0085 83.0508 90.0055 82.8794C90.0024 82.7079 90.0333 82.5375 90.0964 82.3781C90.1595 82.2187 90.2536 82.0733 90.3732 81.9504C90.6164 81.7015 90.9479 81.5584 91.2958 81.5523C91.6438 81.5461 91.9802 81.6773 92.232 81.9174L101.548 90.8533C101.735 91.0351 101.863 91.2684 101.916 91.5234C101.969 91.7784 101.945 92.0434 101.846 92.2846C101.748 92.5257 101.58 92.7319 101.363 92.8769C101.147 93.0219 100.892 93.0989 100.632 93.0982ZM16.184 92.7286L25.5004 83.7946C25.6243 83.6761 25.7235 83.5341 25.7923 83.377C25.861 83.22 25.898 83.0508 25.9011 82.8794C25.9041 82.7079 25.8732 82.5375 25.8101 82.3781C25.747 82.2187 25.6529 82.0733 25.5334 81.9504C25.2901 81.7015 24.9586 81.5584 24.6107 81.5523C24.2627 81.5461 23.9264 81.6773 23.6745 81.9174L14.3581 90.8533C14.2343 90.972 14.1353 91.114 14.0667 91.2712C13.9981 91.4283 13.9613 91.5975 13.9584 91.7689C13.9555 91.9404 13.9866 92.1107 14.0498 92.2701C14.1131 92.4295 14.2073 92.5747 14.327 92.6975C14.4486 92.8248 14.5949 92.9259 14.7569 92.9948C14.9189 93.0637 15.0932 93.0989 15.2692 93.0982C15.5949 93.0982 15.9224 92.9775 16.184 92.7286Z" fill="url(#paint0_linear_61_7)" stroke="black" stroke-width="2" stroke-miterlimit="10"/>
</mask>
<g mask="url(#mask0_61_7)">
<path d="M120 -6H-5V134H120V-6Z" fill="url(#paint1_linear_61_7)"/>
</g>
<defs>
<linearGradient id="paint0_linear_61_7" x1="6.08496" y1="54.0547" x2="115.085" y2="55.5547" gradientUnits="userSpaceOnUse">
<stop stop-color="#3584FE"/>
<stop offset="1" stop-color="#B735FF"/>
</linearGradient>
<linearGradient id="paint1_linear_61_7" x1="0.580456" y1="75.7022" x2="120.202" y2="74.0671" gradientUnits="userSpaceOnUse">
<stop stop-color="#3584FE"/>
<stop offset="1" stop-color="#B735FF"/>
</linearGradient>
</defs>
</svg>
