<svg width="561" height="266" viewBox="0 0 561 266" fill="none" xmlns="http://www.w3.org/2000/svg">
<path d="M555.089 193.291V150.497C555.089 147.35 554.46 143.334 553.444 139.457C552.621 136.046 551.434 132.729 550.151 130.186L522.758 70.0759H522.733L521.282 67.3132C518.426 61.9414 511.164 57.5613 505.064 57.5613H436.369C430.267 57.5613 424.292 62.4043 423.007 68.3597L415.623 101.243V18.3709C415.623 12.2234 410.661 7.23772 404.563 7.23772H159.557L159.577 7.12612C160.256 3.53275 157.839 0.614518 154.18 0.614518H146.666C143.006 0.614518 138.656 3.24001 136.95 6.47477L136.55 7.23772H98.2998C86.1036 7.23772 71.1922 15.7601 64.9971 26.2621C64.9971 26.2621 20.4807 122.079 4.77164 160.761C-4.01418 182.327 0.777595 202.39 7.55633 213.648C8.88829 215.873 11.3821 219.675 13.5099 222.871L13.6636 222.58C13.0872 225.692 13.4678 228.724 15.0157 231.285C17.3356 235.138 21.7029 237.349 26.9868 237.349H78.8949C78.6955 235.537 78.582 233.702 78.582 231.838C78.582 203.801 101.392 180.991 129.427 180.991C148.236 180.991 164.655 191.284 173.45 206.505C182.243 191.284 198.662 180.991 217.47 180.991C245.505 180.991 268.317 203.801 268.317 231.838C268.317 233.702 268.202 235.537 268.002 237.349H417.039C416.843 235.537 416.728 233.702 416.728 231.838C416.728 203.801 439.538 180.991 467.573 180.991C495.608 180.991 518.418 203.801 518.418 231.838C518.418 233.702 518.301 235.537 518.105 237.349H544.053C548.576 237.349 552.473 230.204 554.167 226.309L553.984 226.316C555.741 226.316 557.426 225.617 558.668 224.375C559.911 223.133 560.609 221.448 560.609 219.691V199.816L555.089 193.291ZM415.623 116.415V56.6648L415.66 86.3522L415.623 116.415Z" fill="#C2FAFF"/>
<ellipse cx="129.427" cy="231.836" rx="33.7903" ry="33.7894" fill="#003D70"/>
<ellipse cx="217.466" cy="231.836" rx="33.7903" ry="33.7894" fill="#003D70"/>
<ellipse cx="467.572" cy="231.836" rx="33.7903" ry="33.7894" fill="#003D70"/>
</svg>
