<svg width="218" height="89" viewBox="0 0 218 89" fill="none" xmlns="http://www.w3.org/2000/svg">
<path fill-rule="evenodd" clip-rule="evenodd" d="M37.9001 79.8998C44.1001 79.8998 49.1001 74.8998 49.1001 68.6998C49.1001 62.5998 44.1001 57.5999 37.9001 57.5999C31.8001 57.5999 26.8 62.5998 26.8 68.6998C26.8 74.8998 31.8001 79.8998 37.9001 79.8998Z" fill="#EBEBEB"/>
<path fill-rule="evenodd" clip-rule="evenodd" d="M26.8001 75.6999C32.9001 75.6999 37.9001 70.6999 37.9001 64.4999C37.9001 58.2999 32.9001 53.3999 26.8001 53.3999C20.6001 53.3999 15.6001 58.2999 15.6001 64.4999C15.6001 70.6999 20.6001 75.6999 26.8001 75.6999Z" fill="#EBEBEB"/>
<path fill-rule="evenodd" clip-rule="evenodd" d="M12 74.8C18.2 74.8 23.1001 69.8 23.1001 63.6C23.1001 57.5 18.2 52.5 12 52.5C5.80005 52.5 0.800049 57.5 0.800049 63.6C0.800049 69.8 5.80005 74.8 12 74.8Z" fill="#EBEBEB"/>
<path fill-rule="evenodd" clip-rule="evenodd" d="M19.2 82.1998C25.3 82.1998 30.3 77.1998 30.3 70.9998C30.3 64.7998 25.3 59.7998 19.2 59.7998C13 59.7998 8 64.7998 8 70.9998C8 77.1998 13 82.1998 19.2 82.1998Z" fill="#EBEBEB"/>
<path fill-rule="evenodd" clip-rule="evenodd" d="M176.9 63.7998C183 63.7998 188.1 68.1998 189.1 73.9998C189.233 74.7331 189.3 75.4665 189.3 76.1998C189.3 82.9998 183.8 88.4998 176.9 88.4998C170.1 88.4998 164.5 82.9998 164.5 76.1998C164.5 75.4665 164.567 74.7331 164.7 73.9998C165.8 68.1998 170.8 63.7998 176.9 63.7998Z" fill="#003D70"/>
<path fill-rule="evenodd" clip-rule="evenodd" d="M91.4 63.7998C97.5 63.7998 102.5 68.1998 103.5 73.9998C103.633 74.7331 103.7 75.4665 103.7 76.1998C103.7 82.9998 98.2 88.4998 91.4 88.4998C84.5 88.4998 79 82.9998 79 76.1998C79 75.4665 79.0667 74.7331 79.2 73.9998C80.2 68.1998 85.3 63.7998 91.4 63.7998Z" fill="#003D70"/>
<path fill-rule="evenodd" clip-rule="evenodd" d="M209.1 33.2999H182L156 0.899902H86.9L68.3 33.2999H60.6C57.6 33.2999 55.1 35.7999 55.1 38.7999V66.4999H51.5V70.5999H55.5C56.3 72.5999 58.3 73.9999 60.6 73.9999H72.6C73.7 64.6999 81.7 57.2999 91.4 57.2999C101 57.2999 109 64.6999 110.1 73.9999H158.2C159.3 64.6999 167.3 57.2999 176.9 57.2999C186.6 57.2999 194.6 64.6999 195.6 73.9999H216.6C216.9 73.9999 217.1 73.7999 217.1 73.5999L217.2 42.7999C218 37.7999 214.2 33.2999 209.1 33.2999ZM115.1 34.7999H84.1V34.4999L84.6 33.2999L96.3 13.7999H115.1V34.7999ZM163.4 34.7999H154.3H129.9V13.7999H147.2L162.8 33.2999L163.4 34.7999Z" fill="#C2FAFF"/>
</svg>
