<svg width="525" height="298" viewBox="0 0 525 298" fill="none" xmlns="http://www.w3.org/2000/svg">
<path d="M449.106 138.012C440.871 138.012 432.95 139.34 425.526 141.766C429.586 133.069 431.686 123.587 431.677 113.989C431.677 77.6653 402.231 48.2176 365.906 48.2176C352.733 48.198 339.862 52.1528 328.973 59.5649C315.011 24.665 280.907 -9.60496e-05 241.023 -9.60496e-05C194.983 -9.60496e-05 156.63 32.8543 148.095 76.3937C135.972 71.962 123.163 69.7014 110.255 69.7156C49.4789 69.7156 0.210938 118.985 0.210938 179.762C0.210938 240.538 49.4789 297.036 110.255 297.036H449.106C491.022 297.036 525.004 255.824 525.004 213.91C525.004 171.993 491.022 138.012 449.106 138.012Z" fill="#E0E3E6"/>
</svg>
