<?xml version="1.0" encoding="utf-8"?>
<!-- Generator: Adobe Illustrator 27.8.0, SVG Export Plug-In . SVG Version: 6.00 Build 0)  -->
<svg version="1.0" id="Layer_1" xmlns="http://www.w3.org/2000/svg" xmlns:xlink="http://www.w3.org/1999/xlink" x="0px" y="0px"
	 viewBox="0 0 72.7 73" style="enable-background:new 0 0 72.7 73;" xml:space="preserve">
<style type="text/css">
	.st0{fill:url(#SVGID_1_);}
	.st1{fill:url(#SVGID_00000144322449533814471530000011351622010760465579_);}
	.st2{fill:url(#SVGID_00000123402444281824327810000011537939208298150805_);}
</style>
<g>
	<linearGradient id="SVGID_1_" gradientUnits="userSpaceOnUse" x1="0.103" y1="42.2656" x2="48.7609" y2="41.3272">
		<stop  offset="0" style="stop-color:#3584FE"/>
		<stop  offset="1" style="stop-color:#B735FF"/>
	</linearGradient>
	<path class="st0" d="M48.6,68.4c-0.3-0.2-0.7-0.2-1,0c-3.9,1.2-7.5,1.8-11.1,1.8c-18.5,0-33.6-15.1-33.6-33.6
		c0-7.7,2.6-15,7.3-20.9V17c0,0.8,0.6,1.4,1.4,1.4s1.4-0.6,1.4-1.4v-4.9c0-0.2-0.1-0.3-0.2-0.5L12,10.9c-0.1-0.1-0.3-0.2-0.5-0.2
		H6.6c-0.8,0-1.4,0.7-1.4,1.4c0,0.8,0.6,1.4,1.4,1.4h1.6C2.9,20.1,0,28.2,0,36.6C0,56.7,16.3,73,36.4,73c4.1,0,8.2-0.7,11.9-2.1
		c0.5-0.2,0.7-0.4,0.8-0.7s0.2-0.6,0-1.1C49.1,68.8,48.9,68.5,48.6,68.4z"/>
	
		<linearGradient id="SVGID_00000160165507828070745430000003507221933928954529_" gradientUnits="userSpaceOnUse" x1="22.2232" y1="33.324" x2="72.633" y2="32.3518">
		<stop  offset="0" style="stop-color:#3584FE"/>
		<stop  offset="1" style="stop-color:#B735FF"/>
	</linearGradient>
	<path style="fill:url(#SVGID_00000160165507828070745430000003507221933928954529_);" d="M62.3,62.8h-1
		c7.3-6.9,11.4-16.3,11.4-26.4C72.7,16.3,56.4,0,36.3,0c-4.8,0-9.5,0.9-13.7,2.7c0,0-0.1,0-0.1,0.1c-0.7,0.5-0.9,1.1-0.7,1.8
		c0,0.1,0,0.1,0.1,0.2c0.5,0.7,1.1,0.9,1.8,0.7c4.1-1.6,8.4-2.4,12.8-2.4c18.5,0,33.6,15,33.6,33.5c0,9.8-4.1,18.9-11.3,25.2v-2.3
		c0-0.8-0.6-1.4-1.4-1.4c-0.8,0-1.4,0.6-1.4,1.4v4.9c0,0.2,0.1,0.3,0.2,0.5l0.7,0.7c0.1,0.1,0.3,0.2,0.5,0.2h4.9
		c0.8,0,1.4-0.6,1.4-1.4S63.1,62.8,62.3,62.8z"/>
	
		<linearGradient id="SVGID_00000033352219137609574010000003326281544666748065_" gradientUnits="userSpaceOnUse" x1="21.6749" y1="37.0709" x2="50.9473" y2="36.5063">
		<stop  offset="0" style="stop-color:#3584FE"/>
		<stop  offset="1" style="stop-color:#B735FF"/>
	</linearGradient>
	<path style="fill:url(#SVGID_00000033352219137609574010000003326281544666748065_);" d="M37.7,15.3c-0.2-0.2-0.3-0.3-0.3-0.4
		c-0.1-0.1-0.2-0.2-0.3-0.2c-0.2-0.1-0.4-0.2-0.7-0.2c-0.2,0-0.5,0.1-0.6,0.2c-0.2,0-0.4,0.1-0.5,0.3c-0.1,0.1-0.2,0.2-0.4,0.4
		c-8.4,9-13.1,17.4-13.2,23.6c0,7.6,5.9,13.9,13.3,14.6v4.2c0,0.8,0.6,1.4,1.4,1.4c0.8,0,1.4-0.6,1.4-1.4v-4.2
		c7.5-0.7,13.2-7,13.2-14.6c0-0.2,0-0.2,0-0.4C50.8,32.2,46.1,23.9,37.7,15.3z M48.3,38.9c0,0.2,0,0.3,0,0.4
		c-0.2,6-4.7,10.8-10.5,11.4v-3.5l10.5-9.5C48.3,38.1,48.4,38.5,48.3,38.9z M24.7,37.8L35,47.3v3.4c-5.8-0.8-10.4-5.8-10.4-11.8
		C24.6,38.5,24.7,38.2,24.7,37.8z M35,34.9v8.7l-9.7-8.9c0.6-2,1.6-4,2.8-5.9L35,34.9z M37.8,43.6v-8.8l7-6.2c1.3,2.2,2.3,4.2,2.8,6
		L37.8,43.6z M37.8,31.1V19.3c2.1,2.4,4,4.7,5.5,6.9L37.8,31.1z M35,31.2l-5.4-4.8c1.8-2.7,3.8-5.2,5.4-6.9V31.2z"/>
</g>
</svg>
