<?xml version="1.0" encoding="utf-8"?>
<!-- Generator: Adobe Illustrator 27.8.0, SVG Export Plug-In . SVG Version: 6.00 Build 0)  -->
<svg version="1.0" id="Layer_1" xmlns="http://www.w3.org/2000/svg" xmlns:xlink="http://www.w3.org/1999/xlink" x="0px" y="0px"
	 viewBox="0 0 26 26" style="enable-background:new 0 0 26 26;" xml:space="preserve">
<style type="text/css">
	.st0{fill:none;stroke:#3485FE;}
	.st1{fill:#3485FE;}
</style>
<g>
	<ellipse transform="matrix(0.7071 -0.7071 0.7071 0.7071 -5.3848 13)" class="st0" cx="13" cy="13" rx="12.5" ry="12.5"/>
	<path class="st1" d="M15.1,9.3c0-0.1-0.1-0.1-0.3-0.1c-0.3,0-2,0.3-3.7,0.5L11,10.2c0.9,0,1.3,0.1,1.4,0.7c0,0.5-1.2,6.3-1.1,7.5
		c0.1,0.8,0.6,1.3,1.5,1.3c1.8,0,2.7-2,3-2.7l-0.4-0.2c-0.2,0.3-0.7,1.4-1.3,1.4c-0.2,0-0.4-0.1-0.4-0.4c-0.1-0.9,1.2-7,1.3-7.6
		C15,9.7,15.1,9.5,15.1,9.3"/>
	<path class="st1" d="M14.1,5.1c-0.8,0-1.6,0.7-1.6,1.6c0,0.8,0.7,1.6,1.6,1.6s1.6-0.7,1.6-1.6C15.6,5.8,14.9,5.1,14.1,5.1"/>
</g>
</svg>
