<svg width="57" height="57" viewBox="0 0 57 57" fill="none" xmlns="http://www.w3.org/2000/svg">
<path d="M28.5 55.1C43.2 55.1 55.1 43.2 55.1 28.6C55.1 13.9 43.2 2 28.5 2C13.9 2 2 13.9 2 28.6C2 43.2 13.9 55.1 28.5 55.1Z" fill="white" stroke="#8800CC" stroke-width="2.1" stroke-miterlimit="100"/>
<path d="M33.0008 20.7999C32.9008 20.5999 32.7008 20.5 32.4008 20.5C31.8008 20.5 28.2008 21.2 24.5008 21.6L24.3008 22.6C26.3008 22.7 27.1008 22.9 27.3008 24.1C27.3008 25.1 24.6008 37.5 24.9008 40.1C25.0008 41.8 26.2008 42.7999 28.0008 42.7999C31.9008 42.7999 33.7008 38.6 34.3008 37.1L33.4008 36.6C33.0008 37.4 32.0008 39.7 30.7008 39.7C30.3008 39.7 30.0008 39.5 29.9008 38.7C29.7008 36.7 32.5008 23.8 32.7008 22.5C32.9008 21.6 33.0008 21.0999 33.0008 20.7999Z" fill="#8800CC"/>
<path d="M30.8 11.7999C29 11.7999 27.5 13.3 27.5 15.1C27.5 16.9 29 18.3999 30.8 18.3999C32.6 18.3999 34.1 16.9 34.1 15.1C34.1 13.3 32.6 11.7999 30.8 11.7999Z" fill="#8800CC"/>
</svg>
