<svg width="1366" height="905" viewBox="0 0 1366 905" fill="none" xmlns="http://www.w3.org/2000/svg">
<g clip-path="url(#clip0_11_2262)">
<path d="M-1 -119V265.618L158.404 392.683L-1 519.751V905H321.288L964 392.683L322.084 -119H-1Z" fill="#F8EBFF"/>
<path d="M96.0367 378.414L75.9444 362.911C73.1433 360.749 69 362.678 69 366.144V372.185L77.0714 378.414L96.0347 393.046L77.0714 407.678L69.1188 413.815V419.855C69.1188 423.321 73.2621 425.251 76.0642 423.09L96.0367 407.678L115 393.046L96.0367 378.414Z" fill="#00EEFF"/>
<path d="M58 393.046L50.2361 386.816V372.185L38.6783 362.911C35.9839 360.749 32 362.678 32 366.144V386.816L39.7639 393.046L32.1153 399.184V419.855C32.1153 423.321 36.0992 425.251 38.7926 423.09L50.3513 413.815V399.184L58 393.046Z" fill="#003C71"/>
<path d="M78 393.046L69.9374 386.816V372.186L57.9352 362.911C55.1382 360.749 51 362.678 51 366.144V372.185L59.0605 378.414L77.9959 393.046L59.0605 407.678L51.1197 413.815V419.855C51.1197 423.321 55.2569 425.251 58.0538 423.09L70.0561 413.815V399.184L78 393.046Z" fill="#BB33FF"/>
<path d="M96 393.046L77.061 378.284L69 372V386.76L77.0631 393.046L69.1187 399.239V414L77.061 407.808L96 393.046Z" fill="#00BECC"/>
<path d="M78 393.046L59.061 378.284L51 372V386.761L59.0631 393.046L51.1187 399.239V414L59.061 407.809L78 393.046Z" fill="#8800CC"/>
<path d="M364 742.641L308.587 698.002L285 679V723.634L308.594 742.641L285.349 761.367V806L308.587 787.28L364 742.641Z" fill="#EDD4FB"/>
<path d="M374 652.332L241.429 546.885L185 502V607.433L241.446 652.332L185.834 696.567V802L241.429 757.778L374 652.332Z" stroke="#E6C5F8" stroke-width="1.06667" stroke-miterlimit="10"/>
</g>
<defs>
<clipPath id="clip0_11_2262">
<rect width="905" height="1366" fill="white" transform="translate(0 905) rotate(-90)"/>
</clipPath>
</defs>
</svg>
