<svg width="126" height="55" viewBox="0 0 126 55" fill="none" xmlns="http://www.w3.org/2000/svg">
<g clip-path="url(#clip0_711_1068)">
<path d="M83.3879 35.9483H80.9219V36.679H88.2285V35.9483H86.3105V23.253C85.7625 23.8923 84.7579 23.8923 83.7532 23.8923H81.2872V24.623H83.3879V35.9483Z" fill="#003C71"/>
<path d="M37.5383 35.9483H35.0723V36.679H42.3789V35.9483H40.4609V23.253C39.9129 23.8923 38.9083 23.8923 37.9036 23.8923H35.5289V24.623H37.4469L37.5383 35.9483Z" fill="#003C71"/>
<path d="M91.7902 35.9484H89.4156V36.679H96.8135V35.9484H94.7129V24.7144H99.9189V35.9484H98.0009V36.679H105.216V35.9484H102.933V23.253C102.294 23.8924 101.289 23.8924 100.284 23.8924H94.8042V19.691C94.8042 16.8597 95.8089 14.5764 99.0969 14.5764C100.376 14.5764 101.289 15.1244 101.289 15.6724C101.289 16.0377 101.015 16.129 100.741 16.3117C100.284 16.4944 100.01 16.951 100.01 17.499C100.01 18.321 100.741 18.869 101.472 18.869C102.476 18.869 103.207 18.047 103.207 16.951C103.207 15.581 101.837 13.8457 98.9142 13.8457C93.7996 13.8457 91.9729 17.9557 91.9729 21.883V23.8924H89.3242V24.623H91.9729V35.9484" fill="#003C71"/>
<path d="M14.8878 27.363C17.9931 28.0023 19.4544 29.9203 19.4544 32.021C19.4544 34.3957 17.5364 36.3137 14.6138 36.3137C11.6911 36.3137 8.76844 33.939 8.31177 29.007H7.48977V36.8617H8.31177C8.4031 36.3137 8.58577 35.9483 9.2251 35.9483C10.4124 35.9483 11.6911 37.1357 14.6138 37.1357C18.9978 37.1357 21.3724 34.487 21.3724 30.377C21.3724 27.1803 19.8198 24.8057 15.6184 23.801L13.9744 23.4357C10.2298 22.6137 9.13377 20.8783 9.13377 19.143C9.13377 16.7683 10.9604 15.1243 13.2438 15.1243C16.7144 15.1243 18.8151 17.9557 19.2718 21.4263H20.1851V14.9417H19.3631C19.2718 15.307 19.0891 15.7637 18.4498 15.7637C17.3538 15.7637 16.5318 14.211 13.2438 14.211C9.95577 14.211 7.39844 16.5857 7.39844 20.1477C7.39844 23.9837 9.31644 25.9017 13.2438 26.9063L14.8878 27.363Z" fill="#003C71"/>
<path d="M73.5236 34.3044C73.5236 36.405 74.9849 37.227 76.9029 37.227C79.1863 37.227 80.0083 35.9484 80.3736 35.1264L79.8256 34.761C79.4603 35.4004 78.8209 36.2224 77.8163 36.2224C76.9943 36.2224 76.4463 35.857 76.4463 34.5784V24.7144H79.8256V23.9837H76.4463V20.1477H75.8069C75.2589 23.1617 73.889 23.9837 71.0576 23.9837V24.7144H73.5236V34.3044Z" fill="#003C71"/>
<path d="M64.2983 35.9483H66.4903V26.541C66.4903 25.0796 65.6683 24.4403 64.6636 24.4403C62.7456 24.4403 61.3756 26.267 60.7363 27.1803V36.0396H62.9283V36.679H55.5303V35.9483H57.8136V24.7143H55.5303V23.9836H57.9049C59.3663 23.9836 60.0969 23.9836 60.5536 23.3443V25.9016H60.6449C61.2843 25.171 62.7456 23.3443 65.3029 23.3443C68.0429 23.3443 69.4129 25.0796 69.4129 27.2716V36.0396H71.6963V36.679H64.3896L64.2983 35.9483Z" fill="#003C71"/>
<path d="M33.4276 32.4776C33.1536 34.1216 31.7836 36.131 29.5003 36.131C27.3083 36.131 26.2123 34.8523 26.2123 31.9296V29.007C26.2123 26.1756 27.217 24.1663 29.5916 24.1663C30.9616 24.1663 31.7836 24.897 31.7836 25.445C31.7836 25.719 31.601 25.9016 31.4183 26.0843C31.1443 26.3583 31.053 26.6323 31.053 26.9976C31.053 27.7283 31.6923 28.2763 32.423 28.2763H32.5143C33.3363 28.2763 34.067 27.637 34.067 26.541C34.067 24.9883 32.2403 23.3443 29.409 23.3443C25.847 23.3443 23.0156 26.0843 23.0156 30.2856C23.0156 34.0303 24.9336 37.1356 29.135 37.1356C31.9663 37.1356 33.793 34.8523 34.1583 32.3863H33.4276" fill="#003C71"/>
<path d="M115.445 32.4776C115.171 34.1216 113.801 36.131 111.517 36.131C109.325 36.131 108.229 34.8523 108.229 31.9296V29.007C108.229 26.1756 109.234 24.1663 111.609 24.1663C112.979 24.1663 113.801 24.897 113.801 25.445C113.801 25.719 113.618 25.9016 113.435 26.0843C113.253 26.3583 113.07 26.6323 113.07 26.9976C113.07 27.637 113.618 28.2763 114.44 28.2763C115.262 28.2763 115.993 27.637 115.993 26.541C115.993 24.9883 114.166 23.3443 111.335 23.3443C107.773 23.3443 104.941 26.0843 104.941 30.2856C104.941 34.0303 106.859 37.1356 111.061 37.1356C113.892 37.1356 115.719 34.8523 116.084 32.3863L115.445 32.4776Z" fill="#003C71"/>
<path d="M53.6127 32.3863C53.2473 34.213 51.8773 36.131 49.7767 36.131C47.676 36.131 46.4887 34.761 46.4887 32.2037V29.1897H54.3433C54.526 29.1897 54.6173 29.0983 54.6173 29.007V28.9157C54.6173 28.733 54.6173 28.6417 54.6173 28.459C54.6173 26.541 52.882 23.4357 49.046 23.4357C45.6667 23.4357 43.292 26.7237 43.292 30.2857C43.292 34.5783 45.8493 37.1357 49.2287 37.1357C51.8773 37.1357 53.8867 35.2177 54.4347 32.3863H53.6127ZM51.8773 28.185C51.8773 28.2763 51.786 28.3677 51.6947 28.3677H46.7627V27.363C46.7627 25.3537 47.7673 24.075 49.32 24.075C50.8727 24.075 51.8773 25.2623 51.8773 27.363V28.185Z" fill="#003C71"/>
<path d="M26.5785 0.967666H27.4005C30.3232 0.967666 31.8758 2.61167 31.8758 4.71233C31.8758 7.635 29.8665 8.63967 27.4918 8.63967H26.5785V0.967666ZM23.6558 18.1383H21.6465V18.869H29.6838C32.4238 18.869 35.7118 17.3163 35.7118 13.663C35.7118 10.7403 33.1545 9.18767 30.5972 9.09633V8.91367C32.7892 8.731 34.8898 7.361 34.8898 4.43833C34.8898 1.97233 32.7892 0.237 28.9532 0.237H21.6465V0.876333H23.6558V18.1383ZM26.5785 9.279H27.9485C30.8712 9.279 32.5151 11.197 32.5151 13.663C32.5151 16.3117 30.9625 18.2297 28.2225 18.2297H26.5785V9.279Z" fill="#003C71"/>
<path d="M36.8984 13.2977C36.8984 16.5857 39.1818 19.3257 42.5611 19.3257C45.9404 19.3257 48.2238 16.5857 48.2238 13.2977C48.2238 10.0097 45.9404 7.26965 42.5611 7.26965C39.1818 7.26965 36.8984 9.91832 36.8984 13.2977ZM45.3011 13.937C45.3011 16.2203 45.0271 18.5037 42.4698 18.5037C39.9124 18.5037 39.6384 16.2203 39.6384 13.937V12.567C39.6384 10.2837 39.8211 8.00032 42.4698 8.00032C45.1184 8.00032 45.3011 10.2837 45.3011 12.567V13.937Z" fill="#003C71"/>
<path d="M65.7607 13.2977C65.7607 16.5857 68.0441 19.3257 71.4234 19.3257C74.7114 19.3257 77.0861 16.5857 77.0861 13.2977C77.0861 10.0097 74.8027 7.26965 71.4234 7.26965C68.0441 7.26965 65.7607 10.0097 65.7607 13.2977ZM74.0721 13.937C74.0721 16.2203 73.7981 18.5037 71.2407 18.5037C68.6834 18.5037 68.4094 16.2203 68.4094 13.937V12.567C68.4094 10.2837 68.5921 8.00032 71.2407 8.00032C73.8894 8.00032 74.0721 10.2837 74.0721 12.567V13.937Z" fill="#003C71"/>
<path d="M84.9397 18.1383H86.4923V10.1923C86.4923 8.82231 85.6703 8.36564 84.757 8.36564C83.5697 8.36564 82.291 9.55298 81.743 10.7403V18.1383H83.661V18.869H76.9023V18.1383H79.003V8.45698H76.9023V7.72631H78.9117C80.099 7.72631 81.1037 7.72631 81.5603 7.17831V9.27897H81.6517C82.6563 8.00031 84.1177 7.08698 85.7617 7.08698C88.319 7.08698 89.2323 8.91364 89.2323 10.4663V18.1383H90.785V18.869H84.9397V18.1383Z" fill="#003C71"/>
<path d="M53.5216 14.3023C55.0743 14.485 55.7136 15.3983 55.7136 16.403C55.7136 17.773 54.6176 18.5037 53.339 18.5037C50.9643 18.5037 50.051 16.403 49.9596 15.033H49.3203L49.4116 19.143H49.9596C50.051 18.6863 50.1423 18.595 50.4163 18.595C50.9643 18.595 51.6036 19.3257 53.339 19.3257C55.8963 19.3257 57.3576 17.773 57.3576 15.3983C57.3576 13.663 56.353 12.2017 54.2523 11.8363L52.9736 11.6537C51.2383 11.3797 50.6903 10.8317 50.6903 9.82701C50.6903 8.82235 51.5123 8.00035 52.9736 8.00035C54.6176 8.00035 55.531 9.00501 55.8963 10.649H56.4443L56.353 7.36101H55.805C55.805 7.63501 55.6223 7.81768 55.4396 7.81768C54.983 7.81768 54.3436 7.17834 52.8823 7.17834C50.873 7.17834 49.4116 8.54834 49.4116 10.5577C49.4116 13.0237 51.0556 13.937 52.791 14.211L53.5216 14.3023Z" fill="#003C71"/>
<path d="M65.3947 17.1337C65.1207 17.5903 64.5727 18.2297 63.7507 18.2297C63.02 18.2297 62.3807 17.9557 62.3807 16.8597V8.45699H65.3947V7.72632H62.3807V3.89032H61.8327C61.376 6.53899 59.9147 7.72632 57.7227 7.72632V8.45699H59.6407V16.8597C59.6407 18.6863 60.9193 19.417 62.746 19.417C64.39 19.417 65.3033 18.595 65.76 17.8643L65.3947 17.1337Z" fill="#003C71"/>
<path d="M2.466 49.4657L1.096 52.3884H0C1.18733 50.105 2.466 47.7304 3.562 45.447H4.74933C5.57133 47.7304 6.39333 50.105 7.30667 52.3884H6.21067C5.93667 51.3837 5.57133 50.4704 5.206 49.4657H2.466ZM5.02333 48.8264L4.11 46.1777L2.74 48.8264H5.02333Z" fill="#003C71"/>
<path d="M11.6906 51.3837C11.3253 52.1143 10.5033 52.571 9.68126 52.571C8.40259 52.571 7.48926 51.749 7.48926 50.1963C7.48926 48.6437 8.49393 47.1823 10.5946 47.1823C10.9599 47.1823 11.3253 47.1823 11.6906 47.2737C11.6906 46.6343 11.6906 46.1777 11.6906 45.5383H12.6039C12.4213 47.8217 12.4213 50.1963 12.3299 52.4797H11.4166L11.6906 51.3837ZM10.5946 47.7303C8.95059 47.7303 8.40259 49.1003 8.40259 50.0137C8.40259 50.927 8.95059 51.749 9.95526 51.749C10.8686 51.749 11.4166 51.0183 11.5993 50.1963C11.7819 49.3743 11.6906 48.5523 11.7819 47.7303C11.4166 47.8217 11.0513 47.7303 10.5946 47.7303V47.7303Z" fill="#003C71"/>
<path d="M18.724 47.2737C17.902 49.009 17.1714 50.653 16.4407 52.4797H15.436L13.6094 47.2737H14.614L16.0754 51.6577L17.902 47.2737H18.724Z" fill="#003C71"/>
<path d="M22.2856 52.3883C22.377 51.5663 22.4683 50.3789 22.4683 49.3743C21.829 50.0136 19.5456 49.9223 19.5456 51.1096C19.5456 51.7489 20.185 51.9316 20.733 51.9316C21.0983 51.9316 21.4636 51.8403 21.829 51.7489L21.6463 52.3883C21.281 52.4796 21.007 52.4796 20.6416 52.4796C19.911 52.4796 18.7236 52.2969 18.7236 51.1096C18.7236 48.9176 22.4683 49.7396 22.4683 48.3696C22.4683 47.7303 21.7376 47.6389 21.281 47.6389C20.6416 47.6389 20.0023 47.8216 19.363 48.0043L19.4543 47.3649C20.0936 47.1823 20.733 47.0909 21.3723 47.0909C23.1076 47.0909 23.3816 47.7303 23.3816 48.4609C23.3816 49.1916 23.199 51.2923 23.199 52.3883H22.2856Z" fill="#003C71"/>
<path d="M25.7562 48.1869C26.2128 47.3649 26.9435 47.0909 27.8568 47.0909C28.9528 47.0909 29.7748 47.4563 29.7748 48.7349C29.7748 49.1003 29.5922 51.5663 29.5922 52.3883H28.6788C28.6788 51.7489 28.8615 49.9223 28.8615 49.0089C28.8615 48.0956 28.3135 47.7303 27.4915 47.7303C26.6695 47.7303 25.9388 48.2783 25.7562 49.1003C25.5735 50.0136 25.5735 51.7489 25.5735 52.2969H24.6602C24.7515 50.5616 24.9342 48.8263 24.9342 47.0909H25.8475L25.7562 48.1869Z" fill="#003C71"/>
<path d="M34.798 48.0044C34.3413 47.8217 33.7933 47.7304 33.3367 47.7304C32.1493 47.7304 31.6013 48.735 31.6013 49.9224C31.6013 51.1097 32.2407 51.8404 33.428 51.8404C33.8847 51.8404 34.25 51.749 34.6153 51.6577L34.524 52.3884C34.0673 52.4797 33.6107 52.571 33.154 52.571C31.51 52.571 30.5967 51.6577 30.5967 50.0137C30.5967 48.3697 31.4187 47.1824 33.2453 47.1824C33.702 47.1824 34.25 47.2737 34.6153 47.365L34.798 48.0044Z" fill="#003C71"/>
<path d="M36.8983 47.2737C36.8069 49.009 36.7156 50.7444 36.7156 52.4797H35.7109C35.8936 50.7444 35.8936 49.009 35.8936 47.2737H36.8983ZM35.8936 46.1777V45.447H36.8983V46.1777H35.8936Z" fill="#003C71"/>
<path d="M39.1819 48.1869C39.6386 47.3649 40.3693 47.0909 41.2826 47.0909C42.3786 47.0909 43.2006 47.4563 43.2006 48.7349C43.2006 49.1003 43.0179 51.5663 43.0179 52.3883H42.1046C42.1046 51.7489 42.2873 49.9223 42.2873 49.0089C42.2873 48.0956 41.7393 47.7303 40.9173 47.7303C40.0953 47.7303 39.3646 48.2783 39.1819 49.1003C38.9993 50.0136 38.9993 51.7489 38.9993 52.2969H38.0859C38.1773 50.5616 38.3599 48.8263 38.3599 47.0909H39.2733L39.1819 48.1869Z" fill="#003C71"/>
<path d="M44.5704 53.8496C45.2097 54.0323 45.8491 54.2149 46.5797 54.2149C47.4931 54.2149 47.9497 54.0323 48.2237 53.2103C48.4064 52.6623 48.4064 51.8403 48.4064 51.2923C48.0411 52.1143 47.3104 52.4796 46.3971 52.4796C45.0271 52.4796 44.2051 51.6576 44.2051 50.1963C44.2051 48.9176 44.7531 47.0909 47.5844 47.0909C48.2237 47.0909 48.8631 47.1823 49.5024 47.2736C49.4111 48.4609 49.3197 48.7349 49.2284 52.6623C49.2284 53.9409 48.6804 54.8543 46.7624 54.8543C46.0317 54.8543 45.3924 54.7629 44.6617 54.5803L44.5704 53.8496ZM47.4017 47.7303C45.1184 47.7303 44.9357 49.7396 44.9357 50.0136C44.9357 51.0183 45.4837 51.7489 46.5797 51.7489C47.4017 51.7489 48.0411 51.2009 48.2237 50.4703C48.4064 49.8309 48.4064 48.5523 48.4064 47.8216C48.1324 47.8216 47.7671 47.7303 47.4017 47.7303V47.7303Z" fill="#003C71"/>
<path d="M53.7954 51.5664C54.2521 51.749 54.8001 51.8404 55.2568 51.9317C55.7134 51.9317 56.2614 51.8404 56.2614 51.2924C56.2614 50.2877 54.0694 49.7397 54.0694 48.461C54.0694 47.7304 54.6174 47.1824 55.8048 47.1824C56.2614 47.1824 56.6268 47.2737 57.0834 47.365V48.0957C56.7181 47.913 56.2614 47.913 55.8961 47.913C55.4394 47.913 54.8914 48.0044 54.8914 48.461C54.8914 49.4657 57.0834 50.0137 57.0834 51.2924C57.0834 52.297 56.0788 52.571 55.2568 52.571C54.7088 52.571 54.2521 52.4797 53.7041 52.3884L53.7954 51.5664Z" fill="#003C71"/>
<path d="M62.1974 48.0044C61.7408 47.8217 61.1928 47.7304 60.7361 47.7304C59.5488 47.7304 59.0008 48.735 59.0008 49.9224C59.0008 51.1097 59.6401 51.8404 60.8274 51.8404C61.2841 51.8404 61.6494 51.749 62.0148 51.6577L61.9234 52.3884C61.4668 52.4797 61.0101 52.571 60.5534 52.571C58.9094 52.571 57.9961 51.6577 57.9961 50.0137C57.9961 48.3697 58.8181 47.1824 60.6448 47.1824C61.1014 47.1824 61.6494 47.2737 62.0148 47.365L62.1974 48.0044Z" fill="#003C71"/>
<path d="M64.2069 47.2737C64.1155 49.009 64.0242 50.7444 64.0242 52.4797H63.0195C63.2022 50.7444 63.2022 49.009 63.2022 47.2737H64.2069ZM63.2935 46.1777V45.447H64.2982V46.1777H63.2935Z" fill="#003C71"/>
<path d="M66.1252 49.7396V50.0136C66.1252 51.2009 66.8559 51.8403 68.0432 51.8403C68.5912 51.8403 69.1392 51.6576 69.5959 51.5663L69.4132 52.2969C68.8652 52.4796 68.4086 52.4796 67.8606 52.4796C65.6686 52.4796 65.2119 51.2009 65.2119 49.9223C65.2119 48.3696 66.1252 47.0909 67.7692 47.0909C69.1392 47.0909 69.9612 47.8216 69.9612 49.1916V49.6483L66.1252 49.7396ZM69.2306 49.1916C69.2306 48.3696 68.8652 47.7303 67.8606 47.7303C66.8559 47.7303 66.3079 48.2783 66.1252 49.1916H69.2306Z" fill="#003C71"/>
<path d="M72.0618 48.1869C72.5185 47.3649 73.2492 47.0909 74.1625 47.0909C75.2585 47.0909 76.0805 47.4563 76.0805 48.7349C76.0805 49.1003 75.8978 51.5663 75.8978 52.3883H74.9845C74.9845 51.7489 75.1672 49.9223 75.1672 49.0089C75.1672 48.0956 74.6192 47.7303 73.7972 47.7303C72.9752 47.7303 72.2445 48.2783 72.0618 49.1003C71.8792 50.0136 71.8792 51.7489 71.8792 52.2969H70.9658C71.0572 50.5616 71.2398 48.8263 71.2398 47.0909H72.1532L72.0618 48.1869Z" fill="#003C71"/>
<path d="M81.1037 48.0044C80.647 47.8217 80.099 47.7304 79.6423 47.7304C78.455 47.7304 77.907 48.735 77.907 49.9224C77.907 51.1097 78.5463 51.8404 79.7337 51.8404C80.1903 51.8404 80.5557 51.749 80.921 51.6577L80.8297 52.3884C80.373 52.4797 79.9163 52.571 79.4597 52.571C77.8157 52.571 76.9023 51.6577 76.9023 50.0137C76.9023 48.3697 77.7243 47.1824 79.551 47.1824C80.0077 47.1824 80.5557 47.2737 80.921 47.365L81.1037 48.0044Z" fill="#003C71"/>
<path d="M82.5657 49.7396V50.0136C82.5657 51.2009 83.2963 51.8403 84.4837 51.8403C85.0317 51.8403 85.5797 51.6576 86.0363 51.5663L85.8537 52.2969C85.3057 52.4796 84.849 52.4796 84.301 52.4796C82.109 52.4796 81.6523 51.2009 81.6523 49.9223C81.6523 48.3696 82.5657 47.0909 84.2097 47.0909C85.5797 47.0909 86.4017 47.8216 86.4017 49.1916V49.6483L82.5657 49.7396ZM85.671 49.1916C85.671 48.3696 85.3057 47.7303 84.301 47.7303C83.3877 47.7303 82.7483 48.2783 82.5657 49.1916H85.671Z" fill="#003C71"/>
<path d="M90.6025 47.9129V47.2736H91.2419C91.2419 46.0863 91.3332 45.2643 92.7945 45.2643C93.1599 45.2643 93.4339 45.3556 93.7992 45.3556V45.9949C93.5252 45.9036 93.1599 45.8123 92.7945 45.8123C91.9725 45.8123 91.9725 46.4516 91.9725 47.1823H93.3425L93.2512 47.8216H91.8812C91.8812 49.7396 91.7899 50.7443 91.7899 52.3883H90.8765C90.9679 50.9269 91.0592 49.3743 91.0592 47.8216L90.6025 47.9129Z" fill="#003C71"/>
<path d="M98.9145 49.6483C98.9145 51.0183 98.2752 52.4796 96.1745 52.4796C94.6219 52.4796 93.6172 51.4749 93.6172 49.9223C93.6172 48.1869 94.6219 47.0909 96.3572 47.0909C97.9099 47.0909 98.9145 48.0956 98.9145 49.6483ZM94.4392 50.0136C94.4392 51.1096 94.9872 51.9316 96.1745 51.9316C97.5445 51.9316 98.0012 50.9269 98.0012 49.7396C98.0012 48.5523 97.4532 47.9129 96.2659 47.9129C94.9872 47.7303 94.4392 48.7349 94.4392 50.0136Z" fill="#003C71"/>
<path d="M100.741 48.0957C101.015 47.4563 101.654 47.091 102.294 47.1823C102.476 47.1823 102.568 47.1823 102.659 47.2737V48.0043C102.476 47.913 102.294 47.913 102.111 47.913C101.289 47.913 100.832 48.5523 100.741 49.3743C100.65 50.379 100.558 51.475 100.65 52.4797H99.7363C99.8277 51.0183 99.919 49.4657 99.919 47.2737H100.832L100.741 48.0957Z" fill="#003C71"/>
<path d="M108.139 45.447C107.956 47.7304 107.956 50.105 107.865 52.3884H106.951C107.134 50.105 107.225 47.7304 107.225 45.447H108.139Z" fill="#003C71"/>
<path d="M110.422 47.2737C110.33 49.009 110.239 50.7444 110.239 52.4797H109.234C109.417 50.7444 109.417 49.009 109.417 47.2737H110.422ZM109.508 46.1777V45.447H110.513V46.1777H109.508Z" fill="#003C71"/>
<path d="M111.427 47.9129V47.2736H112.066C112.066 46.0863 112.157 45.2643 113.619 45.2643C113.984 45.2643 114.258 45.3556 114.623 45.3556L114.715 45.9949C114.441 45.9036 114.075 45.8123 113.71 45.8123C112.888 45.8123 112.888 46.4516 112.888 47.1823H114.258V47.8216H112.888C112.888 49.7396 112.797 50.7443 112.797 52.3883H111.883C111.975 50.9269 112.066 49.3743 112.066 47.8216L111.427 47.9129Z" fill="#003C71"/>
<path d="M115.536 49.7396V50.0136C115.536 51.2009 116.267 51.8403 117.454 51.8403C118.002 51.8403 118.55 51.6576 119.007 51.5663L118.824 52.2969C118.276 52.4796 117.82 52.4796 117.272 52.4796C115.08 52.4796 114.623 51.2009 114.623 49.9223C114.623 48.3696 115.536 47.0909 117.18 47.0909C118.55 47.0909 119.372 47.8216 119.372 49.1916V49.6483L115.536 49.7396ZM118.642 49.1916C118.642 48.3696 118.276 47.7303 117.272 47.7303C116.358 47.7303 115.719 48.2783 115.536 49.1916H118.642Z" fill="#003C71"/>
<path d="M120.834 47.8216C120.834 47.0909 120.926 46.3603 120.926 45.6296C120.652 45.6296 120.378 45.6296 120.104 45.6296V45.2643H122.113V45.6296C121.839 45.6296 121.565 45.6296 121.291 45.6296C121.291 46.3603 121.2 47.0909 121.2 47.8216H120.834ZM124.944 47.8216C124.944 47.1823 124.944 46.4516 124.944 45.7209C124.67 46.3603 124.396 47.0909 124.122 47.8216H123.574C123.392 47.1823 123.209 46.4516 123.026 45.7209C122.935 46.3603 122.935 47.0909 122.844 47.8216H122.387C122.478 46.9996 122.478 46.1776 122.57 45.3556H123.3C123.483 45.9949 123.666 46.7256 123.848 47.3649C124.122 46.7256 124.396 45.9949 124.67 45.3556H125.31V47.8216H124.944Z" fill="#003C71"/>
</g>
<defs>
<clipPath id="clip0_711_1068">
<rect width="125.583" height="55" fill="white"/>
</clipPath>
</defs>
</svg>