<?xml version="1.0" encoding="utf-8"?>
<!-- Generator: Adobe Illustrator 27.8.0, SVG Export Plug-In . SVG Version: 6.00 Build 0)  -->
<svg version="1.0" id="Layer_1" xmlns="http://www.w3.org/2000/svg" xmlns:xlink="http://www.w3.org/1999/xlink" x="0px" y="0px"
	 viewBox="0 0 77.2 70.2" style="enable-background:new 0 0 77.2 70.2;" xml:space="preserve">
<style type="text/css">
	
		.st0{clip-path:url(#SVGID_00000123428419537030902720000003748413236927468968_);fill:url(#SVGID_00000106115167894219681210000010152387086363077022_);}
	
		.st1{clip-path:url(#SVGID_00000168816042706265973620000001252720781751480244_);fill:url(#SVGID_00000030487124735610310110000006021425837542315151_);}
	
		.st2{clip-path:url(#SVGID_00000066508797190097267880000006367933710237402292_);fill:url(#SVGID_00000089546938546364312270000009157448376105043850_);}
	
		.st3{clip-path:url(#SVGID_00000116934612999042261510000010702859504700781703_);fill:url(#SVGID_00000114780108868245507160000001499559316042041477_);}
	
		.st4{clip-path:url(#SVGID_00000021077877324952685420000014603611422965779361_);fill:url(#SVGID_00000065768330937374984260000008306489144011875476_);}
	
		.st5{clip-path:url(#SVGID_00000024691705999301056130000010859626767125879986_);fill:url(#SVGID_00000098199031795237393470000007447690119232863377_);}
	
		.st6{clip-path:url(#SVGID_00000147925765336092330540000008822897229064784779_);fill:url(#SVGID_00000092434508855277243400000005278253996371726212_);}
</style>
<g>
	<g>
		<defs>
			<path id="SVGID_1_" d="M10.1,26c0-4.4,3.6-7.9,8-7.9c4.4,0,8,3.6,8,7.9c0,4.4-3.6,7.9-8,7.9C13.7,33.9,10.1,30.4,10.1,26 M7.8,26
				c0,5.6,4.6,10.2,10.2,10.2S28.3,31.6,28.3,26c0-5.6-4.6-10.2-10.2-10.2S7.8,20.4,7.8,26"/>
		</defs>
		
			<linearGradient id="SVGID_00000098922267615790326620000002903114505364122045_" gradientUnits="userSpaceOnUse" x1="7.82" y1="26.0035" x2="28.273" y2="26.0035">
			<stop  offset="0" style="stop-color:#3485FE"/>
			<stop  offset="1" style="stop-color:#BB33FF"/>
		</linearGradient>
		<use xlink:href="#SVGID_1_"  style="overflow:visible;fill:url(#SVGID_00000098922267615790326620000002903114505364122045_);"/>
		<clipPath id="SVGID_00000179621158401582734650000005795549467822134206_">
			<use xlink:href="#SVGID_1_"  style="overflow:visible;"/>
		</clipPath>
		
			<linearGradient id="SVGID_00000075884641579265705800000005032429189994637235_" gradientUnits="userSpaceOnUse" x1="7.82" y1="26.0035" x2="28.273" y2="26.0035">
			<stop  offset="0" style="stop-color:#3485FE"/>
			<stop  offset="1" style="stop-color:#BB33FF"/>
		</linearGradient>
		
			<rect x="7.8" y="15.8" style="clip-path:url(#SVGID_00000179621158401582734650000005795549467822134206_);fill:url(#SVGID_00000075884641579265705800000005032429189994637235_);" width="20.5" height="20.3"/>
	</g>
	<g>
		<defs>
			<path id="SVGID_00000051351862453099377470000006708015278783985575_" d="M51,26c0-4.4,3.6-7.9,8-7.9c4.4,0,8,3.6,8,7.9
				c0,4.4-3.6,7.9-8,7.9C54.6,33.9,51,30.4,51,26 M48.7,26c0,5.6,4.6,10.2,10.2,10.2c5.6,0,10.2-4.6,10.2-10.2
				c0-5.6-4.6-10.2-10.2-10.2C53.3,15.8,48.7,20.4,48.7,26"/>
		</defs>
		
			<linearGradient id="SVGID_00000125596905419912348670000017428137263521356422_" gradientUnits="userSpaceOnUse" x1="48.727" y1="26.0035" x2="69.179" y2="26.0035">
			<stop  offset="0" style="stop-color:#3485FE"/>
			<stop  offset="1" style="stop-color:#BB33FF"/>
		</linearGradient>
		
			<use xlink:href="#SVGID_00000051351862453099377470000006708015278783985575_"  style="overflow:visible;fill:url(#SVGID_00000125596905419912348670000017428137263521356422_);"/>
		<clipPath id="SVGID_00000091694999656672401020000005634478598165312395_">
			<use xlink:href="#SVGID_00000051351862453099377470000006708015278783985575_"  style="overflow:visible;"/>
		</clipPath>
		
			<linearGradient id="SVGID_00000152224050303613407320000002707417941967810712_" gradientUnits="userSpaceOnUse" x1="48.727" y1="26.0035" x2="69.179" y2="26.0035">
			<stop  offset="0" style="stop-color:#3485FE"/>
			<stop  offset="1" style="stop-color:#BB33FF"/>
		</linearGradient>
		
			<rect x="48.7" y="15.8" style="clip-path:url(#SVGID_00000091694999656672401020000005634478598165312395_);fill:url(#SVGID_00000152224050303613407320000002707417941967810712_);" width="20.5" height="20.3"/>
	</g>
	<g>
		<defs>
			<path id="SVGID_00000057147409780903600970000013197067797374559633_" d="M30.4,10.2c0-4.4,3.6-7.9,8-7.9c4.4,0,8,3.6,8,7.9
				c0,4.4-3.6,7.9-8,7.9C34,18.1,30.4,14.5,30.4,10.2 M38.4,0c-5.6,0-10.2,4.6-10.2,10.2c0,5.6,4.6,10.2,10.2,10.2
				c5.6,0,10.2-4.6,10.2-10.2C48.6,4.6,44,0,38.4,0z"/>
		</defs>
		
			<linearGradient id="SVGID_00000092441734895392907460000007356989840936005017_" gradientUnits="userSpaceOnUse" x1="28.153" y1="10.1735" x2="48.606" y2="10.1735">
			<stop  offset="0" style="stop-color:#3485FE"/>
			<stop  offset="1" style="stop-color:#BB33FF"/>
		</linearGradient>
		
			<use xlink:href="#SVGID_00000057147409780903600970000013197067797374559633_"  style="overflow:visible;fill:url(#SVGID_00000092441734895392907460000007356989840936005017_);"/>
		<clipPath id="SVGID_00000160152069850947364870000011161919498909899426_">
			<use xlink:href="#SVGID_00000057147409780903600970000013197067797374559633_"  style="overflow:visible;"/>
		</clipPath>
		
			<linearGradient id="SVGID_00000083084817490066131160000016915393615956486288_" gradientUnits="userSpaceOnUse" x1="28.153" y1="10.1735" x2="48.606" y2="10.1735">
			<stop  offset="0" style="stop-color:#3485FE"/>
			<stop  offset="1" style="stop-color:#BB33FF"/>
		</linearGradient>
		
			<rect x="28.2" style="clip-path:url(#SVGID_00000160152069850947364870000011161919498909899426_);fill:url(#SVGID_00000083084817490066131160000016915393615956486288_);" width="20.5" height="20.3"/>
	</g>
	<g>
		<defs>
			<path id="SVGID_00000038373746317764864110000012817517980776887477_" d="M16.3,68.2c-0.3,0.5-0.1,1.3,0.4,1.6l0.1,0h0
				c0.5,0.3,1.2,0.1,1.5-0.4c4.3-6.8,11.9-11,20.2-11s15.9,4.2,20.2,11c0.3,0.5,1,0.7,1.5,0.4l0.1,0c0.6-0.3,0.8-1,0.4-1.6
				C56,60.7,47.6,56.1,38.5,56.1S21,60.7,16.3,68.2"/>
		</defs>
		
			<linearGradient id="SVGID_00000067225294045467066730000006589802572597483703_" gradientUnits="userSpaceOnUse" x1="16.1392" y1="63.0412" x2="60.8727" y2="63.0412">
			<stop  offset="0" style="stop-color:#3485FE"/>
			<stop  offset="1" style="stop-color:#BB33FF"/>
		</linearGradient>
		
			<use xlink:href="#SVGID_00000038373746317764864110000012817517980776887477_"  style="overflow:visible;fill:url(#SVGID_00000067225294045467066730000006589802572597483703_);"/>
		<clipPath id="SVGID_00000099648170212194488280000006063239664030209693_">
			<use xlink:href="#SVGID_00000038373746317764864110000012817517980776887477_"  style="overflow:visible;"/>
		</clipPath>
		
			<linearGradient id="SVGID_00000116194133742088649600000003613775255707089596_" gradientUnits="userSpaceOnUse" x1="15.965" y1="63.12" x2="61.046" y2="63.12">
			<stop  offset="0" style="stop-color:#3485FE"/>
			<stop  offset="1" style="stop-color:#BB33FF"/>
		</linearGradient>
		
			<rect x="16" y="56.1" style="clip-path:url(#SVGID_00000099648170212194488280000006063239664030209693_);fill:url(#SVGID_00000116194133742088649600000003613775255707089596_);" width="45.1" height="14.1"/>
	</g>
	<g>
		<defs>
			<path id="SVGID_00000167382424842288574140000007000124710041816754_" d="M28.2,41c0-5.6,4.6-10.2,10.3-10.2S48.8,35.4,48.8,41
				c0,5.6-4.6,10.2-10.3,10.2S28.2,46.7,28.2,41 M25.9,41c0,6.9,5.7,12.6,12.6,12.6S51.1,47.9,51.1,41s-5.7-12.6-12.6-12.6
				S25.9,34.1,25.9,41"/>
		</defs>
		
			<linearGradient id="SVGID_00000134956368121667124030000015348763668335197072_" gradientUnits="userSpaceOnUse" x1="25.867" y1="41.0015" x2="51.133" y2="41.0015">
			<stop  offset="0" style="stop-color:#3485FE"/>
			<stop  offset="1" style="stop-color:#BB33FF"/>
		</linearGradient>
		
			<use xlink:href="#SVGID_00000167382424842288574140000007000124710041816754_"  style="overflow:visible;fill:url(#SVGID_00000134956368121667124030000015348763668335197072_);"/>
		<clipPath id="SVGID_00000147934807023889140470000010960719294154009509_">
			<use xlink:href="#SVGID_00000167382424842288574140000007000124710041816754_"  style="overflow:visible;"/>
		</clipPath>
		
			<linearGradient id="SVGID_00000063630867722220550820000015948508481985021871_" gradientUnits="userSpaceOnUse" x1="25.867" y1="41.0015" x2="51.133" y2="41.0015">
			<stop  offset="0" style="stop-color:#3485FE"/>
			<stop  offset="1" style="stop-color:#BB33FF"/>
		</linearGradient>
		
			<rect x="25.9" y="28.4" style="clip-path:url(#SVGID_00000147934807023889140470000010960719294154009509_);fill:url(#SVGID_00000063630867722220550820000015948508481985021871_);" width="25.3" height="25.1"/>
	</g>
	<g>
		<defs>
			<path id="SVGID_00000176725269733378002070000002843350315351970459_" d="M0.2,48.8C0.1,49,0,49.2,0,49.4v0c0,0.4,0.2,0.8,0.6,1
				l0.1,0c0.5,0.3,1.2,0.1,1.5-0.4c3.6-5.6,9.9-9,16.8-9c1.2,0,2.4,0.1,3.6,0.3c0.6,0.1,1.2-0.3,1.4-0.9c0,0,0,0,0-0.1
				c0.1-0.6-0.3-1.2-0.9-1.4c-1.3-0.3-2.7-0.4-4.1-0.4v0C11.3,38.6,4.2,42.5,0.2,48.8"/>
		</defs>
		
			<linearGradient id="SVGID_00000103229145823252794890000007286836593766845339_" gradientUnits="userSpaceOnUse" x1="0" y1="44.6265" x2="23.9914" y2="44.6265">
			<stop  offset="0" style="stop-color:#3485FE"/>
			<stop  offset="1" style="stop-color:#BB33FF"/>
		</linearGradient>
		
			<use xlink:href="#SVGID_00000176725269733378002070000002843350315351970459_"  style="overflow:visible;fill:url(#SVGID_00000103229145823252794890000007286836593766845339_);"/>
		<clipPath id="SVGID_00000112613355187230794640000009267424491215759770_">
			<use xlink:href="#SVGID_00000176725269733378002070000002843350315351970459_"  style="overflow:visible;"/>
		</clipPath>
		
			<linearGradient id="SVGID_00000124155296241850286700000006712867637164507026_" gradientUnits="userSpaceOnUse" x1="0" y1="44.7055" x2="24.098" y2="44.7055">
			<stop  offset="0" style="stop-color:#3485FE"/>
			<stop  offset="1" style="stop-color:#BB33FF"/>
		</linearGradient>
		
			<rect y="38.6" style="clip-path:url(#SVGID_00000112613355187230794640000009267424491215759770_);fill:url(#SVGID_00000124155296241850286700000006712867637164507026_);" width="24.1" height="12.1"/>
	</g>
	<g>
		<defs>
			<path id="SVGID_00000002346650829739608240000018445558642041313675_" d="M58.1,38.6c-1.4,0-2.8,0.1-4.1,0.4
				c-0.6,0.1-1,0.7-0.9,1.4c0,0,0,0,0,0.1c0.1,0.6,0.7,1,1.4,0.9c1.2-0.2,2.4-0.3,3.6-0.3c6.9,0,13.2,3.4,16.7,9
				c0.3,0.5,1,0.7,1.5,0.4l0.1,0c0.6-0.3,0.8-1,0.4-1.6C72.8,42.5,65.7,38.6,58.1,38.6L58.1,38.6z"/>
		</defs>
		
			<linearGradient id="SVGID_00000145762656123111988420000010414024768418232748_" gradientUnits="userSpaceOnUse" x1="53.0071" y1="44.6025" x2="76.9996" y2="44.6025">
			<stop  offset="0" style="stop-color:#3485FE"/>
			<stop  offset="1" style="stop-color:#BB33FF"/>
		</linearGradient>
		
			<use xlink:href="#SVGID_00000002346650829739608240000018445558642041313675_"  style="overflow:visible;fill:url(#SVGID_00000145762656123111988420000010414024768418232748_);"/>
		<clipPath id="SVGID_00000107568521686861704080000004835065981001098680_">
			<use xlink:href="#SVGID_00000002346650829739608240000018445558642041313675_"  style="overflow:visible;"/>
		</clipPath>
		
			<linearGradient id="SVGID_00000088107918186445606110000008730775114933084851_" gradientUnits="userSpaceOnUse" x1="52.901" y1="44.6815" x2="77.18" y2="44.6815">
			<stop  offset="0" style="stop-color:#3485FE"/>
			<stop  offset="1" style="stop-color:#BB33FF"/>
		</linearGradient>
		
			<rect x="52.9" y="38.6" style="clip-path:url(#SVGID_00000107568521686861704080000004835065981001098680_);fill:url(#SVGID_00000088107918186445606110000008730775114933084851_);" width="24.3" height="12.1"/>
	</g>
</g>
</svg>
