<svg width="52" height="53" viewBox="0 0 52 53" fill="none" xmlns="http://www.w3.org/2000/svg">
<path d="M26.361 2.29527V5.15313C37.9078 5.15313 47.2992 14.7696 47.2992 26.5944C47.2992 38.4174 37.9078 48.0339 26.361 48.0339C14.8143 48.0339 5.4229 38.4174 5.4229 26.5944C5.4229 19.834 8.55155 13.5346 13.7971 9.49115V19.4479H16.5891V5.15313H2.63091V8.01282H11.1057C8.43976 10.3183 6.30259 13.1718 4.84003 16.3786C3.37747 19.5853 2.62396 23.0699 2.63091 26.5944C2.63091 39.9927 13.2756 50.8917 26.361 50.8917C39.4465 50.8917 50.0912 39.9927 50.0912 26.5944C50.0912 13.1961 39.4465 2.29527 26.361 2.29527Z" fill="#3385FF" stroke="#3385FF" stroke-width="3.65923" stroke-miterlimit="10" stroke-linecap="round" stroke-linejoin="round"/>
</svg>
