<svg width="93" height="74" viewBox="0 0 93 74" fill="none" xmlns="http://www.w3.org/2000/svg">
<path d="M2.31648 37.2202H90.7054M2 2.00005H90.7364V72.4403H2V2.00005ZM19.7472 72.4403H72.9892V2.00005H19.7472V72.4403ZM37.4946 72.4403H55.2418V2.00005H37.4946V72.4403ZM2 54.9108H90.7364V19.5278H2V54.9108Z" stroke="white" stroke-width="2.74443" stroke-miterlimit="10"/>
<path d="M2.31648 37.2202H90.7054M2 2.00005H90.7364V72.4403H2V2.00005ZM19.7472 72.4403H72.9892V2.00005H19.7472V72.4403ZM37.4946 72.4403H55.2418V2.00005H37.4946V72.4403ZM2 54.9108H90.7364V19.5278H2V54.9108Z" stroke="url(#paint0_linear_1_2272)" stroke-width="2.74443" stroke-miterlimit="10"/>
<defs>
<linearGradient id="paint0_linear_1_2272" x1="5.96152" y1="31.3323" x2="90.8642" y2="32.9697" gradientUnits="userSpaceOnUse">
<stop stop-color="#3584FE"/>
<stop offset="1" stop-color="#B735FF"/>
</linearGradient>
</defs>
</svg>
