<svg width="85" height="85" viewBox="0 0 85 85" fill="none" xmlns="http://www.w3.org/2000/svg">
<ellipse cx="42.6708" cy="42.3317" rx="38.5262" ry="38.5272" transform="rotate(-84.5785 42.6708 42.3317)" stroke="url(#paint0_linear_37_12)" stroke-width="4" stroke-linecap="round"/>
<path d="M62.9867 60.5979L44.7161 42.3273L62.9867 24.0567C63.2556 23.7854 63.4065 23.4188 63.4065 23.0367C63.4065 22.6547 63.2556 22.2881 62.9867 22.0167C62.8532 21.882 62.6943 21.7751 62.5192 21.7021C62.3441 21.6292 62.1563 21.5916 61.9667 21.5916C61.777 21.5916 61.5892 21.6292 61.4141 21.7021C61.2391 21.7751 61.0802 21.882 60.9467 22.0167L42.6761 40.2873L24.3909 22.0021C24.1196 21.7332 23.753 21.5823 23.3709 21.5823C22.9889 21.5823 22.6223 21.7332 22.3509 22.0021C22.2162 22.1356 22.1093 22.2945 22.0363 22.4696C21.9633 22.6446 21.9258 22.8324 21.9258 23.0221C21.9258 23.2118 21.9633 23.3996 22.0363 23.5746C22.1093 23.7497 22.2162 23.9086 22.3509 24.0421L40.6361 42.3273L22.3509 60.6125C22.082 60.8839 21.9311 61.2505 21.9311 61.6325C21.9311 62.0146 22.082 62.3812 22.3509 62.6525C22.4844 62.7872 22.6433 62.8941 22.8184 62.9671C22.9935 63.0401 23.1812 63.0776 23.3709 63.0776C23.5606 63.0776 23.7484 63.0401 23.9234 62.9671C24.0985 62.8941 24.2574 62.7872 24.3909 62.6525L42.6761 44.3673L60.9467 62.6379C61.2176 62.9077 61.5843 63.0592 61.9667 63.0592C62.349 63.0592 62.7158 62.9077 62.9867 62.6379C63.1214 62.5044 63.2283 62.3455 63.3013 62.1704C63.3742 61.9953 63.4118 61.8075 63.4118 61.6179C63.4118 61.4282 63.3742 61.2404 63.3013 61.0653C63.2283 60.8903 63.1214 60.7314 62.9867 60.5979Z" fill="url(#paint1_linear_37_12)" stroke="url(#paint2_linear_37_12)" stroke-width="1.82962" stroke-miterlimit="10"/>
<defs>
<linearGradient id="paint0_linear_37_12" x1="42.6708" y1="3.80457" x2="42.6708" y2="80.8589" gradientUnits="userSpaceOnUse">
<stop stop-color="#5792FF"/>
<stop offset="1" stop-color="#BB33FF"/>
</linearGradient>
<linearGradient id="paint1_linear_37_12" x1="42.6688" y1="21.5823" x2="42.6688" y2="63.0776" gradientUnits="userSpaceOnUse">
<stop stop-color="#5792FF"/>
<stop offset="1" stop-color="#BB33FF"/>
</linearGradient>
<linearGradient id="paint2_linear_37_12" x1="63" y1="42" x2="22" y2="42" gradientUnits="userSpaceOnUse">
<stop stop-color="#BB33FF"/>
<stop offset="0.5625" stop-color="#5792FF"/>
</linearGradient>
</defs>
</svg>